<svg xmlns="http://www.w3.org/2000/svg" width="1000" height="83.723" viewBox="0 0 1000.0001 83.7235">`<path fill="#49166d" d="M99.121 16.785L18.475 34.12l-3.11 8.388 84.007-20.429 2.599-1.467-.073-3.817-2.777-.01"/><path d="M111.082 4.785v-.007.007m2.62-4.77c-3.725.213-10.624 5.732-14.412 9.01-15.08 13.047-26.293 25.04-34.446 37.6C47.847 55.727 26.174 65.09 4.66 72.396l-.52.175L0 83.723l2.364-.915c13.687-5.216 36.532-15.011 57.241-25.9-1.166 3.11-1.754 5.969-1.754 8.577 0 1.942.326 3.75.975 5.394 1.302 3.281 3.87 5.767 7.428 7.18 5.3 2.113 12.53 2.152 20.78-.344 21.075-6.39 46.074-26.003 51.517-29.904l.208-.147c.214-.154.23-.387.14-.545-.12-.18-.37-.229-.577-.102h-.002.002l-.268.162c-5.84 3.506-34.223 20.357-52.672 25.303-9.398 2.521-16.56 1.146-19.26-2.634-.938-1.29-1.39-2.924-1.39-4.829 0-3.718 1.75-8.452 5.121-13.715 3.103-1.765 6.001-3.491 8.613-5.132 17.999-10.115 38.736-29.783 39.621-41.789.004-.081.004-.176.004-.266 0-1.036-.448-2.102-1.235-2.888a3.98 3.98 0 0 0-3.153-1.213zm-2.006 5.723c1.181-.765 1.521-.287 1.174.576-.562 1.379-3.16 9.671-22.456 25.513-5.036 4.124-8.617 6.44-15.868 10.733 11.874-16.64 29.209-31.666 37.15-36.822z" fill="#6c0"/><path d="M176.024 1.474L99.372 16.735v5.346l.244-.063C150.253 9.709 176.022 2.306 176.23 2.254c.286-.075.387-.298.348-.486-.043-.197-.25-.36-.555-.294M210.298 23.33v-9.156H169.85v9.155h13.665v37.224h13.101V23.33h13.682M261.15 23.188v-9.014h-32.156v46.38h32.155v-9.408h-19.135v-10.28h15.917v-9.004h-15.917v-8.674h19.135M317.857 51.401h-20.09V14.174h-13.18v46.38h33.27V51.4M362.82 14.174V43.64c0 2.308 0 2.946-.135 3.845-.426 2.808-3.146 4.438-7.487 4.496-3.216-.053-5.57-1.003-6.665-2.683-.55-.863-.82-2.414-.82-4.892V14.174h-13.67v31.963c0 4.429.59 6.429 2.594 8.957 3.298 4.124 9.73 6.293 18.587 6.293h.483c11.863 0 17.985-4.625 19.755-8.952.886-2.098.951-3.091.951-7.325V14.174h-13.592M424.004 31.849C415.112 29.846 412 29.613 412 26.075c0-3.283 4.407-4.304 6.94-4.304 4.1 0 8.944.956 13.877 3.485l3.587-8.534c-5.058-2.757-11.543-3.904-17.786-3.904-12.264 0-20.491 4.975-20.84 14.676-.35 8.847 6.846 12.156 13.456 13.522 6.372 1.317 12.837 2.444 12.969 6.23.117 3.491-3.023 4.987-8.95 4.987-5.485 0-10.588-1.764-15.8-3.948l-3.045 9.277c5.992 2.548 12.076 3.953 18.345 3.953 8.711 0 15.07-1.36 19.751-5.754 3.244-3.017 4.305-6.659 4.305-10.136.007-7.33-4.56-11.46-14.805-13.776" fill="#49166d"/><path stroke="#49166d" stroke-width="2" d="M480 5v65"/><text x="515.476" y="54.39" style="font-variant-ligatures:normal;font-variant-caps:normal;font-variant-numeric:normal;font-feature-settings:normal;text-align:start" font-weight="300" font-size="49.605" font-family="-apple-system,BlinkMacSystemFont,'Segoe UI',Roboto,Oxygen-Sans,Ubuntu,Cantarell,'Helvetica Neue',sans-serif" fill="#49166d" stroke-width="1.86">Reference Architecture</text></svg>