<svg width="1e3" height="83.723" enable-background="new 0 0 273.274 74.559" version="1.1" viewBox="0 0 1e3 83.724" xmlns="http://www.w3.org/2000/svg"><g fill="#49166d"><polyline transform="matrix(1.8602 0 0 1.8602 0 .0065079)" points="140.39 12.462 140.39 7.616 123.1 7.616 123.1 32.549 140.39 32.549 140.39 27.492 130.1 27.492 130.1 21.965 138.66 21.965 138.66 17.125 130.1 17.125 130.1 12.462 140.39 12.462"/><polyline transform="matrix(1.8602 0 0 1.8602 0 .0065079)" points="170.88 27.629 160.08 27.629 160.08 7.616 152.99 7.616 152.99 32.549 170.88 32.549 170.88 27.629"/><path d="m424 31.849c-8.8916-2.0034-12.004-2.2359-12.004-5.774 0-3.2832 4.4067-4.3044 6.9403-4.3044 4.0998 0 8.9437 0.95613 13.877 3.486l3.5864-8.5345c-5.0578-2.7568-11.542-3.9045-17.785-3.9045-12.264 0-20.492 4.976-20.839 14.677-0.35157 8.847 6.8454 12.156 13.455 13.522 6.3729 1.317 12.837 2.4443 12.969 6.2297 0.11719 3.4915-3.0228 4.9871-8.9493 4.9871-5.4856 0-10.588-1.7634-15.8-3.9473l-3.0451 9.2767c5.9916 2.5484 12.076 3.9529 18.345 3.9529 8.7112 0 15.069-1.3598 19.751-5.7535 3.2441-3.0172 4.3044-6.6594 4.3044-10.136 7e-3 -7.3309-4.5593-11.461-14.805-13.776" stroke-width="1.8602"/><polyline transform="matrix(1.8602 0 0 1.8602 0 .0065079)" points="113.05 12.538 113.05 7.616 91.309 7.616 91.309 12.538 98.655 12.538 98.655 32.549 105.7 32.549 105.7 12.538 113.05 12.538"/><path d="m362.82 14.174v29.467c0 2.3085 0 2.9465-0.13579 3.845-0.42598 2.8089-3.1456 4.4384-7.4872 4.496-3.2162-0.05208-5.5694-1.0026-6.665-2.6824-0.55061-0.86312-0.82034-2.4145-0.82034-4.8922v-30.233h-13.669v31.963c0 4.4291 0.58967 6.4288 2.5931 8.9567 3.2981 4.124 9.7306 6.293 18.587 6.293h0.29205 0.1916c11.862 0 17.984-4.6244 19.755-8.9511 0.88544-2.0983 0.95055-3.0916 0.95055-7.3254v-30.937h-13.592" stroke-width="1.8602"/><path d="m176.02 1.4742-76.652 15.261v5.3461l0.24368-0.06325c50.638-12.309 76.407-19.712 76.615-19.764 0.28647-0.07441 0.38692-0.29763 0.34786-0.4855-0.0428-0.19718-0.24927-0.36087-0.55433-0.29391" stroke-width="1.8602"/></g><path d="m111.08 4.7853v-0.0074 0.0074m2.621-4.7695c-3.7259 0.21206-10.625 5.7312-14.413 9.0088-15.08 13.047-26.294 25.04-34.447 37.6-16.996 9.1037-38.669 18.466-60.184 25.773l-0.51899 0.17486-4.1407 11.152 2.3643-0.9152c13.687-5.2159 36.532-15.012 57.241-25.901-1.1663 3.1102-1.7541 5.9693-1.7541 8.5772 0 1.942 0.32553 3.7501 0.97473 5.3945 1.3021 3.2813 3.8692 5.7665 7.4277 7.1803 5.2996 2.1132 12.53 2.1522 20.78-0.34413 21.076-6.3897 46.075-26.003 51.517-29.904l0.20834-0.14695c0.21392-0.15439 0.2288-0.38692 0.13952-0.54503-0.11906-0.18044-0.37018-0.2288-0.57666-0.10231h-2e-3 2e-3l-0.26786 0.16184c-5.8409 3.5064-34.223 20.358-52.673 25.304-9.3976 2.5205-16.559 1.1459-19.26-2.634-0.93753-1.291-1.3895-2.9242-1.3895-4.829 0-3.7185 1.7504-8.4526 5.121-13.715 3.1028-1.7653 6.0009-3.4915 8.6126-5.1322 17.999-10.116 38.736-29.783 39.622-41.789 4e-3 -0.08185 4e-3 -0.17672 4e-3 -0.266 0-1.0361-0.4483-2.102-1.2352-2.8888-0.84452-0.86126-1.9569-1.291-3.153-1.2128zm-2.0071 5.7219c1.1812-0.76453 1.5216-0.28647 1.1738 0.57665-0.56178 1.3784-3.1604 9.671-22.456 25.512-5.0355 4.124-8.6163 6.4399-15.867 10.733 11.873-16.639 29.208-31.666 37.149-36.822z" fill="#6c0" stroke-width="1.8602"/><polyline transform="matrix(1.8602 0 0 1.8602 0 .0065079)" points="53.286 9.02 9.932 18.339 8.26 22.848 53.421 11.866 54.818 11.077 54.779 9.025 53.286 9.02" fill="#49166d"/><g fill="#49166d" stroke-width="1.8602" aria-label="Reference Architecture"><path d="m522.42 35.789v-13.939h12.6q3.8692 0 5.7541 1.885 1.885 1.885 1.885 5.1589 0 1.637-0.64486 2.9267-0.59526 1.2401-1.637 2.133-1.0417 0.89288-2.4306 1.3889-1.3889 0.44644-2.9267 0.44644zm-3.3731-16.816v35.418h3.3731v-15.725h12.798q2.381-0.09921 3.7203 0.79367 1.3889 0.89288 2.0834 2.381 0.74406 1.4385 0.94248 3.3235 0.24802 1.8354 0.34723 3.7203 0.0496 0.54565 0.0992 1.2897t0.0992 1.5377q0.0992 0.74407 0.24802 1.4881 0.19842 0.69446 0.49605 1.1905h3.7203q-0.54565-0.64486-0.89288-1.7858-0.29763-1.1905-0.44644-2.4802-0.14881-1.3393-0.19842-2.629-0.0496-1.2897-0.0992-2.1826-0.0992-1.5873-0.44644-2.9267-0.29763-1.3889-1.0417-2.4306-0.69446-1.0417-1.8354-1.6866-1.1409-0.69446-2.8771-0.94249v-0.09921q3.4227-0.69446 5.1589-3.1747t1.7362-5.8533q0-2.381-0.89289-4.1172-0.84327-1.7858-2.3314-2.8771-1.4385-1.1409-3.4227-1.6866-1.9346-0.54565-4.1172-0.54565z" style="font-feature-settings:normal;font-variant-caps:normal;font-variant-ligatures:normal;font-variant-numeric:normal"/><path d="m569.99 39.807h-16.568q0.19842-1.7362 0.79368-3.3731 0.64486-1.6866 1.6866-2.9267 1.0417-1.2897 2.5298-2.0338 1.4881-0.79367 3.4227-0.79367 1.885 0 3.3731 0.79367 1.4881 0.74407 2.5298 2.0338 1.0417 1.2401 1.5874 2.8771 0.59525 1.637 0.64486 3.4227zm-16.568 2.629h19.693q0.0992-2.6786-0.49604-5.2581-0.59526-2.629-1.9842-4.6132-1.3393-2.0338-3.5219-3.2739t-5.2581-1.2401q-3.0259 0-5.2581 1.1905-2.1826 1.1409-3.5715 3.0755-1.3889 1.885-2.0834 4.3156-0.64486 2.4306-0.64486 4.9605 0 2.7283 0.64486 5.2085 0.69446 2.4306 2.0834 4.3156 1.3889 1.8354 3.5715 2.9267 2.2322 1.0417 5.2581 1.0417 4.8612 0 7.4903-2.381 2.6786-2.381 3.6707-6.7462h-3.1251q-0.74407 2.9763-2.6786 4.762t-5.3573 1.7858q-2.2322 0-3.8196-0.94249-1.5874-0.94249-2.629-2.381-1.0417-1.4385-1.5377-3.2243-0.44645-1.8354-0.44645-3.5219z" style="font-feature-settings:normal;font-variant-caps:normal;font-variant-ligatures:normal;font-variant-numeric:normal"/><path d="m587.23 31.423v-2.629h-5.0597v-2.2322q0-1.0417 0.0496-1.9346t0.34723-1.5377q0.34723-0.69446 1.0417-1.0913 0.69446-0.39684 1.9842-0.39684 0.54565 0 1.0913 0.09921 0.54565 0.04961 1.1905 0.14881v-2.6786q-0.74407-0.09921-1.3393-0.14881-0.59526-0.0496-1.2897-0.0496-1.885 0-3.1251 0.54565-1.1905 0.54565-1.885 1.5377-0.69447 0.99209-0.94249 2.381-0.24802 1.3889-0.24802 3.0259v2.3314h-4.3652v2.629h4.3652v22.967h3.1251v-22.967z" style="font-feature-settings:normal;font-variant-caps:normal;font-variant-ligatures:normal;font-variant-numeric:normal"/><path d="m608.65 39.807h-16.568q0.19842-1.7362 0.79367-3.3731 0.64486-1.6866 1.6866-2.9267 1.0417-1.2897 2.5298-2.0338 1.4881-0.79367 3.4227-0.79367 1.885 0 3.3731 0.79367 1.4881 0.74407 2.5298 2.0338 1.0417 1.2401 1.5873 2.8771 0.59526 1.637 0.64486 3.4227zm-16.568 2.629h19.693q0.0992-2.6786-0.49605-5.2581-0.59525-2.629-1.9842-4.6132-1.3393-2.0338-3.5219-3.2739t-5.2581-1.2401q-3.0259 0-5.2581 1.1905-2.1826 1.1409-3.5715 3.0755-1.3889 1.885-2.0834 4.3156-0.64485 2.4306-0.64485 4.9605 0 2.7283 0.64485 5.2085 0.69447 2.4306 2.0834 4.3156 1.3889 1.8354 3.5715 2.9267 2.2322 1.0417 5.2581 1.0417 4.8612 0 7.4903-2.381 2.6786-2.381 3.6707-6.7462h-3.1251q-0.74406 2.9763-2.6786 4.762t-5.3573 1.7858q-2.2322 0-3.8196-0.94249-1.5874-0.94249-2.629-2.381-1.0417-1.4385-1.5377-3.2243-0.44644-1.8354-0.44644-3.5219z" style="font-feature-settings:normal;font-variant-caps:normal;font-variant-ligatures:normal;font-variant-numeric:normal"/><path d="m616.01 28.794v25.596h3.1251v-13.641q0-2.0338 0.69446-3.7203 0.69447-1.7362 1.9346-2.9763 1.2897-1.2401 3.0259-1.885 1.7362-0.69446 3.8692-0.59526v-3.1251q-3.4723-0.14881-6.0022 1.5377-2.4802 1.6866-3.6707 4.8116h-0.0992v-6.0022z" style="font-feature-settings:normal;font-variant-caps:normal;font-variant-ligatures:normal;font-variant-numeric:normal"/><path d="m649.14 39.807h-16.568q0.19842-1.7362 0.79367-3.3731 0.64486-1.6866 1.6866-2.9267 1.0417-1.2897 2.5298-2.0338 1.4881-0.79367 3.4227-0.79367 1.885 0 3.3731 0.79367 1.4881 0.74407 2.5298 2.0338 1.0417 1.2401 1.5874 2.8771 0.59526 1.637 0.64486 3.4227zm-16.568 2.629h19.693q0.0992-2.6786-0.49605-5.2581-0.59525-2.629-1.9842-4.6132-1.3393-2.0338-3.5219-3.2739t-5.2581-1.2401q-3.0259 0-5.2581 1.1905-2.1826 1.1409-3.5715 3.0755-1.3889 1.885-2.0834 4.3156-0.64486 2.4306-0.64486 4.9605 0 2.7283 0.64486 5.2085 0.69447 2.4306 2.0834 4.3156 1.3889 1.8354 3.5715 2.9267 2.2322 1.0417 5.2581 1.0417 4.8612 0 7.4903-2.381 2.6786-2.381 3.6707-6.7462h-3.1251q-0.74407 2.9763-2.6786 4.762-1.9346 1.7858-5.3573 1.7858-2.2322 0-3.8196-0.94249-1.5873-0.94249-2.629-2.381-1.0417-1.4385-1.5377-3.2243-0.44644-1.8354-0.44644-3.5219z" style="font-feature-settings:normal;font-variant-caps:normal;font-variant-ligatures:normal;font-variant-numeric:normal"/><path d="m656.46 28.794v25.596h3.1251v-14.931q0.0496-1.885 0.59526-3.4723 0.59525-1.637 1.5873-2.7779 1.0417-1.1905 2.4802-1.8354 1.4881-0.69446 3.3731-0.69446t3.1251 0.59526q1.2897 0.59526 2.0338 1.637 0.74407 1.0417 1.0417 2.4802 0.29763 1.3889 0.29763 3.0259v15.973h3.1251v-16.469q0-2.2818-0.44644-4.1172-0.44644-1.8354-1.5377-3.0755-1.0913-1.2897-2.9267-1.9842-1.7858-0.69446-4.4644-0.69446-2.7282 0-5.0101 1.4385-2.2818 1.3889-3.1747 3.7203h-0.0992v-4.4148z" style="font-feature-settings:normal;font-variant-caps:normal;font-variant-ligatures:normal;font-variant-numeric:normal"/><path d="m701.21 36.83h3.1251q-0.54565-4.4148-3.4227-6.5974-2.8275-2.1826-6.9446-2.1826-2.9267 0-5.2085 1.0913-2.2322 1.0913-3.77 2.9267-1.5377 1.8354-2.3314 4.3156-0.79367 2.4306-0.79367 5.2085t0.79367 5.2581q0.79367 2.4306 2.3314 4.266 1.5377 1.8354 3.77 2.9267 2.2818 1.0417 5.2085 1.0417 4.3652 0 7.143-2.5794 2.7779-2.629 3.4227-7.2919h-3.1251q-0.14881 1.5873-0.79367 2.9267t-1.637 2.3314q-0.99209 0.94249-2.2818 1.4881t-2.7282 0.54565q-2.2322 0-3.9188-0.94249-1.6866-0.94249-2.8275-2.4802-1.0913-1.5377-1.6866-3.4723-0.54565-1.9842-0.54565-4.018t0.54565-3.9684q0.59526-1.9842 1.6866-3.5219 1.1409-1.5377 2.8275-2.4802 1.6866-0.94249 3.9188-0.94249 3.1251 0 4.8612 1.637 1.7362 1.637 2.381 4.514z" style="font-feature-settings:normal;font-variant-caps:normal;font-variant-ligatures:normal;font-variant-numeric:normal"/><path d="m727.33 39.807h-16.568q0.19842-1.7362 0.79367-3.3731 0.64486-1.6866 1.6866-2.9267 1.0417-1.2897 2.5298-2.0338 1.4881-0.79367 3.4227-0.79367 1.885 0 3.3731 0.79367 1.4881 0.74407 2.5298 2.0338 1.0417 1.2401 1.5873 2.8771 0.59526 1.637 0.64486 3.4227zm-16.568 2.629h19.693q0.0992-2.6786-0.49605-5.2581-0.59525-2.629-1.9842-4.6132-1.3393-2.0338-3.5219-3.2739t-5.2581-1.2401q-3.0259 0-5.2581 1.1905-2.1826 1.1409-3.5715 3.0755-1.3889 1.885-2.0834 4.3156-0.64486 2.4306-0.64486 4.9605 0 2.7283 0.64486 5.2085 0.69447 2.4306 2.0834 4.3156 1.3889 1.8354 3.5715 2.9267 2.2322 1.0417 5.2581 1.0417 4.8612 0 7.4903-2.381 2.6786-2.381 3.6707-6.7462h-3.1251q-0.74406 2.9763-2.6786 4.762t-5.3573 1.7858q-2.2322 0-3.8196-0.94249-1.5874-0.94249-2.629-2.381-1.0417-1.4385-1.5377-3.2243-0.44644-1.8354-0.44644-3.5219z" style="font-feature-settings:normal;font-variant-caps:normal;font-variant-ligatures:normal;font-variant-numeric:normal"/><path d="m754.06 40.501 7.0934-18.155 6.8454 18.155zm5.3573-21.528-14.236 35.418h3.5715l4.266-11.012h16.121l4.3156 11.012h3.6211l-13.889-35.418z" style="font-feature-settings:normal;font-variant-caps:normal;font-variant-ligatures:normal;font-variant-numeric:normal"/><path d="m779.75 28.794v25.596h3.1251v-13.641q0-2.0338 0.69446-3.7203 0.69447-1.7362 1.9346-2.9763 1.2897-1.2401 3.0259-1.885 1.7362-0.69446 3.8692-0.59526v-3.1251q-3.4723-0.14881-6.0022 1.5377-2.4802 1.6866-3.6707 4.8116h-0.0992v-6.0022z" style="font-feature-settings:normal;font-variant-caps:normal;font-variant-ligatures:normal;font-variant-numeric:normal"/><path d="m812.53 36.83h3.1251q-0.54565-4.4148-3.4227-6.5974-2.8275-2.1826-6.9446-2.1826-2.9267 0-5.2085 1.0913-2.2322 1.0913-3.7699 2.9267-1.5377 1.8354-2.3314 4.3156-0.79367 2.4306-0.79367 5.2085t0.79367 5.2581q0.79368 2.4306 2.3314 4.266 1.5377 1.8354 3.7699 2.9267 2.2818 1.0417 5.2085 1.0417 4.3652 0 7.1431-2.5794 2.7778-2.629 3.4227-7.2919h-3.1251q-0.14882 1.5873-0.79368 2.9267t-1.637 2.3314q-0.99209 0.94249-2.2818 1.4881-1.2897 0.54565-2.7282 0.54565-2.2322 0-3.9188-0.94249-1.6866-0.94249-2.8275-2.4802-1.0913-1.5377-1.6866-3.4723-0.54565-1.9842-0.54565-4.018t0.54565-3.9684q0.59525-1.9842 1.6866-3.5219 1.1409-1.5377 2.8275-2.4802 1.6866-0.94249 3.9188-0.94249 3.1251 0 4.8612 1.637 1.7362 1.637 2.381 4.514z" style="font-feature-settings:normal;font-variant-caps:normal;font-variant-ligatures:normal;font-variant-numeric:normal"/><path d="m820.2 18.973v35.418h3.1251v-14.931q0.0496-1.885 0.59526-3.4723 0.59525-1.637 1.5873-2.7779 1.0417-1.1905 2.4802-1.8354 1.4881-0.69446 3.3731-0.69446t3.1251 0.59526q1.2897 0.59526 2.0338 1.637 0.74407 1.0417 1.0417 2.4802 0.29762 1.3889 0.29762 3.0259v15.973h3.1251v-16.469q0-2.2818-0.44644-4.1172-0.44644-1.8354-1.5377-3.0755-1.0913-1.2897-2.9267-1.9842-1.7858-0.69446-4.4644-0.69446-2.7282 0-5.0101 1.4385-2.2818 1.3889-3.1747 3.7203h-0.0992v-14.237z" style="font-feature-settings:normal;font-variant-caps:normal;font-variant-ligatures:normal;font-variant-numeric:normal"/><path d="m846.94 18.973v5.0101h3.1251v-5.0101zm0 9.8217v25.596h3.1251v-25.596z" style="font-feature-settings:normal;font-variant-caps:normal;font-variant-ligatures:normal;font-variant-numeric:normal"/><path d="m861.05 28.794v-7.6887h-3.1251v7.6887h-4.4644v2.629h4.4644v17.51q-0.0496 3.2739 1.1905 4.514 1.2401 1.1905 4.3652 1.1905 0.69447 0 1.3889-0.0496t1.3889-0.0496v-2.6291q-1.3393 0.14881-2.6786 0.14881-1.6866-0.09921-2.133-0.94249-0.39684-0.89288-0.39684-2.4306v-17.262h5.2085v-2.629z" style="font-feature-settings:normal;font-variant-caps:normal;font-variant-ligatures:normal;font-variant-numeric:normal"/><path d="m889.22 39.807h-16.568q0.19842-1.7362 0.79367-3.3731 0.64486-1.6866 1.6866-2.9267 1.0417-1.2897 2.5298-2.0338 1.4881-0.79367 3.4227-0.79367 1.885 0 3.3731 0.79367 1.4881 0.74407 2.5298 2.0338 1.0417 1.2401 1.5873 2.8771 0.59526 1.637 0.64486 3.4227zm-16.568 2.629h19.693q0.0992-2.6786-0.49605-5.2581-0.59525-2.629-1.9842-4.6132-1.3393-2.0338-3.5219-3.2739t-5.2581-1.2401q-3.0259 0-5.2581 1.1905-2.1826 1.1409-3.5715 3.0755-1.3889 1.885-2.0834 4.3156-0.64486 2.4306-0.64486 4.9605 0 2.7283 0.64486 5.2085 0.69447 2.4306 2.0834 4.3156 1.3889 1.8354 3.5715 2.9267 2.2322 1.0417 5.2581 1.0417 4.8612 0 7.4903-2.381 2.6786-2.381 3.6707-6.7462h-3.1251q-0.74406 2.9763-2.6786 4.762t-5.3573 1.7858q-2.2322 0-3.8196-0.94249-1.5874-0.94249-2.629-2.381-1.0417-1.4385-1.5377-3.2243-0.44644-1.8354-0.44644-3.5219z" style="font-feature-settings:normal;font-variant-caps:normal;font-variant-ligatures:normal;font-variant-numeric:normal"/><path d="m914.65 36.83h3.1251q-0.54565-4.4148-3.4227-6.5974-2.8275-2.1826-6.9446-2.1826-2.9267 0-5.2085 1.0913-2.2322 1.0913-3.77 2.9267-1.5377 1.8354-2.3314 4.3156-0.79368 2.4306-0.79368 5.2085t0.79368 5.2581q0.79367 2.4306 2.3314 4.266 1.5377 1.8354 3.77 2.9267 2.2818 1.0417 5.2085 1.0417 4.3652 0 7.1431-2.5794 2.7778-2.629 3.4227-7.2919h-3.1251q-0.14882 1.5873-0.79368 2.9267-0.64485 1.3393-1.637 2.3314-0.99209 0.94249-2.2818 1.4881-1.2897 0.54565-2.7282 0.54565-2.2322 0-3.9188-0.94249-1.6866-0.94249-2.8275-2.4802-1.0913-1.5377-1.6866-3.4723-0.54565-1.9842-0.54565-4.018t0.54565-3.9684q0.59525-1.9842 1.6866-3.5219 1.1409-1.5377 2.8275-2.4802 1.6866-0.94249 3.9188-0.94249 3.1251 0 4.8612 1.637 1.7362 1.637 2.381 4.514z" style="font-feature-settings:normal;font-variant-caps:normal;font-variant-ligatures:normal;font-variant-numeric:normal"/><path d="m927.32 28.794v-7.6887h-3.1251v7.6887h-4.4644v2.629h4.4644v17.51q-0.0496 3.2739 1.1905 4.514 1.2401 1.1905 4.3652 1.1905 0.69446 0 1.3889-0.0496 0.69446-0.0496 1.3889-0.0496v-2.6291q-1.3393 0.14881-2.6786 0.14881-1.6866-0.09921-2.133-0.94249-0.39683-0.89288-0.39683-2.4306v-17.262h5.2085v-2.629z" style="font-feature-settings:normal;font-variant-caps:normal;font-variant-ligatures:normal;font-variant-numeric:normal"/><path d="m957.82 54.39v-25.596h-3.1251v13.443q0 1.9346-0.44644 3.8196-0.44644 1.8354-1.3889 3.2739-0.94249 1.4385-2.381 2.3314-1.4385 0.84328-3.4723 0.84328-3.7203 0-5.2581-1.7858-1.4881-1.7858-1.5874-5.2581v-16.667h-3.1251v16.618q0 2.2818 0.49605 4.0676t1.5377 3.0259q1.0913 1.2401 2.7779 1.885 1.7362 0.69446 4.1668 0.69446 2.8771 0 5.2085-1.3393 2.381-1.3889 3.6211-3.9684h0.0992v4.6132z" style="font-feature-settings:normal;font-variant-caps:normal;font-variant-ligatures:normal;font-variant-numeric:normal"/><path d="m963.73 28.794v25.596h3.1251v-13.641q0-2.0338 0.69447-3.7203 0.69446-1.7362 1.9346-2.9763 1.2897-1.2401 3.0259-1.885 1.7362-0.69446 3.8692-0.59526v-3.1251q-3.4723-0.14881-6.0022 1.5377-2.4802 1.6866-3.6707 4.8116h-0.0992v-6.0022z" style="font-feature-settings:normal;font-variant-caps:normal;font-variant-ligatures:normal;font-variant-numeric:normal"/><path d="m996.86 39.807h-16.568q0.19842-1.7362 0.79368-3.3731 0.64485-1.6866 1.6866-2.9267 1.0417-1.2897 2.5298-2.0338 1.4881-0.79367 3.4227-0.79367 1.885 0 3.3731 0.79367 1.4881 0.74407 2.5298 2.0338 1.0417 1.2401 1.5873 2.8771 0.59526 1.637 0.64486 3.4227zm-16.568 2.629h19.693q0.0992-2.6786-0.49605-5.2581-0.59525-2.629-1.9842-4.6132-1.3393-2.0338-3.5219-3.2739t-5.2581-1.2401q-3.0259 0-5.2581 1.1905-2.1826 1.1409-3.5715 3.0755-1.3889 1.885-2.0834 4.3156-0.64485 2.4306-0.64485 4.9605 0 2.7283 0.64485 5.2085 0.69447 2.4306 2.0834 4.3156 1.3889 1.8354 3.5715 2.9267 2.2322 1.0417 5.2581 1.0417 4.8612 0 7.4903-2.381 2.6786-2.381 3.6707-6.7462h-3.1251q-0.74406 2.9763-2.6786 4.762t-5.3573 1.7858q-2.2322 0-3.8196-0.94249-1.5874-0.94249-2.629-2.381-1.0417-1.4385-1.5377-3.2243-0.44644-1.8354-0.44644-3.5219z" style="font-feature-settings:normal;font-variant-caps:normal;font-variant-ligatures:normal;font-variant-numeric:normal"/></g><text x="467.98148" y="58.483768" fill="#66cc00" font-family="sans-serif" font-size="74.407px" letter-spacing="0px" stroke-width="1.8602" word-spacing="0px" style="line-height:1.25" xml:space="preserve"><tspan x="467.98148" y="58.483768" fill="#66cc00" font-family="HelveticaNeue" stroke-width="1.8602">|</tspan></text></svg>
