<?xml version="1.0" encoding="UTF-8" standalone="no"?>
<svg
  xmlns:dc="http://purl.org/dc/elements/1.1/"
  xmlns:cc="http://creativecommons.org/ns#"
  xmlns:rdf="http://www.w3.org/1999/02/22-rdf-syntax-ns#"
  xmlns:svg="http://www.w3.org/2000/svg"
  xmlns="http://www.w3.org/2000/svg"
  version="1.1"
  id="TELUS_Property_Logo"
  x="0px"
  y="0px"
  width="1000"
  height="83.723495"
  viewBox="0 0 1000.0001 83.7235"
  enable-background="new 0 0 273.274 74.559"
  xml:space="preserve">
`
  <!-- Begin TELUS Logo -->
  <polyline
    id="TELUS-T-Logo-Dash-1"
    points="53.286,9.02 9.932,18.339 8.26,22.848 53.421,11.866 54.818,11.077 54.779,9.025 53.286,9.02 "
    style="fill:#49166d"
    transform="matrix(1.8601708,0,0,1.8601708,0,0.00650789)" />
  <path
    id="TELUS-T-Logo-Main"
    d="m 111.08196,4.7852869 v -0.0074 0.0074 m 2.62098,-4.76947802 C 109.97702,0.22786788 103.07765,5.7469949 99.290338,9.0246159 84.209933,22.071854 72.996824,34.064375 64.843695,46.624249 47.847314,55.727925 26.174464,65.090165 4.6597279,72.396916 L 4.1407403,72.571772 0,83.723496 2.3642771,82.808292 C 16.051414,77.592373 38.896172,67.796713 59.605454,56.907273 c -1.166327,3.110206 -1.754141,5.969289 -1.754141,8.577248 0,1.942018 0.32553,3.750104 0.974729,5.394495 1.30212,3.281342 3.869156,5.76653 7.427662,7.18026 5.299627,2.113154 12.530111,2.152217 20.779969,-0.344132 C 108.10941,71.325457 133.10824,51.711816 138.5511,47.811038 l 0.20834,-0.146954 c 0.21392,-0.154394 0.2288,-0.386915 0.13952,-0.54503 -0.11906,-0.180436 -0.37018,-0.228801 -0.57666,-0.102309 h -0.002 0.002 l -0.26786,0.161835 c -5.84094,3.506422 -34.22342,20.357709 -52.672599,25.303904 -9.397583,2.520531 -16.559241,1.145865 -19.260209,-2.634002 -0.937526,-1.290959 -1.389547,-2.924189 -1.389547,-4.829004 0,-3.718481 1.75042,-8.452616 5.12105,-13.715039 3.102765,-1.765302 6.000911,-3.491541 8.612591,-5.132212 17.999013,-10.115609 38.736194,-29.783195 39.621634,-41.7887371 0.004,-0.08185 0.004,-0.176716 0.004,-0.266005 0,-1.036115 -0.4483,-2.101993 -1.23515,-2.888845 -0.84452,-0.86125902 -1.9569,-1.29095802 -3.15299,-1.21283102 z m -2.00712,5.72188502 c 1.18121,-0.76453 1.52162,-0.286466 1.17377,0.576653 -0.56178,1.378387 -3.16043,9.6710281 -22.455987,25.5122431 -5.035482,4.123998 -8.616311,6.439911 -15.867257,10.733185 C 86.419816,25.920548 103.75475,10.894088 111.69582,5.7376939 Z"
    style="fill:#66cc00;stroke-width:1.86017084" />
  <path
    id="TELUS-T-Logo-Dash-2"
    d="M 176.02425,1.4741829 99.372186,16.735024 v 5.346131 l 0.243682,-0.06325 C 150.25344,9.7091549 176.02238,2.3056749 176.23072,2.2535899 c 0.28647,-0.07441 0.38692,-0.297627 0.34786,-0.485504 -0.0428,-0.197178 -0.24927,-0.360873 -0.55433,-0.293907"
    style="fill:#49166d;stroke-width:1.86017084" />
 <polyline
    id="TELUS-Letter-T"
    points="113.053,12.538 113.053,7.616 91.309,7.616 91.309,12.538 98.655,12.538 98.655,32.549 105.698,32.549 105.698,12.538 113.053,12.538 "
    style="fill:#49166d"
    transform="matrix(1.8601708,0,0,1.8601708,0,0.00650789)" />
  <polyline
    id="TELUS-Letter-E"
    points="140.39,12.462 140.39,7.616 123.104,7.616 123.104,32.549 140.39,32.549 140.39,27.492 130.103,27.492 130.103,21.965 138.66,21.965 138.66,17.125 130.103,17.125 130.103,12.462 140.39,12.462 "
    style="fill:#49166d"
    transform="matrix(1.8601708,0,0,1.8601708,0,0.00650789)" />
  <polyline
    id="TELUS-Letter-L"
    points="170.875,27.629 160.075,27.629 160.075,7.616 152.99,7.616 152.99,32.549 170.875,32.549 170.875,27.629 "
    style="fill:#49166d"
    transform="matrix(1.8601708,0,0,1.8601708,0,0.00650789)" />
   <path
    id="TELUS-Letter-U"
    d="m 362.82074,14.173569 v 29.466966 c 0,2.308472 0,2.94651 -0.13579,3.844973 -0.42598,2.808858 -3.14555,4.438368 -7.48719,4.496033 -3.21624,-0.05208 -5.56935,-1.002632 -6.66499,-2.682366 -0.55061,-0.86312 -0.82034,-2.414502 -0.82034,-4.89225 V 14.173569 H 334.0439 v 31.963315 c 0,4.429067 0.58967,6.428751 2.59307,8.956723 3.29809,4.123999 9.73056,6.292958 18.58683,6.292958 0.0986,0 0.18602,0 0.29205,0 0.0446,0 0.12463,0 0.1916,0 11.86231,0 17.98413,-4.624385 19.75501,-8.951142 0.88544,-2.098273 0.95055,-3.091604 0.95055,-7.325353 V 14.173569 h -13.59227"
    style="fill:#49166d;stroke-width:1.86017084" /> 
  <path
    id="TELUS-Letter-S"
    d="m 424.00362,31.848912 c -8.89162,-2.003404 -12.00368,-2.235926 -12.00368,-5.77397 0,-3.283202 4.40674,-4.304435 6.94029,-4.304435 4.09982,0 8.9437,0.956127 13.87688,3.48596 l 3.58641,-8.534464 c -5.05781,-2.756773 -11.54236,-3.904499 -17.7851,-3.904499 -12.2641,0 -20.49164,4.975957 -20.83949,14.676748 -0.35157,8.846972 6.84543,12.156216 13.45462,13.521582 6.37294,1.317001 12.83703,2.444264 12.96911,6.229712 0.11719,3.491541 -3.02278,4.987118 -8.94929,4.987118 -5.48564,0 -10.58809,-1.763442 -15.80029,-3.947283 l -3.0451,9.276672 c 5.99161,2.548435 12.07623,3.952863 18.34501,3.952863 8.71118,0 15.06924,-1.359784 19.75129,-5.753508 3.24414,-3.017197 4.30444,-6.659411 4.30444,-10.136071 0.007,-7.330933 -4.55928,-11.460513 -14.8051,-13.776425"
    style="fill:#49166d;stroke-width:1.86017084" />
  <!-- End TELUS Logo -->
  <!-- Vertical Divider -->
  <line 
    id="Vertical Divider"
    x1="480"
    y1="5"
    x2="480"
    y2="70"
    style="stroke:#49166d;stroke-width:2">
  </line>
  <!-- Modifiable Text -->
  <text
    id="Modifiable-Text"
    x="515.47644"
    y="54.390278"
    style="font-style:normal;font-variant:normal;font-weight:300;font-stretch:normal;font-size:49.60455322px;font-family:-apple-system,BlinkMacSystemFont,'Segoe UI',Roboto,Oxygen-Sans,Ubuntu,Cantarell,'Helvetica Neue',sans-serif;font-variant-ligatures:normal;font-variant-caps:normal;font-variant-numeric:normal;font-feature-settings:normal;text-align:start;writing-mode:lr-tb;text-anchor:start;fill:#49166d;fill-opacity:1;stroke-width:1.86017084"
    >
    Reference Architecture
  </text>
</svg>