<svg width="1e3" height="83.717" enable-background="new 0 0 273.274 74.559" version="1.1" viewBox="0 0 1e3 83.717" xmlns="http://www.w3.org/2000/svg"><g fill="#49166d"><polyline transform="matrix(1.8602 0 0 1.8602 0 -.00025134)" points="140.39 12.462 140.39 7.616 123.1 7.616 123.1 32.549 140.39 32.549 140.39 27.492 130.1 27.492 130.1 21.965 138.66 21.965 138.66 17.125 130.1 17.125 130.1 12.462 140.39 12.462"/><polyline transform="matrix(1.8602 0 0 1.8602 0 -.00025134)" points="170.88 27.629 160.08 27.629 160.08 7.616 152.99 7.616 152.99 32.549 170.88 32.549 170.88 27.629"/><path d="m424 31.842c-8.8916-2.0034-12.004-2.2359-12.004-5.774 0-3.2832 4.4067-4.3044 6.9403-4.3044 4.0998 0 8.9437 0.95613 13.877 3.486l3.5864-8.5345c-5.0578-2.7568-11.542-3.9045-17.785-3.9045-12.264 0-20.492 4.976-20.84 14.677-0.35157 8.847 6.8454 12.156 13.455 13.522 6.3729 1.317 12.837 2.4443 12.969 6.2297 0.11719 3.4915-3.0228 4.9871-8.9493 4.9871-5.4856 0-10.588-1.7634-15.8-3.9473l-3.0451 9.2767c5.9916 2.5484 12.076 3.9529 18.345 3.9529 8.7112 0 15.069-1.3598 19.751-5.7535 3.2441-3.0172 4.3044-6.6594 4.3044-10.136 7e-3 -7.3309-4.5593-11.461-14.805-13.776" stroke-width="1.8602"/><polyline transform="matrix(1.8602 0 0 1.8602 0 -.00025134)" points="113.05 12.538 113.05 7.616 91.309 7.616 91.309 12.538 98.655 12.538 98.655 32.549 105.7 32.549 105.7 12.538 113.05 12.538"/><path d="m362.82 14.167v29.467c0 2.3085 0 2.9465-0.13579 3.845-0.42598 2.8089-3.1456 4.4384-7.4872 4.496-3.2162-0.05208-5.5694-1.0026-6.665-2.6824-0.55061-0.86312-0.82034-2.4145-0.82034-4.8922v-30.233h-13.669v31.963c0 4.4291 0.58967 6.4288 2.5931 8.9567 3.2981 4.124 9.7306 6.293 18.587 6.293h0.29205 0.1916c11.862 0 17.984-4.6244 19.755-8.9511 0.88544-2.0983 0.95055-3.0916 0.95055-7.3254v-30.937h-13.592" stroke-width="1.8602"/><path d="m176.02 1.4674-76.652 15.261v5.3461l0.24368-0.06325c50.638-12.309 76.407-19.712 76.615-19.764 0.28646-0.07441 0.38691-0.29763 0.34785-0.4855-0.0428-0.19718-0.24927-0.36087-0.55433-0.29391" stroke-width="1.8602"/></g><path d="m111.08 4.7785v-0.0074 0.0074m2.621-4.7695c-3.7259 0.21206-10.625 5.7312-14.413 9.0088-15.08 13.047-26.294 25.04-34.447 37.6-16.996 9.1037-38.669 18.466-60.184 25.773l-0.51899 0.17486-4.1407 11.152 2.3643-0.9152c13.687-5.2159 36.532-15.012 57.241-25.901-1.1663 3.1102-1.7541 5.9693-1.7541 8.5772 0 1.942 0.32553 3.7501 0.97473 5.3945 1.3021 3.2813 3.8692 5.7665 7.4277 7.1803 5.2996 2.1132 12.53 2.1522 20.78-0.34413 21.076-6.3897 46.075-26.003 51.517-29.904l0.20834-0.14695c0.21392-0.15439 0.22881-0.38692 0.13952-0.54503-0.11905-0.18044-0.37018-0.2288-0.57666-0.10231h-2e-3 2e-3l-0.26786 0.16184c-5.8409 3.5064-34.223 20.358-52.673 25.304-9.3976 2.5205-16.559 1.1459-19.26-2.634-0.93753-1.291-1.3895-2.9242-1.3895-4.829 0-3.7185 1.7504-8.4526 5.121-13.715 3.1028-1.7653 6.0009-3.4915 8.6126-5.1322 17.999-10.116 38.736-29.783 39.622-41.789 4e-3 -0.08185 4e-3 -0.17672 4e-3 -0.266 0-1.0361-0.44831-2.102-1.2352-2.8888-0.84452-0.86126-1.9569-1.291-3.153-1.2128zm-2.0071 5.7219c1.1812-0.76453 1.5216-0.28647 1.1738 0.57665-0.56178 1.3784-3.1604 9.671-22.456 25.512-5.0355 4.124-8.6163 6.4399-15.867 10.733 11.873-16.639 29.208-31.666 37.149-36.822z" fill="#6c0" stroke-width="1.8602"/><polyline transform="matrix(1.8602 0 0 1.8602 0 -.00025134)" points="53.286 9.02 9.932 18.339 8.26 22.848 53.421 11.866 54.818 11.077 54.779 9.025 53.286 9.02" fill="#49166d"/><g transform="scale(1.8602)" fill="#49166d" aria-label="Reference Architecture"><path d="m280.85 19.236v-7.4933h6.7733q2.08 0 3.0933 1.0133 1.0133 1.0133 1.0133 2.7733 0 0.88-0.34667 1.5733-0.32 0.66667-0.88 1.1467t-1.3067 0.74667q-0.74667 0.24-1.5733 0.24zm-1.8133-9.04v19.04h1.8133v-8.4533h6.88q1.28-0.05333 2 0.42667 0.74667 0.48 1.12 1.28 0.4 0.77333 0.50667 1.7867 0.13333 0.98667 0.18666 2 0.0267 0.29333 0.0533 0.69333 0.0267 0.4 0.0533 0.82667 0.0533 0.4 0.13333 0.8 0.10667 0.37333 0.26667 0.64h2q-0.29333-0.34667-0.48-0.96-0.16-0.64-0.24-1.3333-0.08-0.72-0.10667-1.4133-0.0267-0.69333-0.0533-1.1733-0.0533-0.85333-0.24-1.5733-0.16-0.74667-0.56-1.3067-0.37333-0.56-0.98667-0.90667-0.61333-0.37333-1.5467-0.50667v-0.05333q1.84-0.37333 2.7733-1.7067 0.93333-1.3333 0.93333-3.1467 0-1.28-0.48-2.2133-0.45333-0.96-1.2533-1.5467-0.77333-0.61333-1.84-0.90667-1.04-0.29333-2.2133-0.29333z" style="font-feature-settings:normal;font-variant-caps:normal;font-variant-ligatures:normal;font-variant-numeric:normal"/><path d="m306.42 21.396h-8.9067q0.10667-0.93333 0.42667-1.8133 0.34667-0.90667 0.90667-1.5733 0.56-0.69333 1.36-1.0933 0.8-0.42667 1.84-0.42667 1.0133 0 1.8133 0.42667 0.8 0.4 1.36 1.0933 0.56 0.66667 0.85333 1.5467 0.32 0.88 0.34667 1.84zm-8.9067 1.4133h10.587q0.0533-1.44-0.26667-2.8267-0.32-1.4133-1.0667-2.48-0.72-1.0933-1.8933-1.76-1.1733-0.66667-2.8267-0.66667-1.6267 0-2.8267 0.64-1.1733 0.61333-1.92 1.6533-0.74667 1.0133-1.12 2.32-0.34667 1.3067-0.34667 2.6667 0 1.4667 0.34667 2.8 0.37333 1.3067 1.12 2.32 0.74667 0.98667 1.92 1.5733 1.2 0.56 2.8267 0.56 2.6133 0 4.0267-1.28 1.44-1.28 1.9733-3.6267h-1.68q-0.4 1.6-1.44 2.56t-2.88 0.96q-1.2 0-2.0533-0.50667-0.85333-0.50667-1.4133-1.28-0.56-0.77333-0.82667-1.7333-0.24-0.98667-0.24-1.8933z" style="font-feature-settings:normal;font-variant-caps:normal;font-variant-ligatures:normal;font-variant-numeric:normal"/><path d="m315.69 16.889v-1.4133h-2.72v-1.2q0-0.56 0.0267-1.04t0.18666-0.82667q0.18667-0.37333 0.56-0.58667 0.37334-0.21333 1.0667-0.21333 0.29333 0 0.58667 0.05333 0.29333 0.02667 0.64 0.08v-1.44q-0.4-0.05333-0.72-0.08t-0.69334-0.02667q-1.0133 0-1.68 0.29333-0.64 0.29333-1.0133 0.82667t-0.50667 1.28q-0.13333 0.74667-0.13333 1.6267v1.2533h-2.3467v1.4133h2.3467v12.347h1.68v-12.347z" style="font-feature-settings:normal;font-variant-caps:normal;font-variant-ligatures:normal;font-variant-numeric:normal"/><path d="m327.2 21.396h-8.9067q0.10667-0.93333 0.42667-1.8133 0.34667-0.90667 0.90667-1.5733 0.56-0.69333 1.36-1.0933 0.8-0.42667 1.84-0.42667 1.0133 0 1.8133 0.42667 0.8 0.4 1.36 1.0933 0.56 0.66667 0.85333 1.5467 0.32 0.88 0.34667 1.84zm-8.9067 1.4133h10.587q0.0533-1.44-0.26667-2.8267-0.32-1.4133-1.0667-2.48-0.72-1.0933-1.8933-1.76-1.1733-0.66667-2.8267-0.66667-1.6267 0-2.8267 0.64-1.1733 0.61333-1.92 1.6533-0.74667 1.0133-1.12 2.32-0.34667 1.3067-0.34667 2.6667 0 1.4667 0.34667 2.8 0.37333 1.3067 1.12 2.32 0.74667 0.98667 1.92 1.5733 1.2 0.56 2.8267 0.56 2.6133 0 4.0267-1.28 1.44-1.28 1.9733-3.6267h-1.68q-0.4 1.6-1.44 2.56t-2.88 0.96q-1.2 0-2.0533-0.50667-0.85333-0.50667-1.4133-1.28-0.56-0.77333-0.82667-1.7333-0.24-0.98667-0.24-1.8933z" style="font-feature-settings:normal;font-variant-caps:normal;font-variant-ligatures:normal;font-variant-numeric:normal"/><path d="m331.16 15.476v13.76h1.68v-7.3333q0-1.0933 0.37333-2 0.37334-0.93333 1.04-1.6 0.69334-0.66667 1.6267-1.0133 0.93333-0.37333 2.08-0.32v-1.68q-1.8667-0.08-3.2267 0.82667-1.3333 0.90667-1.9733 2.5867h-0.0533v-3.2267z" style="font-feature-settings:normal;font-variant-caps:normal;font-variant-ligatures:normal;font-variant-numeric:normal"/><path d="m348.97 21.396h-8.9067q0.10666-0.93333 0.42666-1.8133 0.34667-0.90667 0.90667-1.5733 0.56-0.69333 1.36-1.0933 0.8-0.42667 1.84-0.42667 1.0133 0 1.8133 0.42667 0.8 0.4 1.36 1.0933 0.56 0.66667 0.85334 1.5467 0.32 0.88 0.34666 1.84zm-8.9067 1.4133h10.587q0.0533-1.44-0.26666-2.8267-0.32-1.4133-1.0667-2.48-0.72-1.0933-1.8933-1.76-1.1733-0.66667-2.8267-0.66667-1.6267 0-2.8267 0.64-1.1733 0.61333-1.92 1.6533-0.74666 1.0133-1.12 2.32-0.34666 1.3067-0.34666 2.6667 0 1.4667 0.34666 2.8 0.37334 1.3067 1.12 2.32 0.74667 0.98667 1.92 1.5733 1.2 0.56 2.8267 0.56 2.6133 0 4.0267-1.28 1.44-1.28 1.9733-3.6267h-1.68q-0.4 1.6-1.44 2.56t-2.88 0.96q-1.2 0-2.0533-0.50667-0.85334-0.50667-1.4133-1.28-0.56-0.77333-0.82666-1.7333-0.24-0.98667-0.24-1.8933z" style="font-feature-settings:normal;font-variant-caps:normal;font-variant-ligatures:normal;font-variant-numeric:normal"/><path d="m352.9 15.476v13.76h1.68v-8.0267q0.0267-1.0133 0.32-1.8667 0.32-0.88 0.85333-1.4933 0.56-0.64 1.3333-0.98667 0.8-0.37333 1.8133-0.37333t1.68 0.32q0.69333 0.32 1.0933 0.88t0.56 1.3333q0.16 0.74667 0.16 1.6267v8.5867h1.68v-8.8533q0-1.2267-0.24-2.2133t-0.82666-1.6533q-0.58667-0.69333-1.5733-1.0667-0.96-0.37333-2.4-0.37333-1.4667 0-2.6933 0.77333-1.2267 0.74667-1.7067 2h-0.0533v-2.3733z" style="font-feature-settings:normal;font-variant-caps:normal;font-variant-ligatures:normal;font-variant-numeric:normal"/><path d="m376.96 19.796h1.68q-0.29334-2.3733-1.84-3.5467-1.52-1.1733-3.7333-1.1733-1.5733 0-2.8 0.58667-1.2 0.58667-2.0267 1.5733-0.82667 0.98667-1.2533 2.32-0.42666 1.3067-0.42666 2.8 0 1.4933 0.42666 2.8267 0.42667 1.3067 1.2533 2.2933 0.82666 0.98667 2.0267 1.5733 1.2267 0.56 2.8 0.56 2.3467 0 3.84-1.3867 1.4933-1.4133 1.84-3.92h-1.68q-0.08 0.85333-0.42666 1.5733-0.34667 0.72-0.88 1.2533-0.53334 0.50667-1.2267 0.8-0.69333 0.29333-1.4667 0.29333-1.2 0-2.1067-0.50667-0.90667-0.50667-1.52-1.3333-0.58667-0.82667-0.90667-1.8667-0.29333-1.0667-0.29333-2.16 0-1.0933 0.29333-2.1333 0.32-1.0667 0.90667-1.8933 0.61333-0.82667 1.52-1.3333 0.90666-0.50667 2.1067-0.50667 1.68 0 2.6133 0.88 0.93333 0.88 1.28 2.4267z" style="font-feature-settings:normal;font-variant-caps:normal;font-variant-ligatures:normal;font-variant-numeric:normal"/><path d="m391 21.396h-8.9067q0.10667-0.93333 0.42667-1.8133 0.34666-0.90667 0.90666-1.5733 0.56-0.69333 1.36-1.0933 0.8-0.42667 1.84-0.42667 1.0133 0 1.8133 0.42667 0.8 0.4 1.36 1.0933 0.56 0.66667 0.85333 1.5467 0.32 0.88 0.34667 1.84zm-8.9067 1.4133h10.587q0.0533-1.44-0.26667-2.8267-0.32-1.4133-1.0667-2.48-0.72-1.0933-1.8933-1.76-1.1733-0.66667-2.8267-0.66667-1.6267 0-2.8267 0.64-1.1733 0.61333-1.92 1.6533-0.74667 1.0133-1.12 2.32-0.34667 1.3067-0.34667 2.6667 0 1.4667 0.34667 2.8 0.37333 1.3067 1.12 2.32 0.74666 0.98667 1.92 1.5733 1.2 0.56 2.8267 0.56 2.6133 0 4.0267-1.28 1.44-1.28 1.9733-3.6267h-1.68q-0.4 1.6-1.44 2.56t-2.88 0.96q-1.2 0-2.0533-0.50667-0.85333-0.50667-1.4133-1.28-0.56-0.77333-0.82667-1.7333-0.24-0.98667-0.24-1.8933z" style="font-feature-settings:normal;font-variant-caps:normal;font-variant-ligatures:normal;font-variant-numeric:normal"/><path d="m405.37 21.769 3.8133-9.76 3.68 9.76zm2.88-11.573-7.6533 19.04h1.92l2.2933-5.92h8.6667l2.32 5.92h1.9467l-7.4667-19.04z" style="font-feature-settings:normal;font-variant-caps:normal;font-variant-ligatures:normal;font-variant-numeric:normal"/><path d="m419.18 15.476v13.76h1.68v-7.3333q0-1.0933 0.37333-2 0.37333-0.93333 1.04-1.6 0.69333-0.66667 1.6267-1.0133 0.93333-0.37333 2.08-0.32v-1.68q-1.8667-0.08-3.2267 0.82667-1.3333 0.90667-1.9733 2.5867h-0.0533v-3.2267z" style="font-feature-settings:normal;font-variant-caps:normal;font-variant-ligatures:normal;font-variant-numeric:normal"/><path d="m436.8 19.796h1.68q-0.29333-2.3733-1.84-3.5467-1.52-1.1733-3.7333-1.1733-1.5733 0-2.8 0.58667-1.2 0.58667-2.0267 1.5733-0.82667 0.98667-1.2533 2.32-0.42667 1.3067-0.42667 2.8 0 1.4933 0.42667 2.8267 0.42666 1.3067 1.2533 2.2933 0.82667 0.98667 2.0267 1.5733 1.2267 0.56 2.8 0.56 2.3467 0 3.84-1.3867 1.4933-1.4133 1.84-3.92h-1.68q-0.08 0.85333-0.42667 1.5733t-0.88 1.2533q-0.53333 0.50667-1.2267 0.8-0.69333 0.29333-1.4667 0.29333-1.2 0-2.1067-0.50667-0.90667-0.50667-1.52-1.3333-0.58667-0.82667-0.90667-1.8667-0.29333-1.0667-0.29333-2.16 0-1.0933 0.29333-2.1333 0.32-1.0667 0.90667-1.8933 0.61333-0.82667 1.52-1.3333 0.90667-0.50667 2.1067-0.50667 1.68 0 2.6133 0.88t1.28 2.4267z" style="font-feature-settings:normal;font-variant-caps:normal;font-variant-ligatures:normal;font-variant-numeric:normal"/><path d="m440.93 10.196v19.04h1.68v-8.0267q0.0267-1.0133 0.32-1.8667 0.32-0.88 0.85333-1.4933 0.56-0.64 1.3333-0.98667 0.8-0.37333 1.8133-0.37333 1.0133 0 1.68 0.32 0.69333 0.32 1.0933 0.88t0.56 1.3333q0.16 0.74667 0.16 1.6267v8.5867h1.68v-8.8533q0-1.2267-0.24-2.2133t-0.82667-1.6533q-0.58666-0.69333-1.5733-1.0667-0.96-0.37333-2.4-0.37333-1.4667 0-2.6933 0.77333-1.2267 0.74667-1.7067 2h-0.0533v-7.6533z" style="font-feature-settings:normal;font-variant-caps:normal;font-variant-ligatures:normal;font-variant-numeric:normal"/><path d="m455.3 10.196v2.6933h1.68v-2.6933zm0 5.28v13.76h1.68v-13.76z" style="font-feature-settings:normal;font-variant-caps:normal;font-variant-ligatures:normal;font-variant-numeric:normal"/><path d="m462.89 15.476v-4.1333h-1.68v4.1333h-2.4v1.4133h2.4v9.4133q-0.0267 1.76 0.64 2.4267 0.66667 0.64 2.3467 0.64 0.37333 0 0.74666-0.02667 0.37334-0.02667 0.74667-0.02667v-1.4133q-0.72 0.08-1.44 0.08-0.90667-0.05333-1.1467-0.50667-0.21333-0.48-0.21333-1.3067v-9.28h2.8v-1.4133z" style="font-feature-settings:normal;font-variant-caps:normal;font-variant-ligatures:normal;font-variant-numeric:normal"/><path d="m478.03 21.396h-8.9067q0.10667-0.93333 0.42667-1.8133 0.34666-0.90667 0.90666-1.5733 0.56-0.69333 1.36-1.0933 0.8-0.42667 1.84-0.42667 1.0133 0 1.8133 0.42667 0.8 0.4 1.36 1.0933 0.56 0.66667 0.85333 1.5467 0.32 0.88 0.34667 1.84zm-8.9067 1.4133h10.587q0.0533-1.44-0.26667-2.8267-0.32-1.4133-1.0667-2.48-0.72-1.0933-1.8933-1.76-1.1733-0.66667-2.8267-0.66667-1.6267 0-2.8267 0.64-1.1733 0.61333-1.92 1.6533-0.74667 1.0133-1.12 2.32-0.34667 1.3067-0.34667 2.6667 0 1.4667 0.34667 2.8 0.37333 1.3067 1.12 2.32 0.74666 0.98667 1.92 1.5733 1.2 0.56 2.8267 0.56 2.6133 0 4.0267-1.28 1.44-1.28 1.9733-3.6267h-1.68q-0.4 1.6-1.44 2.56t-2.88 0.96q-1.2 0-2.0533-0.50667-0.85333-0.50667-1.4133-1.28-0.56-0.77333-0.82667-1.7333-0.24-0.98667-0.24-1.8933z" style="font-feature-settings:normal;font-variant-caps:normal;font-variant-ligatures:normal;font-variant-numeric:normal"/><path d="m491.7 19.796h1.68q-0.29333-2.3733-1.84-3.5467-1.52-1.1733-3.7333-1.1733-1.5733 0-2.8 0.58667-1.2 0.58667-2.0267 1.5733-0.82666 0.98667-1.2533 2.32-0.42667 1.3067-0.42667 2.8 0 1.4933 0.42667 2.8267 0.42667 1.3067 1.2533 2.2933 0.82667 0.98667 2.0267 1.5733 1.2267 0.56 2.8 0.56 2.3467 0 3.84-1.3867 1.4933-1.4133 1.84-3.92h-1.68q-0.08 0.85333-0.42667 1.5733-0.34666 0.72-0.88 1.2533-0.53333 0.50667-1.2267 0.8-0.69334 0.29333-1.4667 0.29333-1.2 0-2.1067-0.50667-0.90666-0.50667-1.52-1.3333-0.58666-0.82667-0.90666-1.8667-0.29334-1.0667-0.29334-2.16 0-1.0933 0.29334-2.1333 0.32-1.0667 0.90666-1.8933 0.61334-0.82667 1.52-1.3333 0.90667-0.50667 2.1067-0.50667 1.68 0 2.6133 0.88 0.93334 0.88 1.28 2.4267z" style="font-feature-settings:normal;font-variant-caps:normal;font-variant-ligatures:normal;font-variant-numeric:normal"/><path d="m498.51 15.476v-4.1333h-1.68v4.1333h-2.4v1.4133h2.4v9.4133q-0.0267 1.76 0.64 2.4267 0.66667 0.64 2.3467 0.64 0.37333 0 0.74666-0.02667 0.37334-0.02667 0.74667-0.02667v-1.4133q-0.72 0.08-1.44 0.08-0.90667-0.05333-1.1467-0.50667-0.21333-0.48-0.21333-1.3067v-9.28h2.8v-1.4133z" style="font-feature-settings:normal;font-variant-caps:normal;font-variant-ligatures:normal;font-variant-numeric:normal"/><path d="m514.91 29.236v-13.76h-1.68v7.2267q0 1.04-0.24 2.0533-0.24 0.98667-0.74667 1.76-0.50666 0.77333-1.28 1.2533-0.77333 0.45333-1.8667 0.45333-2 0-2.8267-0.96-0.8-0.96-0.85333-2.8267v-8.96h-1.68v8.9333q0 1.2267 0.26666 2.1867 0.26667 0.96 0.82667 1.6267 0.58667 0.66667 1.4933 1.0133 0.93334 0.37333 2.24 0.37333 1.5467 0 2.8-0.72 1.28-0.74667 1.9467-2.1333h0.0533v2.48z" style="font-feature-settings:normal;font-variant-caps:normal;font-variant-ligatures:normal;font-variant-numeric:normal"/><path d="m518.09 15.476v13.76h1.68v-7.3333q0-1.0933 0.37333-2 0.37334-0.93333 1.04-1.6 0.69334-0.66667 1.6267-1.0133 0.93333-0.37333 2.08-0.32v-1.68q-1.8667-0.08-3.2267 0.82667-1.3333 0.90667-1.9733 2.5867h-0.0533v-3.2267z" style="font-feature-settings:normal;font-variant-caps:normal;font-variant-ligatures:normal;font-variant-numeric:normal"/><path d="m535.9 21.396h-8.9067q0.10667-0.93333 0.42667-1.8133 0.34666-0.90667 0.90666-1.5733 0.56-0.69333 1.36-1.0933 0.8-0.42667 1.84-0.42667 1.0133 0 1.8133 0.42667 0.8 0.4 1.36 1.0933 0.56 0.66667 0.85333 1.5467 0.32 0.88 0.34667 1.84zm-8.9067 1.4133h10.587q0.0533-1.44-0.26667-2.8267-0.32-1.4133-1.0667-2.48-0.72-1.0933-1.8933-1.76-1.1733-0.66667-2.8267-0.66667-1.6267 0-2.8267 0.64-1.1733 0.61333-1.92 1.6533-0.74667 1.0133-1.12 2.32-0.34667 1.3067-0.34667 2.6667 0 1.4667 0.34667 2.8 0.37333 1.3067 1.12 2.32 0.74666 0.98667 1.92 1.5733 1.2 0.56 2.8267 0.56 2.6133 0 4.0267-1.28 1.44-1.28 1.9733-3.6267h-1.68q-0.4 1.6-1.44 2.56t-2.88 0.96q-1.2 0-2.0533-0.50667-0.85333-0.50667-1.4133-1.28-0.56-0.77333-0.82667-1.7333-0.24-0.98667-0.24-1.8933z" style="font-feature-settings:normal;font-variant-caps:normal;font-variant-ligatures:normal;font-variant-numeric:normal"/></g><text x="467.98148" y="63.175926" fill="#66cc00" font-family="sans-serif" font-size="74.407px" letter-spacing="0px" stroke-width="1.8602" word-spacing="0px" style="line-height:1.25" xml:space="preserve"><tspan x="467.98148" y="63.175926" fill="#66cc00" font-family="HelveticaNeue" stroke-width="1.8602">|</tspan></text></svg>
