<?xml version="1.0" encoding="UTF-8" standalone="no"?>
<!-- Generator: Adobe Illustrator 16.0.0, SVG Export Plug-In . SVG Version: 6.00 Build 0)  -->

<svg
   xmlns:dc="http://purl.org/dc/elements/1.1/"
   xmlns:cc="http://creativecommons.org/ns#"
   xmlns:rdf="http://www.w3.org/1999/02/22-rdf-syntax-ns#"
   xmlns:svg="http://www.w3.org/2000/svg"
   xmlns="http://www.w3.org/2000/svg"
   xmlns:sodipodi="http://sodipodi.sourceforge.net/DTD/sodipodi-0.dtd"
   xmlns:inkscape="http://www.inkscape.org/namespaces/inkscape"
   version="1.1"
   id="Layer_1"
   sodipodi:docname="logo-source.svg"
   inkscape:version="0.92.3 (2405546, 2018-03-11)"
   x="0px"
   y="0px"
   width="1000"
   height="83.716736"
   viewBox="0 0 1000.0001 83.71674"
   enable-background="new 0 0 273.274 74.559"
   xml:space="preserve"><metadata
   id="metadata3814"><rdf:RDF><cc:Work
       rdf:about=""><dc:format>image/svg+xml</dc:format><dc:type
         rdf:resource="http://purl.org/dc/dcmitype/StillImage" /><dc:title></dc:title></cc:Work></rdf:RDF></metadata><defs
   id="defs3812" />
<sodipodi:namedview
   id="namedview294"
   objecttolerance="10"
   fit-margin-top="0"
   borderopacity="1"
   inkscape:cy="16.715609"
   showgrid="false"
   bordercolor="#666666"
   inkscape:cx="260.36383"
   pagecolor="#ffffff"
   inkscape:zoom="2.4350534"
   guidetolerance="10"
   fit-margin-left="0"
   gridtolerance="10"
   inkscape:current-layer="Layer_1"
   inkscape:window-y="0"
   inkscape:window-x="0"
   fit-margin-bottom="0"
   fit-margin-right="0"
   inkscape:window-height="1412"
   inkscape:window-width="2560"
   inkscape:pageshadow="2"
   inkscape:pageopacity="0"
   inkscape:window-maximized="1"
   inkscape:measure-start="0,0"
   inkscape:measure-end="0,0">
	</sodipodi:namedview>
<polyline
   id="polyline236"
   points="140.39,12.462 140.39,7.616 123.104,7.616 123.104,32.549 140.39,32.549   140.39,27.492 130.103,27.492 130.103,21.965 138.66,21.965 138.66,17.125 130.103,17.125 130.103,12.462 140.39,12.462 "
   style="fill:#49166d"
   transform="matrix(1.8601708,0,0,1.8601708,0,-2.513343e-4)" />
<polyline
   id="polyline238"
   points="170.875,27.629 160.075,27.629 160.075,7.616 152.99,7.616 152.99,32.549   170.875,32.549 170.875,27.629 "
   style="fill:#49166d"
   transform="matrix(1.8601708,0,0,1.8601708,0,-2.513343e-4)" />
<path
   id="path240"
   inkscape:connector-curvature="0"
   d="m 424.00362,31.842153 c -8.89162,-2.003404 -12.00368,-2.235926 -12.00368,-5.77397 0,-3.283202 4.40674,-4.304435 6.94029,-4.304435 4.09982,0 8.9437,0.956127 13.87688,3.48596 l 3.58641,-8.534464 c -5.05781,-2.756773 -11.54236,-3.904499 -17.7851,-3.904499 -12.2641,0 -20.49164,4.975957 -20.83949,14.676748 -0.35157,8.846972 6.84543,12.156216 13.45462,13.521582 6.37294,1.317001 12.83703,2.444264 12.96911,6.229712 0.11719,3.491541 -3.02278,4.987118 -8.94929,4.987118 -5.48564,0 -10.58809,-1.763442 -15.80029,-3.947283 l -3.0451,9.276672 c 5.99161,2.548435 12.07623,3.952863 18.34501,3.952863 8.71118,0 15.06924,-1.359784 19.75129,-5.753508 3.24414,-3.017197 4.30444,-6.659411 4.30444,-10.136071 0.007,-7.330933 -4.55928,-11.460513 -14.8051,-13.776425"
   style="fill:#49166d;stroke-width:1.86017084" />
<polyline
   id="polyline242"
   points="113.053,12.538 113.053,7.616 91.309,7.616 91.309,12.538 98.655,12.538   98.655,32.549 105.698,32.549 105.698,12.538 113.053,12.538 "
   style="fill:#49166d"
   transform="matrix(1.8601708,0,0,1.8601708,0,-2.513343e-4)" />
<path
   id="path244"
   inkscape:connector-curvature="0"
   d="m 362.82074,14.16681 v 29.466966 c 0,2.308472 0,2.94651 -0.13579,3.844973 -0.42598,2.808858 -3.14555,4.438368 -7.48719,4.496033 -3.21624,-0.05208 -5.56935,-1.002632 -6.66499,-2.682366 -0.55061,-0.86312 -0.82034,-2.414502 -0.82034,-4.89225 V 14.16681 H 334.0439 v 31.963315 c 0,4.429067 0.58967,6.428751 2.59307,8.956723 3.29809,4.123999 9.73056,6.292958 18.58683,6.292958 0.0986,0 0.18602,0 0.29205,0 0.0446,0 0.12463,0 0.1916,0 11.86231,0 17.98413,-4.624385 19.75501,-8.951142 0.88544,-2.098273 0.95055,-3.091604 0.95055,-7.325353 V 14.16681 h -13.59227"
   style="fill:#49166d;stroke-width:1.86017084" />
<path
   id="path246"
   inkscape:connector-curvature="0"
   d="M 176.02425,1.4674237 99.372186,16.728265 v 5.346131 l 0.243682,-0.06325 C 150.25344,9.7023957 176.02238,2.2989157 176.23072,2.2468307 c 0.28647,-0.07441 0.38692,-0.297627 0.34786,-0.485504 -0.0428,-0.197178 -0.24927,-0.360873 -0.55433,-0.293907"
   style="fill:#49166d;stroke-width:1.86017084" />
<path
   id="path248"
   inkscape:connector-curvature="0"
   d="m 111.08196,4.7785277 v -0.0074 0.0074 m 2.62098,-4.76947804 C 109.97702,0.22110866 103.07765,5.7402357 99.290338,9.0178567 84.209933,22.065095 72.996824,34.057616 64.843695,46.61749 47.847314,55.721166 26.174464,65.083406 4.6597279,72.390157 L 4.1407403,72.565013 0,83.716737 2.3642771,82.801533 C 16.051414,77.585614 38.896172,67.789954 59.605454,56.900514 c -1.166327,3.110206 -1.754141,5.969289 -1.754141,8.577248 0,1.942018 0.32553,3.750104 0.974729,5.394495 1.30212,3.281342 3.869156,5.76653 7.427662,7.18026 5.299627,2.113154 12.530111,2.152217 20.779969,-0.344132 C 108.10941,71.318698 133.10824,51.705057 138.5511,47.804279 l 0.20834,-0.146954 c 0.21392,-0.154394 0.2288,-0.386915 0.13952,-0.54503 -0.11906,-0.180436 -0.37018,-0.228801 -0.57666,-0.102309 h -0.002 0.002 l -0.26786,0.161835 C 132.2135,50.678243 103.83102,67.52953 85.381841,72.475725 75.984258,74.996256 68.8226,73.62159 66.121632,69.841723 c -0.937526,-1.290959 -1.389547,-2.924189 -1.389547,-4.829004 0,-3.718481 1.75042,-8.452616 5.12105,-13.715039 3.102765,-1.765302 6.000911,-3.491541 8.612591,-5.132212 17.999013,-10.115609 38.736194,-29.783195 39.621634,-41.7887373 0.004,-0.08185 0.004,-0.176716 0.004,-0.266005 0,-1.036115 -0.4483,-2.101993 -1.23515,-2.888845 -0.84452,-0.86125904 -1.9569,-1.29095804 -3.15299,-1.21283104 z m -2.00712,5.72188504 c 1.18121,-0.76453 1.52162,-0.286466 1.17377,0.576653 -0.56178,1.378387 -3.16043,9.6710283 -22.455987,25.5122433 -5.035482,4.123998 -8.616311,6.439911 -15.867257,10.733185 C 86.419816,25.913789 103.75475,10.887329 111.69582,5.7309347 Z"
   style="fill:#66cc00;stroke-width:1.86017084" />
<polyline
   id="polyline250"
   points="53.286,9.02 9.932,18.339 8.26,22.848 53.421,11.866 54.818,11.077 54.779,9.025   53.286,9.02 "
   style="fill:#49166d"
   transform="matrix(1.8601708,0,0,1.8601708,0,-2.513343e-4)" />




















<text
   xml:space="preserve"
   style="font-style:normal;font-weight:normal;font-size:74.40682983px;line-height:1.25;font-family:sans-serif;letter-spacing:0px;word-spacing:0px;fill:#49166d;fill-opacity:1;stroke:none;stroke-width:1.86017084"
   x="515.47644"
   y="54.383518"
   id="text3818"><tspan
     sodipodi:role="line"
     id="tspan3816"
     x="515.47644"
     y="54.383518"
     style="font-style:normal;font-variant:normal;font-weight:300;font-stretch:normal;font-size:49.60455322px;font-family:HelveticaNeue;-inkscape-font-specification:'HelveticaNeue Light';font-variant-ligatures:normal;font-variant-caps:normal;font-variant-numeric:normal;font-feature-settings:normal;text-align:start;writing-mode:lr-tb;text-anchor:start;fill:#49166d;fill-opacity:1;stroke-width:1.86017084">Reference Architecture</tspan></text>


<text
   xml:space="preserve"
   style="font-style:normal;font-weight:normal;font-size:74.40682983px;line-height:1.25;font-family:sans-serif;letter-spacing:0px;word-spacing:0px;fill:#66cc00;fill-opacity:1;stroke:none;stroke-width:1.86017084"
   x="467.98148"
   y="63.175926"
   id="text825"><tspan
     sodipodi:role="line"
     id="tspan823"
     x="467.98148"
     y="63.175926"
     style="font-style:normal;font-variant:normal;font-weight:normal;font-stretch:normal;font-family:HelveticaNeue;-inkscape-font-specification:HelveticaNeue;fill:#66cc00;fill-opacity:1;stroke-width:1.86017084">|</tspan></text>

</svg>