<svg id="mermaid-1536127996596" width="100%" xmlns="http://www.w3.org/2000/svg" height="100%" style="max-width:2050px;" viewBox="-50 -10 2050 1506"><style>#mermaid-1536127996596 .label{font-family:trebuchet ms,verdana,arial;color:#333}#mermaid-1536127996596 .node circle,#mermaid-1536127996596 .node ellipse,#mermaid-1536127996596 .node polygon,#mermaid-1536127996596 .node rect{fill:#eee;stroke:#999;stroke-width:1px}#mermaid-1536127996596 .node.clickable{cursor:pointer}#mermaid-1536127996596 .arrowheadPath{fill:#333}#mermaid-1536127996596 .edgePath .path{stroke:#666;stroke-width:1.5px}#mermaid-1536127996596 .edgeLabel{background-color:#fff}#mermaid-1536127996596 .cluster rect{fill:#eaf2fb!important;stroke:#26a!important;stroke-width:1px!important}#mermaid-1536127996596 .cluster text{fill:#333}#mermaid-1536127996596 div.mermaidTooltip{position:absolute;text-align:center;max-width:200px;padding:2px;font-family:trebuchet ms,verdana,arial;font-size:12px;background:#eaf2fb;border:1px solid #26a;border-radius:2px;pointer-events:none;z-index:100}#mermaid-1536127996596 .actor{stroke:#999;fill:#eee}#mermaid-1536127996596 text.actor{fill:#333;stroke:none}#mermaid-1536127996596 .actor-line{stroke:#666}#mermaid-1536127996596 .messageLine0{marker-end:"url(#arrowhead)"}#mermaid-1536127996596 .messageLine0,#mermaid-1536127996596 .messageLine1{stroke-width:1.5;stroke-dasharray:"2 2";stroke:#333}#mermaid-1536127996596 #arrowhead{fill:#333}#mermaid-1536127996596 #crosshead path{fill:#333!important;stroke:#333!important}#mermaid-1536127996596 .messageText{fill:#333;stroke:none}#mermaid-1536127996596 .labelBox{stroke:#999;fill:#eee}#mermaid-1536127996596 .labelText,#mermaid-1536127996596 .loopText{fill:#fff;stroke:none}#mermaid-1536127996596 .loopLine{stroke-width:2;stroke-dasharray:"2 2";marker-end:"url(#arrowhead)";stroke:#999}#mermaid-1536127996596 .note{stroke:#770;fill:#ffa}#mermaid-1536127996596 .noteText{fill:#000;stroke:none;font-family:trebuchet ms,verdana,arial;font-size:14px}#mermaid-1536127996596 .section{stroke:none;opacity:.2}#mermaid-1536127996596 .section0,#mermaid-1536127996596 .section2{fill:#80b3e6}#mermaid-1536127996596 .section1,#mermaid-1536127996596 .section3{fill:#fff;opacity:.2}#mermaid-1536127996596 .sectionTitle0,#mermaid-1536127996596 .sectionTitle1,#mermaid-1536127996596 .sectionTitle2,#mermaid-1536127996596 .sectionTitle3{fill:#333}#mermaid-1536127996596 .sectionTitle{text-anchor:start;font-size:11px;text-height:14px}#mermaid-1536127996596 .grid .tick{stroke:#e6e6e6;opacity:.3;shape-rendering:crispEdges}#mermaid-1536127996596 .grid path{stroke-width:0}#mermaid-1536127996596 .today{fill:none;stroke:#d42;stroke-width:2px}#mermaid-1536127996596 .task{stroke-width:2}#mermaid-1536127996596 .taskText{text-anchor:middle;font-size:11px}#mermaid-1536127996596 .taskTextOutsideRight{fill:#333;text-anchor:start;font-size:11px}#mermaid-1536127996596 .taskTextOutsideLeft{fill:#333;text-anchor:end;font-size:11px}#mermaid-1536127996596 .taskText0,#mermaid-1536127996596 .taskText1,#mermaid-1536127996596 .taskText2,#mermaid-1536127996596 .taskText3{fill:#fff}#mermaid-1536127996596 .task0,#mermaid-1536127996596 .task1,#mermaid-1536127996596 .task2,#mermaid-1536127996596 .task3{fill:#26a;stroke:#1a4d80}#mermaid-1536127996596 .taskTextOutside0,#mermaid-1536127996596 .taskTextOutside1,#mermaid-1536127996596 .taskTextOutside2,#mermaid-1536127996596 .taskTextOutside3{fill:#333}#mermaid-1536127996596 .active0,#mermaid-1536127996596 .active1,#mermaid-1536127996596 .active2,#mermaid-1536127996596 .active3{fill:#eee;stroke:#1a4d80}#mermaid-1536127996596 .activeText0,#mermaid-1536127996596 .activeText1,#mermaid-1536127996596 .activeText2,#mermaid-1536127996596 .activeText3{fill:#333!important}#mermaid-1536127996596 .done0,#mermaid-1536127996596 .done1,#mermaid-1536127996596 .done2,#mermaid-1536127996596 .done3{stroke:#666;fill:#bbb;stroke-width:2}#mermaid-1536127996596 .doneText0,#mermaid-1536127996596 .doneText1,#mermaid-1536127996596 .doneText2,#mermaid-1536127996596 .doneText3{fill:#333!important}#mermaid-1536127996596 .crit0,#mermaid-1536127996596 .crit1,#mermaid-1536127996596 .crit2,#mermaid-1536127996596 .crit3{stroke:#b1361b;fill:#d42;stroke-width:2}#mermaid-1536127996596 .activeCrit0,#mermaid-1536127996596 .activeCrit1,#mermaid-1536127996596 .activeCrit2,#mermaid-1536127996596 .activeCrit3{stroke:#b1361b;fill:#eee;stroke-width:2}#mermaid-1536127996596 .doneCrit0,#mermaid-1536127996596 .doneCrit1,#mermaid-1536127996596 .doneCrit2,#mermaid-1536127996596 .doneCrit3{stroke:#b1361b;fill:#bbb;stroke-width:2;cursor:pointer;shape-rendering:crispEdges}#mermaid-1536127996596 .activeCritText0,#mermaid-1536127996596 .activeCritText1,#mermaid-1536127996596 .activeCritText2,#mermaid-1536127996596 .activeCritText3,#mermaid-1536127996596 .doneCritText0,#mermaid-1536127996596 .doneCritText1,#mermaid-1536127996596 .doneCritText2,#mermaid-1536127996596 .doneCritText3{fill:#333!important}#mermaid-1536127996596 .titleText{text-anchor:middle;font-size:18px;fill:#333}#mermaid-1536127996596 g.classGroup text{fill:#999;stroke:none;font-family:trebuchet ms,verdana,arial;font-size:10px}#mermaid-1536127996596 g.classGroup rect{fill:#eee;stroke:#999}#mermaid-1536127996596 g.classGroup line{stroke:#999;stroke-width:1}#mermaid-1536127996596 .classLabel .box{stroke:none;stroke-width:0;fill:#eee;opacity:.5}#mermaid-1536127996596 .classLabel .label{fill:#999;font-size:10px}#mermaid-1536127996596 .relation{stroke:#999;stroke-width:1;fill:none}#mermaid-1536127996596 #compositionEnd,#mermaid-1536127996596 #compositionStart{fill:#999;stroke:#999;stroke-width:1}#mermaid-1536127996596 #aggregationEnd,#mermaid-1536127996596 #aggregationStart{fill:#eee;stroke:#999;stroke-width:1}#mermaid-1536127996596 #dependencyEnd,#mermaid-1536127996596 #dependencyStart,#mermaid-1536127996596 #extensionEnd,#mermaid-1536127996596 #extensionStart{fill:#999;stroke:#999;stroke-width:1}#mermaid-1536127996596 .branch-label,#mermaid-1536127996596 .commit-id,#mermaid-1536127996596 .commit-msg{fill:#d3d3d3;color:#d3d3d3}</style><style>#mermaid-1536127996596 {
    color: rgb(0, 0, 0);
    font: normal normal 400 normal 16px / normal "Times New Roman";
  }</style><g></g><g><line id="actor0" x1="75" y1="5" x2="75" y2="1495" class="actor-line" stroke-width="0.5px" stroke="#999"></line><rect x="0" y="0" fill="#eaeaea" stroke="#666" width="150" height="65" rx="3" ry="3" class="actor"></rect><text x="75" y="32.5" dominant-baseline="central" alignment-baseline="central" class="actor" style="text-anchor: middle;"><tspan x="75" dy="0">IDEA</tspan></text></g><g><line id="actor1" x1="275" y1="5" x2="275" y2="1495" class="actor-line" stroke-width="0.5px" stroke="#999"></line><rect x="200" y="0" fill="#eaeaea" stroke="#666" width="150" height="65" rx="3" ry="3" class="actor"></rect><text x="275" y="32.5" dominant-baseline="central" alignment-baseline="central" class="actor" style="text-anchor: middle;"><tspan x="275" dy="0">Technology Forum</tspan></text></g><g><line id="actor2" x1="475" y1="5" x2="475" y2="1495" class="actor-line" stroke-width="0.5px" stroke="#999"></line><rect x="400" y="0" fill="#eaeaea" stroke="#666" width="150" height="65" rx="3" ry="3" class="actor"></rect><text x="475" y="32.5" dominant-baseline="central" alignment-baseline="central" class="actor" style="text-anchor: middle;"><tspan x="475" dy="0">CONCEPT</tspan></text></g><g><line id="actor3" x1="675" y1="5" x2="675" y2="1495" class="actor-line" stroke-width="0.5px" stroke="#999"></line><rect x="600" y="0" fill="#eaeaea" stroke="#666" width="150" height="65" rx="3" ry="3" class="actor"></rect><text x="675" y="32.5" dominant-baseline="central" alignment-baseline="central" class="actor" style="text-anchor: middle;"><tspan x="675" dy="0">DISCOVERY</tspan></text></g><g><line id="actor4" x1="875" y1="5" x2="875" y2="1495" class="actor-line" stroke-width="0.5px" stroke="#999"></line><rect x="800" y="0" fill="#eaeaea" stroke="#666" width="150" height="65" rx="3" ry="3" class="actor"></rect><text x="875" y="32.5" dominant-baseline="central" alignment-baseline="central" class="actor" style="text-anchor: middle;"><tspan x="875" dy="0">PROTOTYPE</tspan></text></g><g><line id="actor5" x1="1075" y1="5" x2="1075" y2="1495" class="actor-line" stroke-width="0.5px" stroke="#999"></line><rect x="1000" y="0" fill="#eaeaea" stroke="#666" width="150" height="65" rx="3" ry="3" class="actor"></rect><text x="1075" y="32.5" dominant-baseline="central" alignment-baseline="central" class="actor" style="text-anchor: middle;"><tspan x="1075" dy="0">Architecture Review</tspan></text></g><g><line id="actor6" x1="1275" y1="5" x2="1275" y2="1495" class="actor-line" stroke-width="0.5px" stroke="#999"></line><rect x="1200" y="0" fill="#eaeaea" stroke="#666" width="150" height="65" rx="3" ry="3" class="actor"></rect><text x="1275" y="32.5" dominant-baseline="central" alignment-baseline="central" class="actor" style="text-anchor: middle;"><tspan x="1275" dy="0">POC</tspan></text></g><g><line id="actor7" x1="1475" y1="5" x2="1475" y2="1495" class="actor-line" stroke-width="0.5px" stroke="#999"></line><rect x="1400" y="0" fill="#eaeaea" stroke="#666" width="150" height="65" rx="3" ry="3" class="actor"></rect><text x="1475" y="32.5" dominant-baseline="central" alignment-baseline="central" class="actor" style="text-anchor: middle;"><tspan x="1475" dy="0">TDLT</tspan></text></g><g><line id="actor8" x1="1675" y1="5" x2="1675" y2="1495" class="actor-line" stroke-width="0.5px" stroke="#999"></line><rect x="1600" y="0" fill="#eaeaea" stroke="#666" width="150" height="65" rx="3" ry="3" class="actor"></rect><text x="1675" y="32.5" dominant-baseline="central" alignment-baseline="central" class="actor" style="text-anchor: middle;"><tspan x="1675" dy="0">SCALE</tspan></text></g><g><line id="actor9" x1="1875" y1="5" x2="1875" y2="1495" class="actor-line" stroke-width="0.5px" stroke="#999"></line><rect x="1800" y="0" fill="#eaeaea" stroke="#666" width="150" height="65" rx="3" ry="3" class="actor"></rect><text x="1875" y="32.5" dominant-baseline="central" alignment-baseline="central" class="actor" style="text-anchor: middle;"><tspan x="1875" dy="0">MAINTAIN</tspan></text></g><defs><marker id="arrowhead" refX="5" refY="2" markerWidth="6" markerHeight="4" orient="auto"><path d="M 0,0 V 4 L6,2 Z"></path></marker></defs><defs><marker id="crosshead" markerWidth="15" markerHeight="8" orient="auto" refX="16" refY="4"><path fill="black" stroke="#000000" stroke-width="1px" d="M 9,2 V 6 L16,4 Z" style="stroke-dasharray: 0, 0;"></path><path fill="none" stroke="#000000" stroke-width="1px" d="M 0,1 L 6,7 M 6,1 L 0,7" style="stroke-dasharray: 0, 0;"></path></marker></defs><g><text x="175" y="93" class="messageText" style="text-anchor: middle;">initialize new topic</text><line x1="75" y1="100" x2="275" y2="100" class="messageLine0" stroke-width="2" stroke="black" marker-end="url(#arrowhead)" style="fill: none;"></line></g><g><text x="175" y="153" class="messageText" style="text-anchor: middle;">not aligned</text><line x1="275" y1="160" x2="75" y2="160" class="messageLine0" stroke-width="2" stroke="black" marker-end="url(#arrowhead)" style="fill: none;"></line></g><g><text x="375" y="208" class="messageText" style="text-anchor: middle;">proceed</text><line x1="275" y1="215" x2="475" y2="215" class="messageLine0" stroke-width="2" stroke="black" marker-end="url(#arrowhead)" style="fill: none;"></line></g><g><line x1="65" y1="110" x2="485" y2="110" class="loopLine"></line><line x1="485" y1="110" x2="485" y2="225" class="loopLine"></line><line x1="65" y1="225" x2="485" y2="225" class="loopLine"></line><line x1="65" y1="110" x2="65" y2="225" class="loopLine"></line><line x1="65" y1="170" x2="485" y2="170" class="loopLine" style="stroke-dasharray: 3, 3;"></line><polygon points="65,110 115,110 115,123 106.6,130 65,130" class="labelBox"></polygon><text x="72.5" y="125" fill="black" class="labelText"><tspan x="72.5" fill="black">alt</tspan></text><text x="275" y="125" fill="black" class="loopText" style="text-anchor: middle;"><tspan x="275" fill="black">[ ✖ ]</tspan></text><text x="275" y="185" fill="black" class="loopText" style="text-anchor: middle;"><tspan x="275" fill="black">[ ✔ ]</tspan></text></g><g><text x="475" y="253" class="messageText" style="text-anchor: middle;">develop concept</text><path d="M 475,260 C 535,250 535,290 475,280" class="messageLine0" stroke-width="2" stroke="black" marker-end="url(#arrowhead)" style="fill: none;"></path></g><g><text x="375" y="318" class="messageText" style="text-anchor: middle;">present concept details</text><line x1="475" y1="325" x2="275" y2="325" class="messageLine0" stroke-width="2" stroke="black" marker-end="url(#arrowhead)" style="fill: none;"></line></g><g><text x="175" y="378" class="messageText" style="text-anchor: middle;">not aligned</text><line x1="275" y1="385" x2="75" y2="385" class="messageLine0" stroke-width="2" stroke="black" marker-end="url(#arrowhead)" style="fill: none;"></line></g><g><text x="375" y="433" class="messageText" style="text-anchor: middle;">more data needed</text><line x1="275" y1="440" x2="475" y2="440" class="messageLine0" stroke-width="2" stroke="black" marker-end="url(#arrowhead)" style="fill: none;"></line></g><g><text x="475" y="488" class="messageText" style="text-anchor: middle;">proceed</text><line x1="275" y1="495" x2="675" y2="495" class="messageLine0" stroke-width="2" stroke="black" marker-end="url(#arrowhead)" style="fill: none;"></line></g><g><line x1="65" y1="335" x2="685" y2="335" class="loopLine"></line><line x1="685" y1="335" x2="685" y2="505" class="loopLine"></line><line x1="65" y1="505" x2="685" y2="505" class="loopLine"></line><line x1="65" y1="335" x2="65" y2="505" class="loopLine"></line><line x1="65" y1="395" x2="685" y2="395" class="loopLine" style="stroke-dasharray: 3, 3;"></line><line x1="65" y1="450" x2="685" y2="450" class="loopLine" style="stroke-dasharray: 3, 3;"></line><polygon points="65,335 115,335 115,348 106.6,355 65,355" class="labelBox"></polygon><text x="72.5" y="350" fill="black" class="labelText"><tspan x="72.5" fill="black">alt</tspan></text><text x="375" y="350" fill="black" class="loopText" style="text-anchor: middle;"><tspan x="375" fill="black">[ ✖ ]</tspan></text><text x="375" y="410" fill="black" class="loopText" style="text-anchor: middle;"><tspan x="375" fill="black">[ ‼️ ]</tspan></text><text x="375" y="465" fill="black" class="loopText" style="text-anchor: middle;"><tspan x="375" fill="black">[ ✔ ]</tspan></text></g><g><text x="675" y="533" class="messageText" style="text-anchor: middle;">research &amp; analysis</text><path d="M 675,540 C 735,530 735,570 675,560" class="messageLine0" stroke-width="2" stroke="black" marker-end="url(#arrowhead)" style="fill: none;"></path></g><g><text x="475" y="598" class="messageText" style="text-anchor: middle;">present research results</text><line x1="675" y1="605" x2="275" y2="605" class="messageLine0" stroke-width="2" stroke="black" marker-end="url(#arrowhead)" style="fill: none;"></line></g><g><text x="175" y="658" class="messageText" style="text-anchor: middle;">research shows no value</text><line x1="275" y1="665" x2="75" y2="665" class="messageLine0" stroke-width="2" stroke="black" marker-end="url(#arrowhead)" style="fill: none;"></line></g><g><text x="475" y="713" class="messageText" style="text-anchor: middle;">more data needed</text><line x1="275" y1="720" x2="675" y2="720" class="messageLine0" stroke-width="2" stroke="black" marker-end="url(#arrowhead)" style="fill: none;"></line></g><g><text x="575" y="768" class="messageText" style="text-anchor: middle;">proceed</text><line x1="275" y1="775" x2="875" y2="775" class="messageLine0" stroke-width="2" stroke="black" marker-end="url(#arrowhead)" style="fill: none;"></line></g><g><line x1="65" y1="615" x2="885" y2="615" class="loopLine"></line><line x1="885" y1="615" x2="885" y2="785" class="loopLine"></line><line x1="65" y1="785" x2="885" y2="785" class="loopLine"></line><line x1="65" y1="615" x2="65" y2="785" class="loopLine"></line><line x1="65" y1="675" x2="885" y2="675" class="loopLine" style="stroke-dasharray: 3, 3;"></line><line x1="65" y1="730" x2="885" y2="730" class="loopLine" style="stroke-dasharray: 3, 3;"></line><polygon points="65,615 115,615 115,628 106.6,635 65,635" class="labelBox"></polygon><text x="72.5" y="630" fill="black" class="labelText"><tspan x="72.5" fill="black">alt</tspan></text><text x="475" y="630" fill="black" class="loopText" style="text-anchor: middle;"><tspan x="475" fill="black">[ ✖ ]</tspan></text><text x="475" y="690" fill="black" class="loopText" style="text-anchor: middle;"><tspan x="475" fill="black">[ ‼️ ]</tspan></text><text x="475" y="745" fill="black" class="loopText" style="text-anchor: middle;"><tspan x="475" fill="black">[ ✔ ]</tspan></text></g><g><text x="875" y="813" class="messageText" style="text-anchor: middle;">Develop Prototype</text><path d="M 875,820 C 935,810 935,850 875,840" class="messageLine0" stroke-width="2" stroke="black" marker-end="url(#arrowhead)" style="fill: none;"></path></g><g><text x="875" y="903" class="messageText" style="text-anchor: middle;">not aligned</text><line x1="1075" y1="910" x2="675" y2="910" class="messageLine0" stroke-width="2" stroke="black" marker-end="url(#arrowhead)" style="fill: none;"></line></g><g><text x="975" y="958" class="messageText" style="text-anchor: middle;">more data needed</text><line x1="1075" y1="965" x2="875" y2="965" class="messageLine0" stroke-width="2" stroke="black" marker-end="url(#arrowhead)" style="fill: none;"></line></g><g><text x="1175" y="1013" class="messageText" style="text-anchor: middle;">proceed</text><line x1="1075" y1="1020" x2="1275" y2="1020" class="messageLine0" stroke-width="2" stroke="black" marker-end="url(#arrowhead)" style="fill: none;"></line></g><g><line x1="665" y1="860" x2="1285" y2="860" class="loopLine"></line><line x1="1285" y1="860" x2="1285" y2="1030" class="loopLine"></line><line x1="665" y1="1030" x2="1285" y2="1030" class="loopLine"></line><line x1="665" y1="860" x2="665" y2="1030" class="loopLine"></line><line x1="665" y1="920" x2="1285" y2="920" class="loopLine" style="stroke-dasharray: 3, 3;"></line><line x1="665" y1="975" x2="1285" y2="975" class="loopLine" style="stroke-dasharray: 3, 3;"></line><polygon points="665,860 715,860 715,873 706.6,880 665,880" class="labelBox"></polygon><text x="672.5" y="875" fill="black" class="labelText"><tspan x="672.5" fill="black">alt</tspan></text><text x="975" y="875" fill="black" class="loopText" style="text-anchor: middle;"><tspan x="975" fill="black">[ ✖ ]</tspan></text><text x="975" y="935" fill="black" class="loopText" style="text-anchor: middle;"><tspan x="975" fill="black">[ ‼️ ]</tspan></text><text x="975" y="990" fill="black" class="loopText" style="text-anchor: middle;"><tspan x="975" fill="black">[ ✔ ]</tspan></text></g><g><text x="1275" y="1058" class="messageText" style="text-anchor: middle;">develop POC</text><path d="M 1275,1065 C 1335,1055 1335,1095 1275,1085" class="messageLine0" stroke-width="2" stroke="black" marker-end="url(#arrowhead)" style="fill: none;"></path></g><g><text x="1375" y="1148" class="messageText" style="text-anchor: middle;">not aligned</text><line x1="1475" y1="1155" x2="1275" y2="1155" class="messageLine0" stroke-width="2" stroke="black" marker-end="url(#arrowhead)" style="fill: none;"></line></g><g><text x="1375" y="1203" class="messageText" style="text-anchor: middle;">more data needed</text><line x1="1475" y1="1210" x2="1275" y2="1210" class="messageLine0" stroke-width="2" stroke="black" marker-end="url(#arrowhead)" style="fill: none;"></line></g><g><text x="1575" y="1258" class="messageText" style="text-anchor: middle;">proceed</text><line x1="1475" y1="1265" x2="1675" y2="1265" class="messageLine0" stroke-width="2" stroke="black" marker-end="url(#arrowhead)" style="fill: none;"></line></g><g><line x1="1265" y1="1105" x2="1685" y2="1105" class="loopLine"></line><line x1="1685" y1="1105" x2="1685" y2="1275" class="loopLine"></line><line x1="1265" y1="1275" x2="1685" y2="1275" class="loopLine"></line><line x1="1265" y1="1105" x2="1265" y2="1275" class="loopLine"></line><line x1="1265" y1="1165" x2="1685" y2="1165" class="loopLine" style="stroke-dasharray: 3, 3;"></line><line x1="1265" y1="1220" x2="1685" y2="1220" class="loopLine" style="stroke-dasharray: 3, 3;"></line><polygon points="1265,1105 1315,1105 1315,1118 1306.6,1125 1265,1125" class="labelBox"></polygon><text x="1272.5" y="1120" fill="black" class="labelText"><tspan x="1272.5" fill="black">alt</tspan></text><text x="1475" y="1120" fill="black" class="loopText" style="text-anchor: middle;"><tspan x="1475" fill="black">[ ✖ ]</tspan></text><text x="1475" y="1180" fill="black" class="loopText" style="text-anchor: middle;"><tspan x="1475" fill="black">[ ‼️ ]</tspan></text><text x="1475" y="1235" fill="black" class="loopText" style="text-anchor: middle;"><tspan x="1475" fill="black">[ ✔ ]</tspan></text></g><g><text x="1675" y="1303" class="messageText" style="text-anchor: middle;">roll out solution</text><path d="M 1675,1310 C 1735,1300 1735,1340 1675,1330" class="messageLine0" stroke-width="2" stroke="black" marker-end="url(#arrowhead)" style="fill: none;"></path></g><g><text x="1575" y="1368" class="messageText" style="text-anchor: middle;">report on results</text><line x1="1675" y1="1375" x2="1475" y2="1375" class="messageLine0" stroke-width="2" stroke="black" marker-end="url(#arrowhead)" style="fill: none;"></line></g><g><text x="1775" y="1403" class="messageText" style="text-anchor: middle;">track KPIs</text><line x1="1675" y1="1410" x2="1875" y2="1410" class="messageLine0" stroke-width="2" stroke="black" marker-end="url(#arrowhead)" style="fill: none;"></line></g><g><rect x="0" y="1430" fill="#eaeaea" stroke="#666" width="150" height="65" rx="3" ry="3" class="actor"></rect><text x="75" y="1462.5" dominant-baseline="central" alignment-baseline="central" class="actor" style="text-anchor: middle;"><tspan x="75" dy="0">IDEA</tspan></text></g><g><rect x="200" y="1430" fill="#eaeaea" stroke="#666" width="150" height="65" rx="3" ry="3" class="actor"></rect><text x="275" y="1462.5" dominant-baseline="central" alignment-baseline="central" class="actor" style="text-anchor: middle;"><tspan x="275" dy="0">Technology Forum</tspan></text></g><g><rect x="400" y="1430" fill="#eaeaea" stroke="#666" width="150" height="65" rx="3" ry="3" class="actor"></rect><text x="475" y="1462.5" dominant-baseline="central" alignment-baseline="central" class="actor" style="text-anchor: middle;"><tspan x="475" dy="0">CONCEPT</tspan></text></g><g><rect x="600" y="1430" fill="#eaeaea" stroke="#666" width="150" height="65" rx="3" ry="3" class="actor"></rect><text x="675" y="1462.5" dominant-baseline="central" alignment-baseline="central" class="actor" style="text-anchor: middle;"><tspan x="675" dy="0">DISCOVERY</tspan></text></g><g><rect x="800" y="1430" fill="#eaeaea" stroke="#666" width="150" height="65" rx="3" ry="3" class="actor"></rect><text x="875" y="1462.5" dominant-baseline="central" alignment-baseline="central" class="actor" style="text-anchor: middle;"><tspan x="875" dy="0">PROTOTYPE</tspan></text></g><g><rect x="1000" y="1430" fill="#eaeaea" stroke="#666" width="150" height="65" rx="3" ry="3" class="actor"></rect><text x="1075" y="1462.5" dominant-baseline="central" alignment-baseline="central" class="actor" style="text-anchor: middle;"><tspan x="1075" dy="0">Architecture Review</tspan></text></g><g><rect x="1200" y="1430" fill="#eaeaea" stroke="#666" width="150" height="65" rx="3" ry="3" class="actor"></rect><text x="1275" y="1462.5" dominant-baseline="central" alignment-baseline="central" class="actor" style="text-anchor: middle;"><tspan x="1275" dy="0">POC</tspan></text></g><g><rect x="1400" y="1430" fill="#eaeaea" stroke="#666" width="150" height="65" rx="3" ry="3" class="actor"></rect><text x="1475" y="1462.5" dominant-baseline="central" alignment-baseline="central" class="actor" style="text-anchor: middle;"><tspan x="1475" dy="0">TDLT</tspan></text></g><g><rect x="1600" y="1430" fill="#eaeaea" stroke="#666" width="150" height="65" rx="3" ry="3" class="actor"></rect><text x="1675" y="1462.5" dominant-baseline="central" alignment-baseline="central" class="actor" style="text-anchor: middle;"><tspan x="1675" dy="0">SCALE</tspan></text></g><g><rect x="1800" y="1430" fill="#eaeaea" stroke="#666" width="150" height="65" rx="3" ry="3" class="actor"></rect><text x="1875" y="1462.5" dominant-baseline="central" alignment-baseline="central" class="actor" style="text-anchor: middle;"><tspan x="1875" dy="0">MAINTAIN</tspan></text></g></svg>