<?xml version="1.0" standalone="yes"?>

<svg version="1.1" viewBox="0.0 0.0 1447.1522309711286 989.6929133858267" fill="none" stroke="none" stroke-linecap="square" stroke-miterlimit="10" xmlns="http://www.w3.org/2000/svg" xmlns:xlink="http://www.w3.org/1999/xlink"><clipPath id="p.0"><path d="m0 0l1447.1522 0l0 989.69293l-1447.1522 0l0 -989.69293z" clip-rule="nonzero"></path></clipPath><g clip-path="url(#p.0)"><path fill="#000000" fill-opacity="0.0" d="m0 0l1447.1522 0l0 989.69293l-1447.1522 0z" fill-rule="evenodd"></path><path fill="#000000" fill-opacity="0.0" d="m503.51312 110.84252l379.65356 0l0 374.8976l-379.65356 0z" fill-rule="evenodd"></path><path stroke="#000000" stroke-width="1.0" stroke-linejoin="round" stroke-linecap="butt" stroke-dasharray="4.0,3.0" d="m503.51312 110.84252l379.65356 0l0 374.8976l-379.65356 0z" fill-rule="evenodd"></path><path fill="#ffffff" d="m614.3635 225.17871l0 0c0 -6.607254 5.356201 -11.963486 11.963501 -11.963486l144.29346 0c3.1729126 0 6.2158813 1.260437 8.459473 3.5040283c2.2435913 2.2435913 3.5040283 5.286545 3.5040283 8.459457l0 47.85254c0 6.6072693 -5.356262 11.963501 -11.963501 11.963501l-144.29346 0c-6.6073 0 -11.963501 -5.3562317 -11.963501 -11.963501z" fill-rule="evenodd"></path><path stroke="#66cc00" stroke-width="3.0" stroke-linejoin="round" stroke-linecap="butt" d="m614.3635 225.17871l0 0c0 -6.607254 5.356201 -11.963486 11.963501 -11.963486l144.29346 0c3.1729126 0 6.2158813 1.260437 8.459473 3.5040283c2.2435913 2.2435913 3.5040283 5.286545 3.5040283 8.459457l0 47.85254c0 6.6072693 -5.356262 11.963501 -11.963501 11.963501l-144.29346 0c-6.6073 0 -11.963501 -5.3562317 -11.963501 -11.963501z" fill-rule="evenodd"></path><path fill="#000000" d="m644.09485 243.5431l0 1.28125l-5.984375 0l0 3.625l5.25 0l0 1.28125l-5.25 0l0 5.234375l-1.515625 0l0 -11.421875l7.5 0zm7.96875 0.265625l0 1.203125l-4.578125 0l-0.609375 3.265625l0.03125 0.03125q0.359375 -0.390625 0.890625 -0.59375q0.546875 -0.21875 1.21875 -0.21875q1.65625 0 2.65625 1.03125q1.0 1.03125 1.0 2.84375q0 1.625 -1.09375 2.71875q-1.09375 1.078125 -2.859375 1.078125q-1.515625 0 -2.546875 -0.875q-1.03125 -0.890625 -1.078125 -2.375l0 -0.015625l1.359375 0q0.0625 0.90625 0.734375 1.484375q0.671875 0.5625 1.65625 0.5625q1.046875 0 1.71875 -0.71875q0.671875 -0.71875 0.671875 -1.96875q0 -1.15625 -0.734375 -1.859375q-0.734375 -0.71875 -1.828125 -0.71875q-0.59375 0 -1.125 0.28125q-0.53125 0.265625 -0.984375 0.796875l-1.15625 -0.0625l1.046875 -5.890625l5.609375 0zm8.578125 -0.265625l0 10.140625l6.046875 0l0 1.28125l-7.5625 0l0 -11.421875l1.515625 0zm10.7265625 2.953125q1.875 0 2.9375 1.21875q1.078125 1.203125 1.078125 3.125q0 1.921875 -1.09375 3.125q-1.09375 1.203125 -2.921875 1.203125q-1.796875 0 -2.90625 -1.171875q-1.109375 -1.1875 -1.109375 -3.15625q0 -1.96875 1.078125 -3.15625q1.09375 -1.1875 2.9375 -1.1875zm-2.578125 4.34375q0 1.421875 0.71875 2.265625q0.734375 0.84375 1.859375 0.84375q1.125 0 1.84375 -0.84375q0.734375 -0.859375 0.734375 -2.265625q0 -1.421875 -0.734375 -2.28125q-0.71875 -0.859375 -1.859375 -0.859375q-1.09375 0 -1.828125 0.84375q-0.734375 0.84375 -0.734375 2.296875zm11.578125 -4.34375q1.6875 0 2.390625 0.609375q0.71875 0.59375 0.71875 1.609375q0 4.296875 0 4.765625q0 0.46875 0.421875 0.46875q0.09375 0 0.203125 -0.015625q0.109375 -0.03125 0.21875 -0.0625l0 1.0625q-0.1875 0.109375 -0.4375 0.171875q-0.25 0.0625 -0.53125 0.0625q-0.5625 0 -0.859375 -0.3125q-0.296875 -0.328125 -0.296875 -0.984375q-0.546875 0.640625 -1.28125 0.96875q-0.734375 0.328125 -1.640625 0.328125q-1.28125 0 -2.015625 -0.609375q-0.71875 -0.609375 -0.71875 -1.71875q0 -1.125 0.703125 -1.765625q0.71875 -0.65625 3.359375 -0.984375q0.890625 -0.125 1.203125 -0.34375q0.3125 -0.234375 0.3125 -0.6875q0 -0.6875 -0.4375 -1.015625q-0.4375 -0.34375 -1.40625 -0.34375q-1.0 0 -1.515625 0.390625q-0.5 0.375 -0.53125 1.171875l-1.359375 0q0.0625 -1.375 0.96875 -2.0625q0.90625 -0.703125 2.53125 -0.703125zm-2.390625 6.234375q0 0.578125 0.421875 0.90625q0.421875 0.3125 1.1875 0.3125q1.140625 0 1.828125 -0.5625q0.6875 -0.578125 0.6875 -1.28125l0 -1.421875q-0.34375 0.25 -0.890625 0.34375q-0.546875 0.078125 -1.453125 0.203125q-0.90625 0.125 -1.34375 0.484375q-0.4375 0.359375 -0.4375 1.015625zm15.0 -9.1875l0 11.421875l-1.359375 0l0 -1.125l-0.03125 0q-0.328125 0.640625 -1.03125 0.984375q-0.6875 0.34375 -1.609375 0.34375q-1.734375 0 -2.78125 -1.203125q-1.03125 -1.21875 -1.03125 -3.15625q0 -1.921875 1.0 -3.109375q1.015625 -1.203125 2.765625 -1.203125q0.8125 0 1.546875 0.328125q0.734375 0.328125 1.140625 0.96875l0.03125 0l0 -4.25l1.359375 0zm-6.40625 7.34375q0 1.34375 0.6875 2.203125q0.703125 0.859375 1.875 0.859375q1.203125 0 1.859375 -0.859375q0.671875 -0.859375 0.671875 -2.25q0 -1.421875 -0.6875 -2.28125q-0.671875 -0.859375 -1.9375 -0.859375q-1.171875 0 -1.828125 0.859375q-0.640625 0.84375 -0.640625 2.328125zm18.039062 -7.34375q2.125 0 2.875 0.859375q0.765625 0.84375 0.765625 1.9375q0 0.90625 -0.453125 1.578125q-0.4375 0.65625 -1.25 0.984375l0 0.03125q1.0625 0.21875 1.625 0.953125q0.5625 0.734375 0.5625 1.796875q0 1.390625 -0.984375 2.34375q-0.96875 0.9375 -2.4375 0.9375l-5.578125 0l0 -11.421875l4.875 0zm-0.234375 4.90625q1.140625 0 1.75 -0.421875q0.609375 -0.4375 0.609375 -1.40625q0 -0.90625 -0.515625 -1.34375q-0.5 -0.453125 -1.828125 -0.453125l-3.140625 0l0 3.625l3.125 0zm0.75 5.234375q0.921875 0 1.5 -0.546875q0.578125 -0.5625 0.578125 -1.5q0 -0.96875 -0.65625 -1.4375q-0.65625 -0.46875 -1.875 -0.46875l-3.421875 0l0 3.953125l3.875 0zm8.7265625 -7.1875q1.6875 0 2.390625 0.609375q0.71875 0.59375 0.71875 1.609375q0 4.296875 0 4.765625q0 0.46875 0.421875 0.46875q0.09375 0 0.203125 -0.015625q0.109375 -0.03125 0.21875 -0.0625l0 1.0625q-0.1875 0.109375 -0.4375 0.171875q-0.25 0.0625 -0.53125 0.0625q-0.5625 0 -0.859375 -0.3125q-0.296875 -0.328125 -0.296875 -0.984375q-0.546875 0.640625 -1.28125 0.96875q-0.734375 0.328125 -1.640625 0.328125q-1.28125 0 -2.015625 -0.609375q-0.71875 -0.609375 -0.71875 -1.71875q0 -1.125 0.703125 -1.765625q0.71875 -0.65625 3.359375 -0.984375q0.890625 -0.125 1.203125 -0.34375q0.3125 -0.234375 0.3125 -0.6875q0 -0.6875 -0.4375 -1.015625q-0.4375 -0.34375 -1.40625 -0.34375q-1.0 0 -1.515625 0.390625q-0.5 0.375 -0.53125 1.171875l-1.359375 0q0.0625 -1.375 0.96875 -2.0625q0.90625 -0.703125 2.53125 -0.703125zm-2.390625 6.234375q0 0.578125 0.421875 0.90625q0.421875 0.3125 1.1875 0.3125q1.140625 0 1.828125 -0.5625q0.6875 -0.578125 0.6875 -1.28125l0 -1.421875q-0.34375 0.25 -0.890625 0.34375q-0.546875 0.078125 -1.453125 0.203125q-0.90625 0.125 -1.34375 0.484375q-0.4375 0.359375 -0.4375 1.015625zm9.046875 -9.1875l0 11.421875l-1.359375 0l0 -11.421875l1.359375 0zm5.4921875 2.953125q1.6875 0 2.390625 0.609375q0.71875 0.59375 0.71875 1.609375q0 4.296875 0 4.765625q0 0.46875 0.421875 0.46875q0.09375 0 0.203125 -0.015625q0.109375 -0.03125 0.21875 -0.0625l0 1.0625q-0.1875 0.109375 -0.4375 0.171875q-0.25 0.0625 -0.53125 0.0625q-0.5625 0 -0.859375 -0.3125q-0.296875 -0.328125 -0.296875 -0.984375q-0.546875 0.640625 -1.28125 0.96875q-0.734375 0.328125 -1.640625 0.328125q-1.28125 0 -2.015625 -0.609375q-0.71875 -0.609375 -0.71875 -1.71875q0 -1.125 0.703125 -1.765625q0.71875 -0.65625 3.359375 -0.984375q0.890625 -0.125 1.203125 -0.34375q0.3125 -0.234375 0.3125 -0.6875q0 -0.6875 -0.4375 -1.015625q-0.4375 -0.34375 -1.40625 -0.34375q-1.0 0 -1.515625 0.390625q-0.5 0.375 -0.53125 1.171875l-1.359375 0q0.0625 -1.375 0.96875 -2.0625q0.90625 -0.703125 2.53125 -0.703125zm-2.390625 6.234375q0 0.578125 0.421875 0.90625q0.421875 0.3125 1.1875 0.3125q1.140625 0 1.828125 -0.5625q0.6875 -0.578125 0.6875 -1.28125l0 -1.421875q-0.34375 0.25 -0.890625 0.34375q-0.546875 0.078125 -1.453125 0.203125q-0.90625 0.125 -1.34375 0.484375q-0.4375 0.359375 -0.4375 1.015625zm11.609375 -6.234375q1.5 0 2.171875 0.765625q0.671875 0.765625 0.671875 2.1875l0 5.515625l-1.359375 0l0 -5.65625q0 -0.703125 -0.453125 -1.15625q-0.4375 -0.453125 -1.234375 -0.453125q-1.15625 0 -1.796875 0.703125q-0.640625 0.703125 -0.640625 1.828125l0 4.734375l-1.359375 0l0 -8.28125l1.28125 0l0 1.3125l0.03125 0q0.453125 -0.765625 1.109375 -1.125q0.65625 -0.375 1.578125 -0.375zm8.3515625 0q1.515625 0 2.453125 0.71875q0.953125 0.71875 1.109375 2.125l-1.40625 0q-0.15625 -0.796875 -0.703125 -1.21875q-0.53125 -0.421875 -1.34375 -0.421875q-1.265625 0 -1.921875 0.84375q-0.65625 0.84375 -0.65625 2.390625q0 1.375 0.640625 2.203125q0.65625 0.8125 1.78125 0.8125q0.984375 0 1.5625 -0.53125q0.578125 -0.53125 0.703125 -1.484375l1.390625 0q-0.21875 1.546875 -1.15625 2.390625q-0.9375 0.84375 -2.484375 0.84375q-1.8125 0 -2.84375 -1.140625q-1.03125 -1.140625 -1.03125 -3.09375q0 -2.03125 1.046875 -3.234375q1.046875 -1.203125 2.859375 -1.203125zm8.578125 0q1.78125 0 2.765625 1.28125q0.984375 1.28125 0.984375 3.296875l0 0.15625l-6.203125 0l0 0.109375q0 1.171875 0.6875 1.890625q0.6875 0.71875 1.890625 0.71875q0.90625 0 1.4375 -0.421875q0.546875 -0.421875 0.703125 -1.1875l1.34375 0q-0.265625 1.375 -1.203125 2.109375q-0.921875 0.71875 -2.328125 0.71875q-1.296875 0 -2.203125 -0.59375q-0.90625 -0.59375 -1.34375 -1.640625q-0.421875 -1.0625 -0.421875 -2.15625q0 -1.828125 1.09375 -3.046875q1.109375 -1.234375 2.796875 -1.234375zm-2.453125 3.53125l4.75 0q-0.0625 -1.0 -0.734375 -1.65625q-0.65625 -0.671875 -1.65625 -0.671875q-0.9375 0 -1.609375 0.640625q-0.65625 0.625 -0.75 1.6875zm11.71875 -3.53125q0.046875 0 0.078125 0q0.046875 0 0.109375 0l0 1.4375q-1.53125 0 -2.265625 0.8125q-0.71875 0.8125 -0.71875 2.515625l0 3.703125l-1.359375 0l0 -8.28125l1.28125 0l0 1.75l0.03125 0q0.46875 -0.984375 1.171875 -1.453125q0.703125 -0.484375 1.671875 -0.484375z" fill-rule="nonzero"></path><path fill="#000000" fill-opacity="0.0" d="m698.6627 80.77428l-0.18896484 132.44095" fill-rule="evenodd"></path><path stroke="#8e7cc3" stroke-width="3.0" stroke-linejoin="round" stroke-linecap="butt" d="m698.6627 80.77428l-0.16326904 114.44096" fill-rule="evenodd"></path><path stroke="#8e7cc3" stroke-width="3.0" stroke-linecap="butt" d="m693.54425 195.20818l4.935791 13.621338l4.9746094 -13.607208z" fill-rule="evenodd"></path><path fill="#5cb900" d="m614.3609 28.459318l168.22046 0l0 44.97637l-168.22046 0z" fill-rule="evenodd"></path><path fill="#ffffff" d="m651.8902 42.848064l0 2.890625l1.9375 0l0 1.765625l-1.9375 0l0 4.84375q0 0.59375 0.21875 0.828125q0.234375 0.21875 0.90625 0.21875q0.234375 0 0.4375 -0.015625q0.203125 -0.015625 0.375 -0.046875l0 2.0625q-0.328125 0.0625 -0.734375 0.078125q-0.390625 0.015625 -0.796875 0.015625q-1.71875 0 -2.390625 -0.578125q-0.65625 -0.59375 -0.65625 -1.65625l0 -5.75l-1.609375 0l0 -1.765625l1.609375 0l0 -2.890625l2.640625 0zm7.677307 2.625q2.140625 0 3.421875 1.484375q1.28125 1.46875 1.28125 3.75l-0.03125 0.484375l-6.953125 0q0.0625 1.25 0.65625 1.859375q0.59375 0.59375 1.703125 0.59375q0.71875 0 1.328125 -0.359375q0.609375 -0.375 0.78125 -0.890625l2.328125 0q-0.53125 1.640625 -1.65625 2.453125q-1.125 0.796875 -2.859375 0.796875q-2.234375 0 -3.59375 -1.40625q-1.34375 -1.421875 -1.34375 -3.671875q0 -2.15625 1.375 -3.625q1.390625 -1.46875 3.5625 -1.46875zm-2.28125 4.046875l4.3125 0q-0.1875 -1.0625 -0.6875 -1.546875q-0.5 -0.5 -1.4375 -0.5q-0.96875 0 -1.53125 0.546875q-0.5625 0.546875 -0.65625 1.5zm11.259644 -7.453125l0 13.3125l-2.65625 0l0 -13.3125l2.65625 0zm4.7316895 3.671875l0 5.515625q0 1.09375 0.375 1.703125q0.390625 0.59375 1.328125 0.59375q1.09375 0 1.5625 -0.65625q0.484375 -0.671875 0.484375 -2.015625l0 -5.140625l2.65625 0l0 9.640625l-2.53125 0l0 -1.34375l-0.046875 0q-0.5 0.8125 -1.296875 1.21875q-0.796875 0.390625 -1.671875 0.390625q-1.796875 0 -2.65625 -0.90625q-0.84375 -0.921875 -0.84375 -2.96875l0 -6.03125l2.640625 0zm12.37146 -0.265625q1.96875 0 3.03125 0.78125q1.078125 0.78125 1.21875 2.296875l-2.515625 0q-0.0625 -0.6875 -0.515625 -1.0q-0.453125 -0.3125 -1.3125 -0.3125q-0.75 0 -1.109375 0.234375q-0.34375 0.234375 -0.34375 0.671875q0 0.4375 0.453125 0.734375q0.46875 0.28125 1.859375 0.546875q2.21875 0.421875 2.96875 1.09375q0.765625 0.671875 0.765625 1.765625q0 1.640625 -1.203125 2.5q-1.1875 0.859375 -3.1875 0.859375q-2.015625 0 -3.234375 -0.84375q-1.21875 -0.859375 -1.3125 -2.5625l2.53125 0q0 0.765625 0.578125 1.203125q0.578125 0.421875 1.453125 0.421875q0.765625 0 1.25 -0.328125q0.484375 -0.328125 0.484375 -0.890625q0 -0.515625 -0.625 -0.828125q-0.625 -0.3125 -2.296875 -0.671875q-1.671875 -0.328125 -2.40625 -0.9375q-0.734375 -0.609375 -0.734375 -1.640625q0 -1.53125 1.078125 -2.3125q1.09375 -0.78125 3.125 -0.78125zm9.098572 7.03125l0 2.875l-2.921875 0l0 -2.875l2.921875 0zm6.7614136 -7.03125q1.875 0 3.15625 0.96875q1.28125 0.96875 1.390625 2.6875l-2.609375 0q-0.109375 -0.828125 -0.609375 -1.234375q-0.484375 -0.421875 -1.34375 -0.421875q-1.0625 0 -1.65625 0.875q-0.59375 0.875 -0.59375 2.265625q0 1.375 0.578125 2.203125q0.59375 0.828125 1.625 0.828125q0.875 0 1.421875 -0.5q0.546875 -0.5 0.6875 -1.46875l2.546875 0q-0.265625 1.921875 -1.5 2.953125q-1.21875 1.015625 -3.140625 1.015625q-2.15625 0 -3.515625 -1.375q-1.359375 -1.390625 -1.359375 -3.578125q0 -2.328125 1.328125 -3.765625q1.34375 -1.453125 3.59375 -1.453125zm10.775269 0q2.28125 0 3.640625 1.40625q1.359375 1.390625 1.359375 3.6875q0 2.3125 -1.375 3.703125q-1.375 1.375 -3.625 1.375q-2.234375 0 -3.609375 -1.390625q-1.375 -1.390625 -1.375 -3.6875q0 -2.28125 1.34375 -3.6875q1.359375 -1.40625 3.640625 -1.40625zm-2.328125 5.09375q0 1.53125 0.625 2.3125q0.625 0.765625 1.703125 0.765625q1.140625 0 1.75 -0.796875q0.609375 -0.8125 0.609375 -2.28125q0 -1.4375 -0.59375 -2.265625q-0.59375 -0.828125 -1.78125 -0.828125q-1.0625 0 -1.6875 0.765625q-0.625 0.765625 -0.625 2.328125zm14.599121 -5.09375q1.078125 0 1.78125 0.421875q0.703125 0.40625 1.03125 1.1875q0.546875 -0.78125 1.296875 -1.1875q0.75 -0.421875 1.640625 -0.421875q1.75 0 2.625 0.90625q0.890625 0.890625 0.890625 2.453125l0 6.546875l-2.65625 0l0 -5.578125q0 -1.3125 -0.390625 -1.765625q-0.390625 -0.46875 -1.234375 -0.46875q-0.890625 0 -1.328125 0.609375q-0.4375 0.59375 -0.4375 1.75l0 5.453125l-2.65625 0l0 -5.9375q0 -0.953125 -0.375 -1.40625q-0.359375 -0.46875 -1.21875 -0.46875q-0.765625 0 -1.28125 0.578125q-0.515625 0.578125 -0.515625 1.578125l0 5.65625l-2.65625 0l0 -9.640625l2.5 0l0 1.3125l0.03125 0q0.578125 -0.796875 1.3125 -1.1875q0.75 -0.390625 1.640625 -0.390625zm17.460571 -3.734375l-5.203125 13.953125l-2.125 0l5.203125 -13.953125l2.125 0zm4.313843 0.328125l0 2.328125l2.15625 -0.828125l0.5 1.4375l-2.1875 0.734375l1.375 1.828125l-1.234375 0.90625l-1.375 -1.921875l-1.3125 1.921875l-1.25 -0.90625l1.390625 -1.828125l-2.171875 -0.734375l0.5 -1.4375l2.125 0.828125l0 -2.328125l1.484375 0z" fill-rule="nonzero"></path><path fill="#ffffff" d="m614.0958 587.10785l0 0c0 -6.607239 5.356201 -11.963501 11.96344 -11.963501l144.29352 0c3.1729126 0 6.2158813 1.260437 8.459473 3.5040283c2.2435913 2.2435913 3.5040283 5.28656 3.5040283 8.459473l0 47.85254c0 6.607239 -5.356262 11.963501 -11.963501 11.963501l-144.29352 0c-6.607239 0 -11.96344 -5.356262 -11.96344 -11.963501z" fill-rule="evenodd"></path><path stroke="#66cc00" stroke-width="3.0" stroke-linejoin="round" stroke-linecap="butt" d="m614.0958 587.10785l0 0c0 -6.607239 5.356201 -11.963501 11.96344 -11.963501l144.29352 0c3.1729126 0 6.2158813 1.260437 8.459473 3.5040283c2.2435913 2.2435913 3.5040283 5.28656 3.5040283 8.459473l0 47.85254c0 6.607239 -5.356262 11.963501 -11.963501 11.963501l-144.29352 0c-6.607239 0 -11.96344 -5.356262 -11.96344 -11.963501z" fill-rule="evenodd"></path><path fill="#000000" d="m656.1787 595.9722l6.015625 9.265625l0.03125 0l0 -9.265625l1.4375 0l0 11.421875l-1.671875 0l-5.96875 -9.171875l-0.03125 0l0 9.171875l-1.4375 0l0 -11.421875l1.625 0zm14.8359375 -0.28125q2.015625 0 3.3125 0.96875q1.296875 0.96875 1.59375 2.828125l-1.515625 0q-0.234375 -1.21875 -1.125 -1.859375q-0.875 -0.65625 -2.28125 -0.65625q-1.828125 0 -2.875 1.359375q-1.03125 1.34375 -1.03125 3.484375q0 1.96875 1.078125 3.265625q1.078125 1.296875 2.828125 1.296875q1.640625 0 2.65625 -0.984375q1.015625 -0.984375 1.015625 -2.5625l0 -0.171875l-3.65625 0l0 -1.28125l5.015625 0l0 6.015625l-0.953125 0l-0.40625 -1.421875q-0.625 0.8125 -1.59375 1.265625q-0.953125 0.4375 -2.078125 0.4375q-2.328125 0 -3.890625 -1.671875q-1.546875 -1.6875 -1.546875 -4.109375q0 -2.703125 1.46875 -4.453125q1.46875 -1.75 3.984375 -1.75zm8.828125 0.28125l0 11.421875l-1.515625 0l0 -11.421875l1.515625 0zm4.171875 0l6.015625 9.265625l0.03125 0l0 -9.265625l1.4375 0l0 11.421875l-1.671875 0l-5.96875 -9.171875l-0.03125 0l0 9.171875l-1.4375 0l0 -11.421875l1.625 0zm10.7265625 0l2.859375 4.453125l2.96875 -4.453125l1.703125 0l-3.78125 5.546875l4.015625 5.875l-1.859375 0l-3.0625 -4.71875l-3.171875 4.71875l-1.71875 0l3.984375 -5.875l-3.75 -5.546875l1.8125 0zm14.953125 0l0 10.140625l6.046875 0l0 1.28125l-7.5625 0l0 -11.421875l1.515625 0zm10.7265625 2.953125q1.875 0 2.9375 1.21875q1.078125 1.203125 1.078125 3.125q0 1.921875 -1.09375 3.125q-1.09375 1.203125 -2.921875 1.203125q-1.796875 0 -2.90625 -1.171875q-1.109375 -1.1875 -1.109375 -3.15625q0 -1.96875 1.078125 -3.15625q1.09375 -1.1875 2.9375 -1.1875zm-2.578125 4.34375q0 1.421875 0.71875 2.265625q0.734375 0.84375 1.859375 0.84375q1.125 0 1.84375 -0.84375q0.734375 -0.859375 0.734375 -2.265625q0 -1.421875 -0.734375 -2.28125q-0.71875 -0.859375 -1.859375 -0.859375q-1.09375 0 -1.828125 0.84375q-0.734375 0.84375 -0.734375 2.296875zm11.578125 -4.34375q1.6875 0 2.390625 0.609375q0.71875 0.59375 0.71875 1.609375q0 4.296875 0 4.765625q0 0.46875 0.421875 0.46875q0.09375 0 0.203125 -0.015625q0.109375 -0.03125 0.21875 -0.0625l0 1.0625q-0.1875 0.109375 -0.4375 0.171875q-0.25 0.0625 -0.53125 0.0625q-0.5625 0 -0.859375 -0.3125q-0.296875 -0.328125 -0.296875 -0.984375q-0.546875 0.640625 -1.28125 0.96875q-0.734375 0.328125 -1.640625 0.328125q-1.28125 0 -2.015625 -0.609375q-0.71875 -0.609375 -0.71875 -1.71875q0 -1.125 0.703125 -1.765625q0.71875 -0.65625 3.359375 -0.984375q0.890625 -0.125 1.203125 -0.34375q0.3125 -0.234375 0.3125 -0.6875q0 -0.6875 -0.4375 -1.015625q-0.4375 -0.34375 -1.40625 -0.34375q-1.0 0 -1.515625 0.390625q-0.5 0.375 -0.53125 1.171875l-1.359375 0q0.0625 -1.375 0.96875 -2.0625q0.90625 -0.703125 2.53125 -0.703125zm-2.390625 6.234375q0 0.578125 0.421875 0.90625q0.421875 0.3125 1.1875 0.3125q1.140625 0 1.828125 -0.5625q0.6875 -0.578125 0.6875 -1.28125l0 -1.421875q-0.34375 0.25 -0.890625 0.34375q-0.546875 0.078125 -1.453125 0.203125q-0.90625 0.125 -1.34375 0.484375q-0.4375 0.359375 -0.4375 1.015625zm15.0 -9.1875l0 11.421875l-1.359375 0l0 -1.125l-0.03125 0q-0.328125 0.640625 -1.03125 0.984375q-0.6875 0.34375 -1.609375 0.34375q-1.734375 0 -2.78125 -1.203125q-1.03125 -1.21875 -1.03125 -3.15625q0 -1.921875 1.0 -3.109375q1.015625 -1.203125 2.765625 -1.203125q0.8125 0 1.546875 0.328125q0.734375 0.328125 1.140625 0.96875l0.03125 0l0 -4.25l1.359375 0zm-6.40625 7.34375q0 1.34375 0.6875 2.203125q0.703125 0.859375 1.875 0.859375q1.203125 0 1.859375 -0.859375q0.671875 -0.859375 0.671875 -2.25q0 -1.421875 -0.6875 -2.28125q-0.671875 -0.859375 -1.9375 -0.859375q-1.171875 0 -1.828125 0.859375q-0.640625 0.84375 -0.640625 2.328125z" fill-rule="nonzero"></path><path fill="#000000" d="m672.77246 614.9722q2.125 0 2.875 0.859375q0.765625 0.84375 0.765625 1.9375q0 0.90625 -0.453125 1.578125q-0.4375 0.65625 -1.25 0.984375l0 0.03125q1.0625 0.21875 1.625 0.953125q0.5625 0.734375 0.5625 1.796875q0 1.390625 -0.984375 2.34375q-0.96875 0.9375 -2.4375 0.9375l-5.578125 0l0 -11.421875l4.875 0zm-0.234375 4.90625q1.140625 0 1.75 -0.421875q0.609375 -0.4375 0.609375 -1.40625q0 -0.90625 -0.515625 -1.34375q-0.5 -0.453125 -1.828125 -0.453125l-3.140625 0l0 3.625l3.125 0zm0.75 5.234375q0.921875 0 1.5 -0.546875q0.578125 -0.5625 0.578125 -1.5q0 -0.96875 -0.65625 -1.4375q-0.65625 -0.46875 -1.875 -0.46875l-3.421875 0l0 3.953125l3.875 0zm8.7265625 -7.1875q1.6875 0 2.390625 0.609375q0.71875 0.59375 0.71875 1.609375q0 4.296875 0 4.765625q0 0.46875 0.421875 0.46875q0.09375 0 0.203125 -0.015625q0.109375 -0.03125 0.21875 -0.0625l0 1.0625q-0.1875 0.109375 -0.4375 0.171875q-0.25 0.0625 -0.53125 0.0625q-0.5625 0 -0.859375 -0.3125q-0.296875 -0.328125 -0.296875 -0.984375q-0.546875 0.640625 -1.28125 0.96875q-0.734375 0.328125 -1.640625 0.328125q-1.28125 0 -2.015625 -0.609375q-0.71875 -0.609375 -0.71875 -1.71875q0 -1.125 0.703125 -1.765625q0.71875 -0.65625 3.359375 -0.984375q0.890625 -0.125 1.203125 -0.34375q0.3125 -0.234375 0.3125 -0.6875q0 -0.6875 -0.4375 -1.015625q-0.4375 -0.34375 -1.40625 -0.34375q-1.0 0 -1.515625 0.390625q-0.5 0.375 -0.53125 1.171875l-1.359375 0q0.0625 -1.375 0.96875 -2.0625q0.90625 -0.703125 2.53125 -0.703125zm-2.390625 6.234375q0 0.578125 0.421875 0.90625q0.421875 0.3125 1.1875 0.3125q1.140625 0 1.828125 -0.5625q0.6875 -0.578125 0.6875 -1.28125l0 -1.421875q-0.34375 0.25 -0.890625 0.34375q-0.546875 0.078125 -1.453125 0.203125q-0.90625 0.125 -1.34375 0.484375q-0.4375 0.359375 -0.4375 1.015625zm9.046875 -9.1875l0 11.421875l-1.359375 0l0 -11.421875l1.359375 0zm5.4921875 2.953125q1.6875 0 2.390625 0.609375q0.71875 0.59375 0.71875 1.609375q0 4.296875 0 4.765625q0 0.46875 0.421875 0.46875q0.09375 0 0.203125 -0.015625q0.109375 -0.03125 0.21875 -0.0625l0 1.0625q-0.1875 0.109375 -0.4375 0.171875q-0.25 0.0625 -0.53125 0.0625q-0.5625 0 -0.859375 -0.3125q-0.296875 -0.328125 -0.296875 -0.984375q-0.546875 0.640625 -1.28125 0.96875q-0.734375 0.328125 -1.640625 0.328125q-1.28125 0 -2.015625 -0.609375q-0.71875 -0.609375 -0.71875 -1.71875q0 -1.125 0.703125 -1.765625q0.71875 -0.65625 3.359375 -0.984375q0.890625 -0.125 1.203125 -0.34375q0.3125 -0.234375 0.3125 -0.6875q0 -0.6875 -0.4375 -1.015625q-0.4375 -0.34375 -1.40625 -0.34375q-1.0 0 -1.515625 0.390625q-0.5 0.375 -0.53125 1.171875l-1.359375 0q0.0625 -1.375 0.96875 -2.0625q0.90625 -0.703125 2.53125 -0.703125zm-2.390625 6.234375q0 0.578125 0.421875 0.90625q0.421875 0.3125 1.1875 0.3125q1.140625 0 1.828125 -0.5625q0.6875 -0.578125 0.6875 -1.28125l0 -1.421875q-0.34375 0.25 -0.890625 0.34375q-0.546875 0.078125 -1.453125 0.203125q-0.90625 0.125 -1.34375 0.484375q-0.4375 0.359375 -0.4375 1.015625zm11.609375 -6.234375q1.5 0 2.171875 0.765625q0.671875 0.765625 0.671875 2.1875l0 5.515625l-1.359375 0l0 -5.65625q0 -0.703125 -0.453125 -1.15625q-0.4375 -0.453125 -1.234375 -0.453125q-1.15625 0 -1.796875 0.703125q-0.640625 0.703125 -0.640625 1.828125l0 4.734375l-1.359375 0l0 -8.28125l1.28125 0l0 1.3125l0.03125 0q0.453125 -0.765625 1.109375 -1.125q0.65625 -0.375 1.578125 -0.375zm8.3515625 0q1.515625 0 2.453125 0.71875q0.953125 0.71875 1.109375 2.125l-1.40625 0q-0.15625 -0.796875 -0.703125 -1.21875q-0.53125 -0.421875 -1.34375 -0.421875q-1.265625 0 -1.921875 0.84375q-0.65625 0.84375 -0.65625 2.390625q0 1.375 0.640625 2.203125q0.65625 0.8125 1.78125 0.8125q0.984375 0 1.5625 -0.53125q0.578125 -0.53125 0.703125 -1.484375l1.390625 0q-0.21875 1.546875 -1.15625 2.390625q-0.9375 0.84375 -2.484375 0.84375q-1.8125 0 -2.84375 -1.140625q-1.03125 -1.140625 -1.03125 -3.09375q0 -2.03125 1.046875 -3.234375q1.046875 -1.203125 2.859375 -1.203125zm8.578125 0q1.78125 0 2.765625 1.28125q0.984375 1.28125 0.984375 3.296875l0 0.15625l-6.203125 0l0 0.109375q0 1.171875 0.6875 1.890625q0.6875 0.71875 1.890625 0.71875q0.90625 0 1.4375 -0.421875q0.546875 -0.421875 0.703125 -1.1875l1.34375 0q-0.265625 1.375 -1.203125 2.109375q-0.921875 0.71875 -2.328125 0.71875q-1.296875 0 -2.203125 -0.59375q-0.90625 -0.59375 -1.34375 -1.640625q-0.421875 -1.0625 -0.421875 -2.15625q0 -1.828125 1.09375 -3.046875q1.109375 -1.234375 2.796875 -1.234375zm-2.453125 3.53125l4.75 0q-0.0625 -1.0 -0.734375 -1.65625q-0.65625 -0.671875 -1.65625 -0.671875q-0.9375 0 -1.609375 0.640625q-0.65625 0.625 -0.75 1.6875zm11.71875 -3.53125q0.046875 0 0.078125 0q0.046875 0 0.109375 0l0 1.4375q-1.53125 0 -2.265625 0.8125q-0.71875 0.8125 -0.71875 2.515625l0 3.703125l-1.359375 0l0 -8.28125l1.28125 0l0 1.75l0.03125 0q0.46875 -0.984375 1.171875 -1.453125q0.703125 -0.484375 1.671875 -0.484375z" fill-rule="nonzero"></path><path fill="#000000" fill-opacity="0.0" d="m698.47375 284.99475l-0.25195312 290.14172" fill-rule="evenodd"></path><path stroke="#8e7cc3" stroke-width="3.0" stroke-linejoin="round" stroke-linecap="butt" d="m698.47375 284.99475l-0.23632812 272.14172" fill-rule="evenodd"></path><path stroke="#8e7cc3" stroke-width="3.0" stroke-linecap="butt" d="m693.2822 557.1322l4.9433594 13.618591l4.967041 -13.609985z" fill-rule="evenodd"></path><path fill="#000000" fill-opacity="0.0" d="m553.17584 333.86353l138.48822 0l0 29.385803l-138.48822 0z" fill-rule="evenodd"></path><path fill="#000000" d="m582.1035 346.80164l0 1.28125l-3.8125 0l0 10.140625l-1.515625 0l0 -10.140625l-3.8125 0l0 -1.28125l9.140625 0zm9.15625 0l0 1.28125l-6.375 0l0 3.625l5.9375 0l0 1.28125l-5.9375 0l0 3.953125l6.421875 0l0 1.28125l-7.9375 0l0 -11.421875l7.890625 0zm3.3984375 0l0 10.140625l6.046875 0l0 1.28125l-7.5625 0l0 -11.421875l1.515625 0zm8.8359375 0l0 7.359375q0 1.390625 0.796875 2.21875q0.8125 0.828125 2.375 0.828125q1.484375 0 2.234375 -0.8125q0.75 -0.828125 0.75 -2.234375l0 -7.359375l1.515625 0l0 7.375q0 2.015625 -1.140625 3.171875q-1.125 1.15625 -3.359375 1.15625q-2.328125 0 -3.515625 -1.125q-1.171875 -1.140625 -1.171875 -3.203125l0 -7.375l1.515625 0zm13.9453125 -0.28125q1.90625 0 3.015625 0.921875q1.125 0.921875 1.1875 2.703125l-1.4375 0q-0.125 -1.171875 -0.84375 -1.75q-0.703125 -0.59375 -1.984375 -0.59375q-1.21875 0 -1.890625 0.515625q-0.671875 0.5 -0.671875 1.4375q0 0.671875 0.5625 1.109375q0.578125 0.421875 3.109375 0.921875q1.828125 0.375 2.734375 1.15625q0.90625 0.765625 0.90625 2.140625q0 1.59375 -1.3125 2.515625q-1.296875 0.90625 -3.15625 0.90625q-2.078125 0 -3.390625 -1.046875q-1.3125 -1.046875 -1.328125 -3.0l1.4375 0q0.015625 1.3125 0.9375 2.03125q0.921875 0.71875 2.390625 0.71875q1.390625 0 2.140625 -0.53125q0.765625 -0.53125 0.765625 -1.546875q0 -0.8125 -0.703125 -1.296875q-0.6875 -0.5 -2.515625 -0.84375q-2.4375 -0.46875 -3.265625 -1.1875q-0.828125 -0.734375 -0.828125 -1.9375q0 -1.53125 1.15625 -2.4375q1.171875 -0.90625 2.984375 -0.90625zm14.984375 0.28125q2.59375 0 3.984375 1.375q1.40625 1.375 1.40625 4.0625q0 3.015625 -1.390625 4.5q-1.375 1.484375 -4.0 1.484375l-4.015625 0l0 -11.421875l4.015625 0zm0.09375 10.140625q1.703125 0 2.734375 -1.109375q1.046875 -1.125 1.046875 -3.390625q0 -2.265625 -0.953125 -3.3125q-0.9375 -1.046875 -2.78125 -1.046875l-2.640625 0l0 8.859375l2.59375 0zm8.375 -10.140625l0 1.65625l-1.359375 0l0 -1.65625l1.359375 0zm0 3.140625l0 8.28125l-1.359375 0l0 -8.28125l1.359375 0zm5.4765625 -0.1875q0.875 0 1.5 0.375q0.640625 0.375 0.984375 1.0l0.015625 0l0 -1.1875l1.265625 0l0 7.65625q0 1.953125 -0.9375 2.96875q-0.9375 1.015625 -2.890625 1.015625q-1.421875 0 -2.390625 -0.625q-0.96875 -0.625 -1.03125 -1.796875l1.359375 0q0.03125 0.625 0.671875 0.984375q0.640625 0.359375 1.46875 0.359375q1.203125 0 1.84375 -0.796875q0.640625 -0.796875 0.640625 -2.375l0 -0.515625l-0.03125 0q-0.328125 0.6875 -1.015625 1.09375q-0.6875 0.40625 -1.578125 0.40625q-1.671875 0 -2.6875 -1.15625q-1.0 -1.15625 -1.0 -3.03125q0 -1.90625 1.0 -3.140625q1.015625 -1.234375 2.8125 -1.234375zm-2.375 4.203125q0 1.484375 0.609375 2.328125q0.625 0.828125 1.734375 0.828125q1.125 0 1.78125 -0.859375q0.671875 -0.875 0.671875 -2.34375q0 -1.328125 -0.625 -2.140625q-0.609375 -0.8125 -1.734375 -0.8125q-1.140625 0 -1.796875 0.828125q-0.640625 0.8125 -0.640625 2.171875zm9.640625 -7.15625l0 1.65625l-1.359375 0l0 -1.65625l1.359375 0zm0 3.140625l0 8.28125l-1.359375 0l0 -8.28125l1.359375 0zm4.0078125 -2.46875l0 2.46875l1.640625 0l0 1.203125l-1.640625 0l0 5.1875q0 0.609375 0.40625 0.65625q0.40625 0.03125 0.859375 0.03125l0.375 0l0 1.203125l-1.125 0q-1.109375 0 -1.5 -0.390625q-0.375 -0.40625 -0.375 -1.34375l0 -5.34375l-1.421875 0l0 -1.203125l1.421875 0l0 -2.46875l1.359375 0zm6.5234375 2.28125q1.6875 0 2.390625 0.609375q0.71875 0.59375 0.71875 1.609375q0 4.296875 0 4.765625q0 0.46875 0.421875 0.46875q0.09375 0 0.203125 -0.015625q0.109375 -0.03125 0.21875 -0.0625l0 1.0625q-0.1875 0.109375 -0.4375 0.171875q-0.25 0.0625 -0.53125 0.0625q-0.5625 0 -0.859375 -0.3125q-0.296875 -0.328125 -0.296875 -0.984375q-0.546875 0.640625 -1.28125 0.96875q-0.734375 0.328125 -1.640625 0.328125q-1.28125 0 -2.015625 -0.609375q-0.71875 -0.609375 -0.71875 -1.71875q0 -1.125 0.703125 -1.765625q0.71875 -0.65625 3.359375 -0.984375q0.890625 -0.125 1.203125 -0.34375q0.3125 -0.234375 0.3125 -0.6875q0 -0.6875 -0.4375 -1.015625q-0.4375 -0.34375 -1.40625 -0.34375q-1.0 0 -1.515625 0.390625q-0.5 0.375 -0.53125 1.171875l-1.359375 0q0.0625 -1.375 0.96875 -2.0625q0.90625 -0.703125 2.53125 -0.703125zm-2.390625 6.234375q0 0.578125 0.421875 0.90625q0.421875 0.3125 1.1875 0.3125q1.140625 0 1.828125 -0.5625q0.6875 -0.578125 0.6875 -1.28125l0 -1.421875q-0.34375 0.25 -0.890625 0.34375q-0.546875 0.078125 -1.453125 0.203125q-0.90625 0.125 -1.34375 0.484375q-0.4375 0.359375 -0.4375 1.015625zm9.046875 -9.1875l0 11.421875l-1.359375 0l0 -11.421875l1.359375 0z" fill-rule="nonzero"></path><path fill="#000000" d="m577.9824 368.5204q1.90625 0 3.171875 0.984375q1.28125 0.984375 1.53125 2.734375l-1.515625 0q-0.25 -1.171875 -1.09375 -1.796875q-0.84375 -0.640625 -2.109375 -0.640625q-1.8125 0 -2.84375 1.28125q-1.015625 1.28125 -1.015625 3.34375q0 2.1875 1.0 3.484375q1.015625 1.296875 2.875 1.296875q1.40625 0 2.296875 -0.875q0.890625 -0.890625 1.0 -2.421875l1.53125 0q-0.25 2.21875 -1.546875 3.40625q-1.296875 1.1875 -3.40625 1.1875q-2.453125 0 -3.875 -1.625q-1.40625 -1.640625 -1.40625 -4.34375q0 -2.65625 1.453125 -4.328125q1.46875 -1.6875 3.953125 -1.6875zm10.0546875 3.234375q1.875 0 2.9375 1.21875q1.078125 1.203125 1.078125 3.125q0 1.921875 -1.09375 3.125q-1.09375 1.203125 -2.921875 1.203125q-1.796875 0 -2.90625 -1.171875q-1.109375 -1.1875 -1.109375 -3.15625q0 -1.96875 1.078125 -3.15625q1.09375 -1.1875 2.9375 -1.1875zm-2.578125 4.34375q0 1.421875 0.71875 2.265625q0.734375 0.84375 1.859375 0.84375q1.125 0 1.84375 -0.84375q0.734375 -0.859375 0.734375 -2.265625q0 -1.421875 -0.734375 -2.28125q-0.71875 -0.859375 -1.859375 -0.859375q-1.09375 0 -1.828125 0.84375q-0.734375 0.84375 -0.734375 2.296875zm12.203125 -4.34375q1.5 0 2.171875 0.765625q0.671875 0.765625 0.671875 2.1875l0 5.515625l-1.359375 0l0 -5.65625q0 -0.703125 -0.453125 -1.15625q-0.4375 -0.453125 -1.234375 -0.453125q-1.15625 0 -1.796875 0.703125q-0.640625 0.703125 -0.640625 1.828125l0 4.734375l-1.359375 0l0 -8.28125l1.28125 0l0 1.3125l0.03125 0q0.453125 -0.765625 1.109375 -1.125q0.65625 -0.375 1.578125 -0.375zm6.7890625 -2.28125l0 2.46875l1.640625 0l0 1.203125l-1.640625 0l0 5.1875q0 0.609375 0.40625 0.65625q0.40625 0.03125 0.859375 0.03125l0.375 0l0 1.203125l-1.125 0q-1.109375 0 -1.5 -0.390625q-0.375 -0.40625 -0.375 -1.34375l0 -5.34375l-1.421875 0l0 -1.203125l1.421875 0l0 -2.46875l1.359375 0zm6.5859375 2.28125q1.78125 0 2.765625 1.28125q0.984375 1.28125 0.984375 3.296875l0 0.15625l-6.203125 0l0 0.109375q0 1.171875 0.6875 1.890625q0.6875 0.71875 1.890625 0.71875q0.90625 0 1.4375 -0.421875q0.546875 -0.421875 0.703125 -1.1875l1.34375 0q-0.265625 1.375 -1.203125 2.109375q-0.921875 0.71875 -2.328125 0.71875q-1.296875 0 -2.203125 -0.59375q-0.90625 -0.59375 -1.34375 -1.640625q-0.421875 -1.0625 -0.421875 -2.15625q0 -1.828125 1.09375 -3.046875q1.109375 -1.234375 2.796875 -1.234375zm-2.453125 3.53125l4.75 0q-0.0625 -1.0 -0.734375 -1.65625q-0.65625 -0.671875 -1.65625 -0.671875q-0.9375 0 -1.609375 0.640625q-0.65625 0.625 -0.75 1.6875zm8.6875 -3.34375l1.984375 2.890625l0.015625 0l2.046875 -2.890625l1.640625 0l-2.84375 3.8125l3.1875 4.46875l-1.734375 0l-2.3125 -3.421875l-2.296875 3.421875l-1.65625 0l3.109375 -4.359375l-2.875 -3.921875l1.734375 0zm9.1015625 -2.46875l0 2.46875l1.640625 0l0 1.203125l-1.640625 0l0 5.1875q0 0.609375 0.40625 0.65625q0.40625 0.03125 0.859375 0.03125l0.375 0l0 1.203125l-1.125 0q-1.109375 0 -1.5 -0.390625q-0.375 -0.40625 -0.375 -1.34375l0 -5.34375l-1.421875 0l0 -1.203125l1.421875 0l0 -2.46875l1.359375 0zm11.671875 2.28125q1.765625 0 2.78125 1.21875q1.03125 1.21875 1.03125 3.140625q0 1.921875 -1.015625 3.125q-1.015625 1.1875 -2.765625 1.1875q-0.765625 0 -1.515625 -0.328125q-0.734375 -0.328125 -1.15625 -0.984375l-0.03125 0l0 4.28125l-1.359375 0l0 -11.453125l1.359375 0l0 1.125l0.03125 0q0.3125 -0.640625 1.0 -0.96875q0.703125 -0.34375 1.640625 -0.34375zm-2.71875 4.328125q0 1.4375 0.6875 2.28125q0.703125 0.84375 1.921875 0.84375q1.171875 0 1.8125 -0.84375q0.65625 -0.84375 0.65625 -2.34375q0 -1.34375 -0.6875 -2.203125q-0.671875 -0.859375 -1.875 -0.859375q-1.203125 0 -1.859375 0.875q-0.65625 0.875 -0.65625 2.25zm11.5 -4.328125q1.6875 0 2.390625 0.609375q0.71875 0.59375 0.71875 1.609375q0 4.296875 0 4.765625q0 0.46875 0.421875 0.46875q0.09375 0 0.203125 -0.015625q0.109375 -0.03125 0.21875 -0.0625l0 1.0625q-0.1875 0.109375 -0.4375 0.171875q-0.25 0.0625 -0.53125 0.0625q-0.5625 0 -0.859375 -0.3125q-0.296875 -0.328125 -0.296875 -0.984375q-0.546875 0.640625 -1.28125 0.96875q-0.734375 0.328125 -1.640625 0.328125q-1.28125 0 -2.015625 -0.609375q-0.71875 -0.609375 -0.71875 -1.71875q0 -1.125 0.703125 -1.765625q0.71875 -0.65625 3.359375 -0.984375q0.890625 -0.125 1.203125 -0.34375q0.3125 -0.234375 0.3125 -0.6875q0 -0.6875 -0.4375 -1.015625q-0.4375 -0.34375 -1.40625 -0.34375q-1.0 0 -1.515625 0.390625q-0.5 0.375 -0.53125 1.171875l-1.359375 0q0.0625 -1.375 0.96875 -2.0625q0.90625 -0.703125 2.53125 -0.703125zm-2.390625 6.234375q0 0.578125 0.421875 0.90625q0.421875 0.3125 1.1875 0.3125q1.140625 0 1.828125 -0.5625q0.6875 -0.578125 0.6875 -1.28125l0 -1.421875q-0.34375 0.25 -0.890625 0.34375q-0.546875 0.078125 -1.453125 0.203125q-0.90625 0.125 -1.34375 0.484375q-0.4375 0.359375 -0.4375 1.015625zm9.5 -8.515625l0 2.46875l1.640625 0l0 1.203125l-1.640625 0l0 5.1875q0 0.609375 0.40625 0.65625q0.40625 0.03125 0.859375 0.03125l0.375 0l0 1.203125l-1.125 0q-1.109375 0 -1.5 -0.390625q-0.375 -0.40625 -0.375 -1.34375l0 -5.34375l-1.421875 0l0 -1.203125l1.421875 0l0 -2.46875l1.359375 0zm4.5078125 -0.671875l0 4.359375l0.03125 0q0.296875 -0.65625 1.0 -1.03125q0.71875 -0.375 1.609375 -0.375q1.5 0 2.171875 0.765625q0.671875 0.765625 0.671875 2.1875l0 5.515625l-1.359375 0l0 -5.65625q0 -0.703125 -0.453125 -1.15625q-0.4375 -0.453125 -1.234375 -0.453125q-1.15625 0 -1.796875 0.703125q-0.640625 0.703125 -0.640625 1.828125l0 4.734375l-1.359375 0l0 -11.421875l1.359375 0zm10.2890625 2.953125q1.671875 0 2.484375 0.65625q0.8125 0.640625 0.890625 1.9375l-1.359375 0l0 -0.015625q-0.0625 -0.65625 -0.578125 -1.015625q-0.515625 -0.359375 -1.34375 -0.359375q-0.8125 0 -1.296875 0.28125q-0.46875 0.265625 -0.46875 0.765625q0 0.453125 0.421875 0.75q0.421875 0.28125 1.265625 0.46875l1.28125 0.28125q1.203125 0.265625 1.828125 0.828125q0.625 0.546875 0.625 1.46875q0 1.21875 -0.953125 1.921875q-0.9375 0.703125 -2.578125 0.703125q-1.578125 0 -2.515625 -0.71875q-0.921875 -0.71875 -0.984375 -2.09375l1.359375 0q0.03125 0.765625 0.609375 1.1875q0.59375 0.40625 1.609375 0.40625q0.984375 0 1.484375 -0.3125q0.515625 -0.3125 0.515625 -0.921875q0 -0.546875 -0.5 -0.875q-0.5 -0.328125 -2.0625 -0.640625q-1.5625 -0.296875 -2.203125 -0.859375q-0.640625 -0.5625 -0.640625 -1.484375q0 -1.09375 0.875 -1.71875q0.890625 -0.640625 2.234375 -0.640625z" fill-rule="nonzero"></path><path fill="#000000" fill-opacity="0.0" d="m698.20605 646.9239l0 103.055115" fill-rule="evenodd"></path><path stroke="#8e7cc3" stroke-width="3.0" stroke-linejoin="round" stroke-linecap="butt" d="m698.20605 646.9239l0 85.055115" fill-rule="evenodd"></path><path stroke="#8e7cc3" stroke-width="3.0" stroke-linecap="butt" d="m693.25085 731.979l4.9552 13.614319l4.9552 -13.614319z" fill-rule="evenodd"></path><path fill="#ffffff" d="m614.0958 761.9425l0 0c0 -6.607239 5.356201 -11.963501 11.96344 -11.963501l144.29352 0c3.1729126 0 6.2158813 1.260437 8.459473 3.5040283c2.2435913 2.2435913 3.5040283 5.28656 3.5040283 8.459473l0 47.85254c0 6.607239 -5.356262 11.963501 -11.963501 11.963501l-144.29352 0c-6.607239 0 -11.96344 -5.356262 -11.96344 -11.963501z" fill-rule="evenodd"></path><path stroke="#66cc00" stroke-width="3.0" stroke-linejoin="round" stroke-linecap="butt" d="m614.0958 761.9425l0 0c0 -6.607239 5.356201 -11.963501 11.96344 -11.963501l144.29352 0c3.1729126 0 6.2158813 1.260437 8.459473 3.5040283c2.2435913 2.2435913 3.5040283 5.28656 3.5040283 8.459473l0 47.85254c0 6.607239 -5.356262 11.963501 -11.963501 11.963501l-144.29352 0c-6.607239 0 -11.96344 -5.356262 -11.96344 -11.963501z" fill-rule="evenodd"></path><path fill="#000000" d="m637.88965 780.3069l0 1.28125l-3.8125 0l0 10.140625l-1.515625 0l0 -10.140625l-3.8125 0l0 -1.28125l9.140625 0zm9.15625 0l0 1.28125l-6.375 0l0 3.625l5.9375 0l0 1.28125l-5.9375 0l0 3.953125l6.421875 0l0 1.28125l-7.9375 0l0 -11.421875l7.890625 0zm3.3984375 0l0 10.140625l6.046875 0l0 1.28125l-7.5625 0l0 -11.421875l1.515625 0zm8.8359375 0l0 7.359375q0 1.390625 0.796875 2.21875q0.8125 0.828125 2.375 0.828125q1.484375 0 2.234375 -0.8125q0.75 -0.828125 0.75 -2.234375l0 -7.359375l1.515625 0l0 7.375q0 2.015625 -1.140625 3.171875q-1.125 1.15625 -3.359375 1.15625q-2.328125 0 -3.515625 -1.125q-1.171875 -1.140625 -1.171875 -3.203125l0 -7.375l1.515625 0zm13.9453125 -0.28125q1.90625 0 3.015625 0.921875q1.125 0.921875 1.1875 2.703125l-1.4375 0q-0.125 -1.171875 -0.84375 -1.75q-0.703125 -0.59375 -1.984375 -0.59375q-1.21875 0 -1.890625 0.515625q-0.671875 0.5 -0.671875 1.4375q0 0.671875 0.5625 1.109375q0.578125 0.421875 3.109375 0.921875q1.828125 0.375 2.734375 1.15625q0.90625 0.765625 0.90625 2.140625q0 1.59375 -1.3125 2.515625q-1.296875 0.90625 -3.15625 0.90625q-2.078125 0 -3.390625 -1.046875q-1.3125 -1.046875 -1.328125 -3.0l1.4375 0q0.015625 1.3125 0.9375 2.03125q0.921875 0.71875 2.390625 0.71875q1.390625 0 2.140625 -0.53125q0.765625 -0.53125 0.765625 -1.546875q0 -0.8125 -0.703125 -1.296875q-0.6875 -0.5 -2.515625 -0.84375q-2.4375 -0.46875 -3.265625 -1.1875q-0.828125 -0.734375 -0.828125 -1.9375q0 -1.53125 1.15625 -2.4375q1.171875 -0.90625 2.984375 -0.90625zm14.984375 0.28125q2.59375 0 3.984375 1.375q1.40625 1.375 1.40625 4.0625q0 3.015625 -1.390625 4.5q-1.375 1.484375 -4.0 1.484375l-4.015625 0l0 -11.421875l4.015625 0zm0.09375 10.140625q1.703125 0 2.734375 -1.109375q1.046875 -1.125 1.046875 -3.390625q0 -2.265625 -0.953125 -3.3125q-0.9375 -1.046875 -2.78125 -1.046875l-2.640625 0l0 8.859375l2.59375 0zm8.375 -10.140625l0 1.65625l-1.359375 0l0 -1.65625l1.359375 0zm0 3.140625l0 8.28125l-1.359375 0l0 -8.28125l1.359375 0zm5.4765625 -0.1875q0.875 0 1.5 0.375q0.640625 0.375 0.984375 1.0l0.015625 0l0 -1.1875l1.265625 0l0 7.65625q0 1.953125 -0.9375 2.96875q-0.9375 1.015625 -2.890625 1.015625q-1.421875 0 -2.390625 -0.625q-0.96875 -0.625 -1.03125 -1.796875l1.359375 0q0.03125 0.625 0.671875 0.984375q0.640625 0.359375 1.46875 0.359375q1.203125 0 1.84375 -0.796875q0.640625 -0.796875 0.640625 -2.375l0 -0.515625l-0.03125 0q-0.328125 0.6875 -1.015625 1.09375q-0.6875 0.40625 -1.578125 0.40625q-1.671875 0 -2.6875 -1.15625q-1.0 -1.15625 -1.0 -3.03125q0 -1.90625 1.0 -3.140625q1.015625 -1.234375 2.8125 -1.234375zm-2.375 4.203125q0 1.484375 0.609375 2.328125q0.625 0.828125 1.734375 0.828125q1.125 0 1.78125 -0.859375q0.671875 -0.875 0.671875 -2.34375q0 -1.328125 -0.625 -2.140625q-0.609375 -0.8125 -1.734375 -0.8125q-1.140625 0 -1.796875 0.828125q-0.640625 0.8125 -0.640625 2.171875zm9.640625 -7.15625l0 1.65625l-1.359375 0l0 -1.65625l1.359375 0zm0 3.140625l0 8.28125l-1.359375 0l0 -8.28125l1.359375 0zm4.0078125 -2.46875l0 2.46875l1.640625 0l0 1.203125l-1.640625 0l0 5.1875q0 0.609375 0.40625 0.65625q0.40625 0.03125 0.859375 0.03125l0.375 0l0 1.203125l-1.125 0q-1.109375 0 -1.5 -0.390625q-0.375 -0.40625 -0.375 -1.34375l0 -5.34375l-1.421875 0l0 -1.203125l1.421875 0l0 -2.46875l1.359375 0zm6.5234375 2.28125q1.6875 0 2.390625 0.609375q0.71875 0.59375 0.71875 1.609375q0 4.296875 0 4.765625q0 0.46875 0.421875 0.46875q0.09375 0 0.203125 -0.015625q0.109375 -0.03125 0.21875 -0.0625l0 1.0625q-0.1875 0.109375 -0.4375 0.171875q-0.25 0.0625 -0.53125 0.0625q-0.5625 0 -0.859375 -0.3125q-0.296875 -0.328125 -0.296875 -0.984375q-0.546875 0.640625 -1.28125 0.96875q-0.734375 0.328125 -1.640625 0.328125q-1.28125 0 -2.015625 -0.609375q-0.71875 -0.609375 -0.71875 -1.71875q0 -1.125 0.703125 -1.765625q0.71875 -0.65625 3.359375 -0.984375q0.890625 -0.125 1.203125 -0.34375q0.3125 -0.234375 0.3125 -0.6875q0 -0.6875 -0.4375 -1.015625q-0.4375 -0.34375 -1.40625 -0.34375q-1.0 0 -1.515625 0.390625q-0.5 0.375 -0.53125 1.171875l-1.359375 0q0.0625 -1.375 0.96875 -2.0625q0.90625 -0.703125 2.53125 -0.703125zm-2.390625 6.234375q0 0.578125 0.421875 0.90625q0.421875 0.3125 1.1875 0.3125q1.140625 0 1.828125 -0.5625q0.6875 -0.578125 0.6875 -1.28125l0 -1.421875q-0.34375 0.25 -0.890625 0.34375q-0.546875 0.078125 -1.453125 0.203125q-0.90625 0.125 -1.34375 0.484375q-0.4375 0.359375 -0.4375 1.015625zm9.046875 -9.1875l0 11.421875l-1.359375 0l0 -11.421875l1.359375 0zm10.625 -0.28125q1.90625 0 3.015625 0.921875q1.125 0.921875 1.1875 2.703125l-1.4375 0q-0.125 -1.171875 -0.84375 -1.75q-0.703125 -0.59375 -1.984375 -0.59375q-1.21875 0 -1.890625 0.515625q-0.671875 0.5 -0.671875 1.4375q0 0.671875 0.5625 1.109375q0.578125 0.421875 3.109375 0.921875q1.828125 0.375 2.734375 1.15625q0.90625 0.765625 0.90625 2.140625q0 1.59375 -1.3125 2.515625q-1.296875 0.90625 -3.15625 0.90625q-2.078125 0 -3.390625 -1.046875q-1.3125 -1.046875 -1.328125 -3.0l1.4375 0q0.015625 1.3125 0.9375 2.03125q0.921875 0.71875 2.390625 0.71875q1.390625 0 2.140625 -0.53125q0.765625 -0.53125 0.765625 -1.546875q0 -0.8125 -0.703125 -1.296875q-0.6875 -0.5 -2.515625 -0.84375q-2.4375 -0.46875 -3.265625 -1.1875q-0.828125 -0.734375 -0.828125 -1.9375q0 -1.53125 1.15625 -2.4375q1.171875 -0.90625 2.984375 -0.90625zm7.7421875 0.28125l0 1.65625l-1.359375 0l0 -1.65625l1.359375 0zm0 3.140625l0 8.28125l-1.359375 0l0 -8.28125l1.359375 0zm4.0078125 -2.46875l0 2.46875l1.640625 0l0 1.203125l-1.640625 0l0 5.1875q0 0.609375 0.40625 0.65625q0.40625 0.03125 0.859375 0.03125l0.375 0l0 1.203125l-1.125 0q-1.109375 0 -1.5 -0.390625q-0.375 -0.40625 -0.375 -1.34375l0 -5.34375l-1.421875 0l0 -1.203125l1.421875 0l0 -2.46875l1.359375 0zm6.5859375 2.28125q1.78125 0 2.765625 1.28125q0.984375 1.28125 0.984375 3.296875l0 0.15625l-6.203125 0l0 0.109375q0 1.171875 0.6875 1.890625q0.6875 0.71875 1.890625 0.71875q0.90625 0 1.4375 -0.421875q0.546875 -0.421875 0.703125 -1.1875l1.34375 0q-0.265625 1.375 -1.203125 2.109375q-0.921875 0.71875 -2.328125 0.71875q-1.296875 0 -2.203125 -0.59375q-0.90625 -0.59375 -1.34375 -1.640625q-0.421875 -1.0625 -0.421875 -2.15625q0 -1.828125 1.09375 -3.046875q1.109375 -1.234375 2.796875 -1.234375zm-2.453125 3.53125l4.75 0q-0.0625 -1.0 -0.734375 -1.65625q-0.65625 -0.671875 -1.65625 -0.671875q-0.9375 0 -1.609375 0.640625q-0.65625 0.625 -0.75 1.6875zm10.359375 -3.53125q1.671875 0 2.484375 0.65625q0.8125 0.640625 0.890625 1.9375l-1.359375 0l0 -0.015625q-0.0625 -0.65625 -0.578125 -1.015625q-0.515625 -0.359375 -1.34375 -0.359375q-0.8125 0 -1.296875 0.28125q-0.46875 0.265625 -0.46875 0.765625q0 0.453125 0.421875 0.75q0.421875 0.28125 1.265625 0.46875l1.28125 0.28125q1.203125 0.265625 1.828125 0.828125q0.625 0.546875 0.625 1.46875q0 1.21875 -0.953125 1.921875q-0.9375 0.703125 -2.578125 0.703125q-1.578125 0 -2.515625 -0.71875q-0.921875 -0.71875 -0.984375 -2.09375l1.359375 0q0.03125 0.765625 0.609375 1.1875q0.59375 0.40625 1.609375 0.40625q0.984375 0 1.484375 -0.3125q0.515625 -0.3125 0.515625 -0.921875q0 -0.546875 -0.5 -0.875q-0.5 -0.328125 -2.0625 -0.640625q-1.5625 -0.296875 -2.203125 -0.859375q-0.640625 -0.5625 -0.640625 -1.484375q0 -1.09375 0.875 -1.71875q0.890625 -0.640625 2.234375 -0.640625z" fill-rule="nonzero"></path><path fill="#000000" fill-opacity="0.0" d="m503.51312 485.74014l379.65356 0l0 374.89767l-379.65356 0z" fill-rule="evenodd"></path><path stroke="#000000" stroke-width="1.0" stroke-linejoin="round" stroke-linecap="butt" stroke-dasharray="4.0,3.0" d="m503.51312 485.74014l379.65356 0l0 374.89767l-379.65356 0z" fill-rule="evenodd"></path><path fill="#b4a7d6" d="m943.6391 110.6063l0 375.3701l-60.472412 0l0 -375.3701z" fill-rule="evenodd"></path><path fill="#ffffff" d="m919.7954 286.42593q0 2.03125 -0.8125 3.09375q-0.796875 1.0625 -2.46875 1.0625q-1.03125 0 -1.703125 -0.484375q-0.671875 -0.46875 -1.09375 -1.328125q-0.359375 1.21875 -1.234375 1.828125q-0.859375 0.609375 -2.140625 0.609375q-1.84375 0 -2.859375 -1.328125q-1.0 -1.328125 -1.0 -3.28125l0 -6.546875l13.3125 0l0 6.375zm-5.390625 -0.421875q0 0.78125 0.40625 1.25q0.40625 0.484375 1.1875 0.484375q0.78125 0 1.15625 -0.5q0.375 -0.484375 0.375 -1.4375l0 -2.8125l-3.125 0l0 3.015625zm-5.640625 0.1875q0 0.984375 0.421875 1.53125q0.4375 0.5625 1.328125 0.5625q0.9375 0 1.421875 -0.53125q0.484375 -0.515625 0.484375 -1.515625l0 -3.25l-3.65625 0l0 3.203125zm11.03125 16.87027l-2.453125 0l0 -4.0l-10.859375 0l0 -2.921875l10.859375 0l0 -3.984375l2.453125 0l0 10.90625zm0.328125 7.505371q0 2.96875 -2.0 4.75q-1.984375 1.796875 -5.03125 1.796875q-2.984375 0 -4.953125 -1.796875q-1.96875 -1.796875 -1.96875 -4.75q0 -1.921875 0.875 -3.421875q0.890625 -1.5 2.484375 -2.328125q1.59375 -0.8125 3.5625 -0.8125q3.078125 0 5.046875 1.796875q1.984375 1.8125 1.984375 4.765625zm-7.03125 -3.625q-1.96875 0 -3.21875 0.9375q-1.234375 0.9375 -1.234375 2.6875q0 1.71875 1.21875 2.65625q1.21875 0.953125 3.234375 0.953125q2.09375 0 3.328125 -0.96875q1.234375 -0.953125 1.234375 -2.671875q0 -1.703125 -1.25 -2.65625q-1.234375 -0.9375 -3.3125 -0.9375z" fill-rule="nonzero"></path><path fill="#5cb900" d="m943.6391 485.50394l0 375.3701l-60.472412 0l0 -375.3701z" fill-rule="evenodd"></path><path fill="#ffffff" d="m919.7954 659.863l-13.296875 4.984375l0 -3.046875l2.953125 -1.0l0 -4.984375l-2.96875 -1.046875l0 -2.953125l13.3125 5.046875l0 3.0zm-3.28125 -1.546875l-4.890625 -1.734375l0 3.453125l4.890625 -1.671875l0 -0.046875zm3.28125 9.389954l-9.0625 2.109375l0 0.03125l9.0625 2.3125l0 2.75l-9.171875 2.28125l0 0.03125l9.171875 2.1875l0 2.859375l-13.3125 -3.578125l0 -2.90625l9.0625 -2.25l0 -0.046875l-9.0625 -2.21875l0 -2.96875l13.3125 -3.53125l0 2.9375zm0.328125 20.499329q0 2.421875 -1.125 3.875q-1.125 1.453125 -3.171875 1.453125l0 -2.828125q1.0 -0.0625 1.5 -0.6875q0.515625 -0.625 0.515625 -1.9375q0 -0.890625 -0.390625 -1.46875q-0.390625 -0.5625 -1.125 -0.5625q-0.5 0 -0.75 0.234375q-0.234375 0.25 -0.515625 0.984375q-0.265625 0.734375 -0.84375 3.203125q-0.40625 1.65625 -1.359375 2.578125q-0.953125 0.9375 -2.421875 0.9375q-1.9375 0 -3.109375 -1.453125q-1.15625 -1.453125 -1.15625 -4.078125q0 -2.515625 1.234375 -4.109375q1.234375 -1.578125 3.421875 -1.578125l0.078125 0l0 2.828125q-1.25 0.015625 -1.859375 0.828125q-0.609375 0.8125 -0.609375 2.125q0 1.1875 0.4375 1.890625q0.4375 0.703125 1.21875 0.703125q0.65625 0 1.0625 -0.546875q0.421875 -0.53125 0.71875 -1.71875q0.34375 -1.53125 0.734375 -2.78125q0.390625 -1.25 1.25 -2.0625q0.875 -0.8125 2.234375 -0.8125q1.796875 0 2.90625 1.421875q1.125 1.4375 1.125 3.5625z" fill-rule="nonzero"></path></g></svg>

