<?xml version="1.0" encoding="UTF-8" standalone="yes"?>
<svg fill="none" stroke-linecap="square" stroke-miterlimit="10" version="1.1" viewBox="0.0 0.0 1447.1522309711286 989.6929133858267" xmlns="http://www.w3.org/2000/svg">
<clipPath id="a">
<path d="m0 0h1447.2v989.69h-1447.2v-989.69z"/>
</clipPath>
<g clip-path="url(#a)">
<path d="m0 0h1447.2v989.69h-1447.2z" fill="#000" fill-opacity="0" fill-rule="evenodd"/>
<path d="m224.51 110.84h978.52v374.9h-978.52z" fill="#000" fill-opacity="0" fill-rule="evenodd"/>
<path d="m224.51 110.84h978.52v374.9h-978.52z" fill-rule="evenodd" stroke="#000" stroke-dasharray="4.0,3.0" stroke-linecap="butt" stroke-linejoin="round"/>
<path d="m335.36 225.18c0-6.6073 5.3562-11.963 11.963-11.963h144.29c3.1729 0 6.2159 1.2604 8.4595 3.504 2.2436 2.2436 3.504 5.2865 3.504 8.4595v47.853c0 6.6073-5.3562 11.964-11.964 11.964h-144.29c-6.6072 0-11.963-5.3562-11.963-11.964z" fill="#fff" fill-rule="evenodd"/>
<path d="m335.36 225.18c0-6.6073 5.3562-11.963 11.963-11.963h144.29c3.1729 0 6.2159 1.2604 8.4595 3.504 2.2436 2.2436 3.504 5.2865 3.504 8.4595v47.853c0 6.6073-5.3562 11.964-11.964 11.964h-144.29c-6.6072 0-11.963-5.3562-11.963-11.964z" fill-rule="evenodd" stroke="#6c0" stroke-linecap="butt" stroke-linejoin="round" stroke-width="3"/>
<path d="m365.09 243.54v1.2812h-5.9844v3.625h5.25v1.2812h-5.25v5.2344h-1.5156v-11.422h7.5zm7.9688 0.26562v1.2031h-4.5781l-0.60938 3.2656 0.03125 0.03125q0.35938-0.39062 0.89062-0.59375 0.54688-0.21875 1.2188-0.21875 1.6562 0 2.6562 1.0312t1 2.8438q0 1.625-1.0938 2.7188-1.0938 1.0781-2.8594 1.0781-1.5156 0-2.5469-0.875-1.0312-0.89062-1.0781-2.375v-0.015625h1.3594q0.0625 0.90625 0.73438 1.4844 0.67188 0.5625 1.6562 0.5625 1.0469 0 1.7188-0.71875t0.67188-1.9688q0-1.1562-0.73438-1.8594-0.73438-0.71875-1.8281-0.71875-0.59375 0-1.125 0.28125-0.53125 0.26562-0.98438 0.79688l-1.1562-0.0625 1.0469-5.8906h5.6094zm8.5781-0.26562v10.141h6.0469v1.2812h-7.5625v-11.422h1.5156zm10.727 2.9531q1.875 0 2.9375 1.2188 1.0781 1.2031 1.0781 3.125t-1.0938 3.125-2.9219 1.2031q-1.7969 0-2.9062-1.1719-1.1094-1.1875-1.1094-3.1562t1.0781-3.1562q1.0938-1.1875 2.9375-1.1875zm-2.5781 4.3438q0 1.4219 0.71875 2.2656 0.73438 0.84375 1.8594 0.84375t1.8438-0.84375q0.73438-0.85938 0.73438-2.2656 0-1.4219-0.73438-2.2812-0.71875-0.85938-1.8594-0.85938-1.0938 0-1.8281 0.84375t-0.73438 2.2969zm11.578-4.3438q1.6875 0 2.3906 0.60938 0.71875 0.59375 0.71875 1.6094 0 4.2969 0 4.7656t0.42188 0.46875q0.09375 0 0.20312-0.015625 0.10938-0.03125 0.21875-0.0625v1.0625q-0.1875 0.10938-0.4375 0.17188t-0.53125 0.0625q-0.5625 0-0.85938-0.3125-0.29688-0.32812-0.29688-0.98438-0.54688 0.64062-1.2812 0.96875t-1.6406 0.32812q-1.2812 0-2.0156-0.60938-0.71875-0.60938-0.71875-1.7188 0-1.125 0.70312-1.7656 0.71875-0.65625 3.3594-0.98438 0.89062-0.125 1.2031-0.34375 0.3125-0.23438 0.3125-0.6875 0-0.6875-0.4375-1.0156-0.4375-0.34375-1.4062-0.34375-1 0-1.5156 0.39062-0.5 0.375-0.53125 1.1719h-1.3594q0.0625-1.375 0.96875-2.0625 0.90625-0.70312 2.5312-0.70312zm-2.3906 6.2344q0 0.57812 0.42188 0.90625 0.42188 0.3125 1.1875 0.3125 1.1406 0 1.8281-0.5625 0.6875-0.57812 0.6875-1.2812v-1.4219q-0.34375 0.25-0.89062 0.34375-0.54688 0.078125-1.4531 0.20312t-1.3438 0.48438-0.4375 1.0156zm15-9.1875v11.422h-1.3594v-1.125h-0.03125q-0.32812 0.64062-1.0312 0.98438-0.6875 0.34375-1.6094 0.34375-1.7344 0-2.7812-1.2031-1.0312-1.2188-1.0312-3.1562 0-1.9219 1-3.1094 1.0156-1.2031 2.7656-1.2031 0.8125 0 1.5469 0.32812t1.1406 0.96875h0.03125v-4.25h1.3594zm-6.4062 7.3438q0 1.3438 0.6875 2.2031 0.70312 0.85938 1.875 0.85938 1.2031 0 1.8594-0.85938 0.67188-0.85938 0.67188-2.25 0-1.4219-0.6875-2.2812-0.67188-0.85938-1.9375-0.85938-1.1719 0-1.8281 0.85938-0.64062 0.84375-0.64062 2.3281zm18.039-7.3438q2.125 0 2.875 0.85938 0.76562 0.84375 0.76562 1.9375 0 0.90625-0.45312 1.5781-0.4375 0.65625-1.25 0.98438v0.03125q1.0625 0.21875 1.625 0.95312t0.5625 1.7969q0 1.3906-0.98438 2.3438-0.96875 0.9375-2.4375 0.9375h-5.5781v-11.422h4.875zm-0.23438 4.9062q1.1406 0 1.75-0.42188 0.60938-0.4375 0.60938-1.4062 0-0.90625-0.51562-1.3438-0.5-0.45312-1.8281-0.45312h-3.1406v3.625h3.125zm0.75 5.2344q0.92188 0 1.5-0.54688 0.57812-0.5625 0.57812-1.5 0-0.96875-0.65625-1.4375t-1.875-0.46875h-3.4219v3.9531h3.875zm8.7266-7.1875q1.6875 0 2.3906 0.60938 0.71875 0.59375 0.71875 1.6094 0 4.2969 0 4.7656t0.42188 0.46875q0.09375 0 0.20312-0.015625 0.10938-0.03125 0.21875-0.0625v1.0625q-0.1875 0.10938-0.4375 0.17188t-0.53125 0.0625q-0.5625 0-0.85938-0.3125-0.29688-0.32812-0.29688-0.98438-0.54688 0.64062-1.2812 0.96875t-1.6406 0.32812q-1.2812 0-2.0156-0.60938-0.71875-0.60938-0.71875-1.7188 0-1.125 0.70312-1.7656 0.71875-0.65625 3.3594-0.98438 0.89062-0.125 1.2031-0.34375 0.3125-0.23438 0.3125-0.6875 0-0.6875-0.4375-1.0156-0.4375-0.34375-1.4062-0.34375-1 0-1.5156 0.39062-0.5 0.375-0.53125 1.1719h-1.3594q0.0625-1.375 0.96875-2.0625 0.90625-0.70312 2.5312-0.70312zm-2.3906 6.2344q0 0.57812 0.42188 0.90625 0.42188 0.3125 1.1875 0.3125 1.1406 0 1.8281-0.5625 0.6875-0.57812 0.6875-1.2812v-1.4219q-0.34375 0.25-0.89062 0.34375-0.54688 0.078125-1.4531 0.20312t-1.3438 0.48438-0.4375 1.0156zm9.0469-9.1875v11.422h-1.3594v-11.422h1.3594zm5.4922 2.9531q1.6875 0 2.3906 0.60938 0.71875 0.59375 0.71875 1.6094 0 4.2969 0 4.7656t0.42188 0.46875q0.09375 0 0.20312-0.015625 0.10938-0.03125 0.21875-0.0625v1.0625q-0.1875 0.10938-0.4375 0.17188t-0.53125 0.0625q-0.5625 0-0.85938-0.3125-0.29688-0.32812-0.29688-0.98438-0.54688 0.64062-1.2812 0.96875t-1.6406 0.32812q-1.2812 0-2.0156-0.60938-0.71875-0.60938-0.71875-1.7188 0-1.125 0.70312-1.7656 0.71875-0.65625 3.3594-0.98438 0.89062-0.125 1.2031-0.34375 0.3125-0.23438 0.3125-0.6875 0-0.6875-0.4375-1.0156-0.4375-0.34375-1.4062-0.34375-1 0-1.5156 0.39062-0.5 0.375-0.53125 1.1719h-1.3594q0.0625-1.375 0.96875-2.0625 0.90625-0.70312 2.5312-0.70312zm-2.3906 6.2344q0 0.57812 0.42188 0.90625 0.42188 0.3125 1.1875 0.3125 1.1406 0 1.8281-0.5625 0.6875-0.57812 0.6875-1.2812v-1.4219q-0.34375 0.25-0.89062 0.34375-0.54688 0.078125-1.4531 0.20312t-1.3438 0.48438-0.4375 1.0156zm11.609-6.2344q1.5 0 2.1719 0.76562t0.67188 2.1875v5.5156h-1.3594v-5.6562q0-0.70312-0.45312-1.1562-0.4375-0.45312-1.2344-0.45312-1.1562 0-1.7969 0.70312t-0.64062 1.8281v4.7344h-1.3594v-8.2812h1.2812v1.3125h0.03125q0.45312-0.76562 1.1094-1.125 0.65625-0.375 1.5781-0.375zm8.3516 0q1.5156 0 2.4531 0.71875 0.95312 0.71875 1.1094 2.125h-1.4062q-0.15625-0.79688-0.70312-1.2188-0.53125-0.42188-1.3438-0.42188-1.2656 0-1.9219 0.84375t-0.65625 2.3906q0 1.375 0.64062 2.2031 0.65625 0.8125 1.7812 0.8125 0.98438 0 1.5625-0.53125t0.70312-1.4844h1.3906q-0.21875 1.5469-1.1562 2.3906t-2.4844 0.84375q-1.8125 0-2.8438-1.1406t-1.0312-3.0938q0-2.0312 1.0469-3.2344t2.8594-1.2031zm8.5781 0q1.7812 0 2.7656 1.2812t0.98438 3.2969v0.15625h-6.2031v0.10938q0 1.1719 0.6875 1.8906t1.8906 0.71875q0.90625 0 1.4375-0.42188 0.54688-0.42188 0.70312-1.1875h1.3438q-0.26562 1.375-1.2031 2.1094-0.92188 0.71875-2.3281 0.71875-1.2969 0-2.2031-0.59375t-1.3438-1.6406q-0.42188-1.0625-0.42188-2.1562 0-1.8281 1.0938-3.0469 1.1094-1.2344 2.7969-1.2344zm-2.4531 3.5312h4.75q-0.0625-1-0.73438-1.6562-0.65625-0.67188-1.6562-0.67188-0.9375 0-1.6094 0.64062-0.65625 0.625-0.75 1.6875zm11.719-3.5312q0.046875 0 0.078125 0 0.046875 0 0.10938 0v1.4375q-1.5312 0-2.2656 0.8125-0.71875 0.8125-0.71875 2.5156v3.7031h-1.3594v-8.2812h1.2812v1.75h0.03125q0.46875-0.98438 1.1719-1.4531 0.70312-0.48438 1.6719-0.48438z" fill="#000"/>
<path d="m419.66 80.774l-0.18896 132.44" fill="#000" fill-opacity="0" fill-rule="evenodd"/>
<path d="m419.66 80.774l-0.1633 114.44" fill-rule="evenodd" stroke="#8e7cc3" stroke-linecap="butt" stroke-linejoin="round" stroke-width="3"/>
<path d="m414.54 195.21l4.9358 13.621 4.9746-13.607z" fill-rule="evenodd" stroke="#8e7cc3" stroke-linecap="butt" stroke-width="3"/>
<path d="m335.36 28.459h168.22v44.976h-168.22z" fill="#5cb900" fill-rule="evenodd"/>
<path d="m372.96 42.614v2.9375h1.9844v1.8125h-1.9844v4.9219q0 0.60938 0.23438 0.84375t0.90625 0.23438q0.23438 0 0.45312-0.015625t0.39062-0.0625v2.1094q-0.32812 0.0625-0.75 0.078125-0.40625 0.015625-0.8125 0.015625-1.75 0-2.4375-0.59375-0.67188-0.59375-0.67188-1.6719v-5.8594h-1.6406v-1.8125h1.6406v-2.9375h2.6875zm7.6929 2.6875q2.1875 0 3.4844 1.5 1.3125 1.4844 1.3125 3.8125l-0.03125 0.5h-7.0781q0.046875 1.2812 0.65625 1.8906t1.75 0.60938q0.73438 0 1.3438-0.375 0.625-0.375 0.79688-0.90625h2.375q-0.54688 1.6719-1.6875 2.5-1.1406 0.8125-2.9219 0.8125-2.2656 0-3.6406-1.4375t-1.375-3.7344q0-2.1875 1.4062-3.6719 1.4062-1.5 3.6094-1.5zm-2.3125 4.1094h4.3906q-0.20312-1.0781-0.71875-1.5781-0.5-0.5-1.4531-0.5-0.98438 0-1.5625 0.5625-0.5625 0.54688-0.65625 1.5156zm11.26-7.5938v13.562h-2.6875v-13.562h2.6875zm4.7317 3.7344v5.6406q0 1.1094 0.39062 1.7188t1.3438 0.60938q1.1094 0 1.5938-0.67188 0.5-0.67188 0.5-2.0469v-5.25h2.7031v9.8281h-2.5781v-1.3594h-0.0625q-0.5 0.8125-1.3125 1.2188-0.79688 0.40625-1.6875 0.40625-1.8281 0-2.7031-0.92188-0.875-0.9375-0.875-3.0156v-6.1562h2.6875zm12.403-0.25q2 0 3.0781 0.79688 1.0938 0.78125 1.25 2.3281h-2.5781q-0.046875-0.70312-0.51562-1.0156t-1.3281-0.3125q-0.78125 0-1.1406 0.23438-0.34375 0.21875-0.34375 0.67188t0.46875 0.75q0.46875 0.28125 1.875 0.5625 2.2656 0.4375 3.0469 1.125 0.78125 0.67188 0.78125 1.7969 0 1.6719-1.2344 2.5469-1.2188 0.85938-3.25 0.85938-2.0469 0-3.2969-0.85938-1.25-0.875-1.3281-2.5938h2.5781q0 0.78125 0.57812 1.2188 0.59375 0.42188 1.4844 0.42188 0.78125 0 1.2656-0.32812 0.5-0.34375 0.5-0.92188 0-0.5-0.64062-0.82812t-2.3438-0.6875q-1.6875-0.32812-2.4375-0.9375-0.75-0.625-0.75-1.6875 0-1.5625 1.0938-2.3438 1.1094-0.79688 3.1875-0.79688zm9.0829 7.1562v2.9219h-2.9844v-2.9219h2.9844zm6.7927-7.1562q1.9062 0 3.2031 0.98438 1.3125 0.96875 1.4219 2.7344h-2.6562q-0.10938-0.84375-0.60938-1.2656t-1.375-0.42188q-1.0938 0-1.7031 0.89062-0.59375 0.89062-0.59375 2.2969t0.59375 2.25 1.6406 0.84375q0.90625 0 1.4531-0.51562 0.5625-0.51562 0.70312-1.4844h2.5938q-0.26562 1.9531-1.5156 3-1.25 1.0312-3.2188 1.0312-2.1875 0-3.5781-1.4062-1.375-1.4062-1.375-3.625 0-2.3906 1.3594-3.8438 1.3594-1.4688 3.6562-1.4688zm10.775 0q2.3125 0 3.7031 1.4219t1.3906 3.75q0 2.3594-1.4062 3.7656t-3.6875 1.4062-3.6875-1.4062q-1.3906-1.4219-1.3906-3.7656 0-2.3281 1.375-3.75t3.7031-1.4219zm-2.375 5.1719q0 1.5625 0.625 2.3594 0.64062 0.78125 1.75 0.78125 1.1562 0 1.7656-0.8125 0.625-0.82812 0.625-2.3281 0-1.4531-0.60938-2.2969-0.59375-0.84375-1.7969-0.84375-1.0938 0-1.7344 0.78125-0.625 0.78125-0.625 2.3594zm14.662-5.1719q1.0938 0 1.8125 0.42188t1.0625 1.2031q0.54688-0.78125 1.3125-1.2031t1.6562-0.42188q1.7812 0 2.6719 0.90625 0.90625 0.90625 0.90625 2.5156v6.6562h-2.6875v-5.6719q0-1.3438-0.40625-1.8125-0.39062-0.46875-1.25-0.46875-0.90625 0-1.3594 0.60938t-0.45312 1.7812v5.5625h-2.7031v-6.0469q0-0.96875-0.375-1.4375-0.35938-0.46875-1.25-0.46875-0.76562 0-1.2969 0.59375t-0.53125 1.5938v5.7656h-2.6875v-9.8281h2.5312v1.3438h0.046875q0.57812-0.8125 1.3281-1.2031t1.6719-0.39062zm17.461-3.8125l-5.2969 14.219h-2.1719l5.3125-14.219h2.1562zm4.2826 0.32812v2.375l2.1875-0.84375 0.51562 1.4688-2.2344 0.73438 1.3906 1.875-1.25 0.92188-1.3906-1.9531-1.3438 1.9531-1.2656-0.92188 1.4062-1.875-2.2031-0.73438 0.5-1.4688 2.1562 0.84375v-2.375h1.5312z" fill="#fff"/>
<path d="m679.73 225.18c0-6.6073 5.3562-11.963 11.964-11.963h144.29c3.1729 0 6.2159 1.2604 8.4595 3.504 2.2436 2.2436 3.504 5.2865 3.504 8.4595v47.853c0 6.6073-5.3563 11.964-11.964 11.964h-144.29c-6.6073 0-11.964-5.3562-11.964-11.964z" fill="#fff" fill-rule="evenodd"/>
<path d="m679.73 225.18c0-6.6073 5.3562-11.963 11.964-11.963h144.29c3.1729 0 6.2159 1.2604 8.4595 3.504 2.2436 2.2436 3.504 5.2865 3.504 8.4595v47.853c0 6.6073-5.3563 11.964-11.964 11.964h-144.29c-6.6073 0-11.964-5.3562-11.964-11.964z" fill-rule="evenodd" stroke="#6c0" stroke-linecap="butt" stroke-linejoin="round" stroke-width="3"/>
<path d="m711.35 234.04l4.4688 11.422h-1.6875l-1.2344-3.4375h-4.8438l-1.2812 3.4375h-1.5625l4.4688-11.422h1.6719zm-0.875 1.375l-1.9375 5.3281h3.875l-1.9062-5.3281h-0.03125zm10.32 1.5781q1.7656 0 2.7812 1.2188 1.0312 1.2188 1.0312 3.1406t-1.0156 3.125q-1.0156 1.1875-2.7656 1.1875-0.76562 0-1.5156-0.32812-0.73438-0.32812-1.1562-0.98438h-0.03125v4.2812h-1.3594v-11.453h1.3594v1.125h0.03125q0.3125-0.64062 1-0.96875 0.70312-0.34375 1.6406-0.34375zm-2.7188 4.3281q0 1.4375 0.6875 2.2812 0.70312 0.84375 1.9219 0.84375 1.1719 0 1.8125-0.84375 0.65625-0.84375 0.65625-2.3438 0-1.3438-0.6875-2.2031-0.67188-0.85938-1.875-0.85938t-1.8594 0.875-0.65625 2.25zm11.5-4.3281q1.6875 0 2.3906 0.60938 0.71875 0.59375 0.71875 1.6094 0 4.2969 0 4.7656t0.42188 0.46875q0.09375 0 0.20312-0.015625 0.10938-0.03125 0.21875-0.0625v1.0625q-0.1875 0.10938-0.4375 0.17188t-0.53125 0.0625q-0.5625 0-0.85938-0.3125-0.29688-0.32812-0.29688-0.98438-0.54688 0.64062-1.2812 0.96875t-1.6406 0.32812q-1.2812 0-2.0156-0.60938-0.71875-0.60938-0.71875-1.7188 0-1.125 0.70312-1.7656 0.71875-0.65625 3.3594-0.98438 0.89062-0.125 1.2031-0.34375 0.3125-0.23438 0.3125-0.6875 0-0.6875-0.4375-1.0156-0.4375-0.34375-1.4062-0.34375-1 0-1.5156 0.39062-0.5 0.375-0.53125 1.1719h-1.3594q0.0625-1.375 0.96875-2.0625 0.90625-0.70312 2.5312-0.70312zm-2.3906 6.2344q0 0.57812 0.42188 0.90625 0.42188 0.3125 1.1875 0.3125 1.1406 0 1.8281-0.5625 0.6875-0.57812 0.6875-1.2812v-1.4219q-0.34375 0.25-0.89062 0.34375-0.54688 0.078125-1.4531 0.20312t-1.3438 0.48438-0.4375 1.0156zm11.062-6.2344q1.5156 0 2.4531 0.71875 0.95312 0.71875 1.1094 2.125h-1.4062q-0.15625-0.79688-0.70312-1.2188-0.53125-0.42188-1.3438-0.42188-1.2656 0-1.9219 0.84375t-0.65625 2.3906q0 1.375 0.64062 2.2031 0.65625 0.8125 1.7812 0.8125 0.98438 0 1.5625-0.53125t0.70312-1.4844h1.3906q-0.21875 1.5469-1.1562 2.3906t-2.4844 0.84375q-1.8125 0-2.8438-1.1406t-1.0312-3.0938q0-2.0312 1.0469-3.2344t2.8594-1.2031zm6.5-2.9531v4.3594h0.03125q0.29688-0.65625 1-1.0312 0.71875-0.375 1.6094-0.375 1.5 0 2.1719 0.76562t0.67188 2.1875v5.5156h-1.3594v-5.6562q0-0.70312-0.45312-1.1562-0.4375-0.45312-1.2344-0.45312-1.1562 0-1.7969 0.70312t-0.64062 1.8281v4.7344h-1.3594v-11.422h1.3594zm10.977 2.9531q1.7812 0 2.7656 1.2812t0.98438 3.2969v0.15625h-6.2031v0.10938q0 1.1719 0.6875 1.8906t1.8906 0.71875q0.90625 0 1.4375-0.42188 0.54688-0.42188 0.70312-1.1875h1.3438q-0.26562 1.375-1.2031 2.1094-0.92188 0.71875-2.3281 0.71875-1.2969 0-2.2031-0.59375t-1.3438-1.6406q-0.42188-1.0625-0.42188-2.1562 0-1.8281 1.0938-3.0469 1.1094-1.2344 2.7969-1.2344zm-2.4531 3.5312h4.75q-0.0625-1-0.73438-1.6562-0.65625-0.67188-1.6562-0.67188-0.9375 0-1.6094 0.64062-0.65625 0.625-0.75 1.6875zm17.727-6.4844q1.4844 0 2.4375 0.79688 0.95312 0.78125 0.95312 2.1875 0 1.125-0.5 1.875-0.48438 0.73438-1.4844 1.0156v0.03125q0.875 0.17188 1.2812 0.8125t0.46875 2.1875q0.046875 1 0.1875 1.5781 0.15625 0.5625 0.45312 0.9375h-1.7031q-0.14062-0.1875-0.1875-0.375-0.03125-0.1875-0.078125-0.5l-0.0625-1.2656q-0.015625-0.875-0.375-1.7812-0.35938-0.92188-1.5625-0.96875h-3.7656v4.8906h-1.5156v-11.422h5.4531zm-0.6875 5.2656q1.2656 0 1.9062-0.5 0.65625-0.5 0.65625-1.5469 0-0.92188-0.51562-1.4219-0.51562-0.51562-1.4531-0.51562h-3.8438v3.9844h3.25zm9.4141-2.3125q1.7812 0 2.7656 1.2812t0.98438 3.2969v0.15625h-6.2031v0.10938q0 1.1719 0.6875 1.8906t1.8906 0.71875q0.90625 0 1.4375-0.42188 0.54688-0.42188 0.70312-1.1875h1.3438q-0.26562 1.375-1.2031 2.1094-0.92188 0.71875-2.3281 0.71875-1.2969 0-2.2031-0.59375t-1.3438-1.6406q-0.42188-1.0625-0.42188-2.1562 0-1.8281 1.0938-3.0469 1.1094-1.2344 2.7969-1.2344zm-2.4531 3.5312h4.75q-0.0625-1-0.73438-1.6562-0.65625-0.67188-1.6562-0.67188-0.9375 0-1.6094 0.64062-0.65625 0.625-0.75 1.6875zm8.3281-3.3438l2.3125 6.9062h0.03125l2.2656-6.9062h1.4219l-3.0312 8.2812h-1.4531l-3.0625-8.2812h1.5156zm10.719-0.1875q1.7812 0 2.7656 1.2812t0.98438 3.2969v0.15625h-6.2031v0.10938q0 1.1719 0.6875 1.8906t1.8906 0.71875q0.90625 0 1.4375-0.42188 0.54688-0.42188 0.70312-1.1875h1.3438q-0.26562 1.375-1.2031 2.1094-0.92188 0.71875-2.3281 0.71875-1.2969 0-2.2031-0.59375t-1.3438-1.6406q-0.42188-1.0625-0.42188-2.1562 0-1.8281 1.0938-3.0469 1.1094-1.2344 2.7969-1.2344zm-2.4531 3.5312h4.75q-0.0625-1-0.73438-1.6562-0.65625-0.67188-1.6562-0.67188-0.9375 0-1.6094 0.64062-0.65625 0.625-0.75 1.6875zm11.719-3.5312q0.046875 0 0.078125 0 0.046875 0 0.10938 0v1.4375q-1.5312 0-2.2656 0.8125-0.71875 0.8125-0.71875 2.5156v3.7031h-1.3594v-8.2812h1.2812v1.75h0.03125q0.46875-0.98438 1.1719-1.4531 0.70312-0.48438 1.6719-0.48438zm3.9688 0q1.6719 0 2.4844 0.65625 0.8125 0.64062 0.89062 1.9375h-1.3594v-0.015625q-0.0625-0.65625-0.57812-1.0156t-1.3438-0.35938q-0.8125 0-1.2969 0.28125-0.46875 0.26562-0.46875 0.76562 0 0.45312 0.42188 0.75 0.42188 0.28125 1.2656 0.46875l1.2812 0.28125q1.2031 0.26562 1.8281 0.82812 0.625 0.54688 0.625 1.4688 0 1.2188-0.95312 1.9219-0.9375 0.70312-2.5781 0.70312-1.5781 0-2.5156-0.71875-0.92188-0.71875-0.98438-2.0938h1.3594q0.03125 0.76562 0.60938 1.1875 0.59375 0.40625 1.6094 0.40625 0.98438 0 1.4844-0.3125 0.51562-0.3125 0.51562-0.92188 0-0.54688-0.5-0.875t-2.0625-0.64062q-1.5625-0.29688-2.2031-0.85938t-0.64062-1.4844q0-1.0938 0.875-1.7188 0.89062-0.64062 2.2344-0.64062zm8.6875 0q1.7812 0 2.7656 1.2812t0.98438 3.2969v0.15625h-6.2031v0.10938q0 1.1719 0.6875 1.8906t1.8906 0.71875q0.90625 0 1.4375-0.42188 0.54688-0.42188 0.70312-1.1875h1.3438q-0.26562 1.375-1.2031 2.1094-0.92188 0.71875-2.3281 0.71875-1.2969 0-2.2031-0.59375t-1.3438-1.6406q-0.42188-1.0625-0.42188-2.1562 0-1.8281 1.0938-3.0469 1.1094-1.2344 2.7969-1.2344zm-2.4531 3.5312h4.75q-0.0625-1-0.73438-1.6562-0.65625-0.67188-1.6562-0.67188-0.9375 0-1.6094 0.64062-0.65625 0.625-0.75 1.6875z" fill="#000"/>
<path d="m743.51 253.04q1.5781 0 2.5 0.85938 0.9375 0.84375 0.9375 2.5156 0 1.6719-0.9375 2.5312-0.92188 0.84375-2.3906 0.84375h-3.6719v4.6719h-1.5156v-11.422h5.0781zm-0.42188 5.4688q1.0938 0 1.7188-0.51562t0.625-1.5781q0-1.0625-0.625-1.5781-0.60938-0.51562-1.8125-0.51562h-3.0469v4.1875h3.1406zm9.6016-2.5156q0.046875 0 0.078125 0 0.046875 0 0.10938 0v1.4375q-1.5312 0-2.2656 0.8125-0.71875 0.8125-0.71875 2.5156v3.7031h-1.3594v-8.2812h1.2812v1.75h0.03125q0.46875-0.98438 1.1719-1.4531 0.70312-0.48439 1.6719-0.48439zm4.7812 0q1.875 0 2.9375 1.2188 1.0781 1.2031 1.0781 3.125t-1.0938 3.125-2.9219 1.2031q-1.7969 0-2.9062-1.1719-1.1094-1.1875-1.1094-3.1562t1.0781-3.1562q1.0938-1.1875 2.9375-1.1875zm-2.5781 4.3438q0 1.4219 0.71875 2.2656 0.73438 0.84375 1.8594 0.84375t1.8438-0.84375q0.73438-0.85938 0.73438-2.2656 0-1.4219-0.73438-2.2812-0.71875-0.85938-1.8594-0.85938-1.0938 0-1.8281 0.84375t-0.73438 2.2969zm9.2812-4.1562l1.9844 2.8906h0.015625l2.0469-2.8906h1.6406l-2.8438 3.8125 3.1875 4.4688h-1.7344l-2.3125-3.4219-2.2969 3.4219h-1.6562l3.1094-4.3594-2.875-3.9219h1.7344zm8.6484-3.1406v1.6562h-1.3594v-1.6562h1.3594zm0 3.1406v8.2812h-1.3594v-8.2812h1.3594zm5.5547-0.18752q1.7812 0 2.7656 1.2813 0.98438 1.2812 0.98438 3.2969v0.15625h-6.2031v0.10938q0 1.1719 0.6875 1.8906t1.8906 0.71875q0.90625 0 1.4375-0.42188 0.54688-0.42188 0.70312-1.1875h1.3438q-0.26562 1.375-1.2031 2.1094-0.92188 0.71875-2.3281 0.71875-1.2969 0-2.2031-0.59375t-1.3438-1.6406q-0.42188-1.0625-0.42188-2.1562 0-1.8281 1.0938-3.0469 1.1094-1.2344 2.7969-1.2344zm-2.4531 3.5313h4.75q-0.0625-1-0.73438-1.6562-0.65625-0.67188-1.6562-0.67188-0.9375 0-1.6094 0.64062-0.65625 0.625-0.75 1.6875zm10.359-3.5313q1.6719 0 2.4844 0.65627 0.8125 0.64062 0.89062 1.9375h-1.3594v-0.015625q-0.0625-0.65625-0.57812-1.0156t-1.3438-0.35938q-0.8125 0-1.2969 0.28125-0.46875 0.26562-0.46875 0.76562 0 0.45312 0.42188 0.75 0.42188 0.28125 1.2656 0.46875l1.2812 0.28125q1.2031 0.26562 1.8281 0.82812 0.625 0.54688 0.625 1.4688 0 1.2188-0.95312 1.9219-0.9375 0.70312-2.5781 0.70312-1.5781 0-2.5156-0.71875-0.92188-0.71875-0.98438-2.0938h1.3594q0.03125 0.76562 0.60938 1.1875 0.59375 0.40625 1.6094 0.40625 0.98438 0 1.4844-0.3125 0.51562-0.3125 0.51562-0.92188 0-0.54688-0.5-0.875t-2.0625-0.64062q-1.5625-0.29688-2.2031-0.85938t-0.64062-1.4844q0-1.0938 0.875-1.7188 0.89062-0.64064 2.2344-0.64064z" fill="#000"/>
<path d="m503.58 249.1h176.16" fill="#000" fill-opacity="0" fill-rule="evenodd"/>
<path d="m503.58 249.1h158.16" fill-rule="evenodd" stroke="#8e7cc3" stroke-linecap="butt" stroke-linejoin="round" stroke-width="3"/>
<path d="m661.74 254.06l13.614-4.9552-13.614-4.9552z" fill-rule="evenodd" stroke="#8e7cc3" stroke-linecap="butt" stroke-width="3"/>
<path d="m522.41 158.04h138.49v29.386h-138.49z" fill="#000" fill-opacity="0" fill-rule="evenodd"/>
<path d="m552.71 170.98v7.3594q0 1.3906 0.79688 2.2188 0.8125 0.82812 2.375 0.82812 1.4844 0 2.2344-0.8125 0.75-0.82812 0.75-2.2344v-7.3594h1.5156v7.375q0 2.0156-1.1406 3.1719-1.125 1.1562-3.3594 1.1562-2.3281 0-3.5156-1.125-1.1719-1.1406-1.1719-3.2031v-7.375h1.5156zm13.883 2.9531q1.5 0 2.1719 0.76562t0.67188 2.1875v5.5156h-1.3594v-5.6562q0-0.70312-0.45312-1.1562-0.4375-0.45312-1.2344-0.45312-1.1562 0-1.7969 0.70312t-0.64062 1.8281v4.7344h-1.3594v-8.2812h1.2812v1.3125h0.03125q0.45312-0.76562 1.1094-1.125 0.65625-0.375 1.5781-0.375zm8.8828 0q0.90625 0 1.4688 0.375 0.57812 0.35938 0.79688 1.0312 0.42188-0.65625 1.0938-1.0312 0.6875-0.375 1.5156-0.375 1.3906 0 2.0625 0.64062 0.67188 0.625 0.67188 1.7031v6.125h-1.3594v-5.4844q0-0.89062-0.375-1.3281-0.375-0.45312-1.2188-0.45312-1.0156 0-1.5938 0.59375-0.5625 0.59375-0.5625 1.4688v5.2031h-1.375v-5.4844q0-0.89062-0.375-1.3281-0.375-0.45312-1.1719-0.45312-0.64062 0-1.1406 0.3125t-0.78125 0.85938q-0.28125 0.53125-0.28125 0.90625v5.1875h-1.3594v-8.2812h1.2812v1.2188h0.03125q0.46875-0.70312 1.125-1.0469 0.67188-0.35938 1.5469-0.35938zm13.039 0q1.6875 0 2.3906 0.60938 0.71875 0.59375 0.71875 1.6094 0 4.2969 0 4.7656t0.42188 0.46875q0.09375 0 0.20312-0.015625 0.10938-0.03125 0.21875-0.0625v1.0625q-0.1875 0.10938-0.4375 0.17188t-0.53125 0.0625q-0.5625 0-0.85938-0.3125-0.29688-0.32812-0.29688-0.98438-0.54688 0.64062-1.2812 0.96875t-1.6406 0.32812q-1.2812 0-2.0156-0.60938-0.71875-0.60938-0.71875-1.7188 0-1.125 0.70312-1.7656 0.71875-0.65625 3.3594-0.98438 0.89062-0.125 1.2031-0.34375 0.3125-0.23438 0.3125-0.6875 0-0.6875-0.4375-1.0156-0.4375-0.34375-1.4062-0.34375-1 0-1.5156 0.39062-0.5 0.375-0.53125 1.1719h-1.3594q0.0625-1.375 0.96875-2.0625 0.90625-0.70312 2.5312-0.70312zm-2.3906 6.2344q0 0.57812 0.42188 0.90625 0.42188 0.3125 1.1875 0.3125 1.1406 0 1.8281-0.5625 0.6875-0.57812 0.6875-1.2812v-1.4219q-0.34375 0.25-0.89062 0.34375-0.54688 0.078125-1.4531 0.20312t-1.3438 0.48438-0.4375 1.0156zm9.5-8.5156v2.4688h1.6406v1.2031h-1.6406v5.1875q0 0.60938 0.40625 0.65625 0.40625 0.03125 0.85938 0.03125h0.375v1.2031h-1.125q-1.1094 0-1.5-0.39062-0.375-0.40625-0.375-1.3438v-5.3438h-1.4219v-1.2031h1.4219v-2.4688h1.3594zm6.6016 2.2812q1.5156 0 2.4531 0.71875 0.95312 0.71875 1.1094 2.125h-1.4062q-0.15625-0.79688-0.70312-1.2188-0.53125-0.42188-1.3438-0.42188-1.2656 0-1.9219 0.84375t-0.65625 2.3906q0 1.375 0.64062 2.2031 0.65625 0.8125 1.7812 0.8125 0.98438 0 1.5625-0.53125t0.70312-1.4844h1.3906q-0.21875 1.5469-1.1562 2.3906t-2.4844 0.84375q-1.8125 0-2.8438-1.1406t-1.0312-3.0938q0-2.0312 1.0469-3.2344t2.8594-1.2031zm6.5-2.9531v4.3594h0.03125q0.29688-0.65625 1-1.0312 0.71875-0.375 1.6094-0.375 1.5 0 2.1719 0.76562t0.67188 2.1875v5.5156h-1.3594v-5.6562q0-0.70312-0.45312-1.1562-0.4375-0.45312-1.2344-0.45312-1.1562 0-1.7969 0.70312t-0.64062 1.8281v4.7344h-1.3594v-11.422h1.3594zm10.977 2.9531q1.7812 0 2.7656 1.2812t0.98438 3.2969v0.15625h-6.2031v0.10938q0 1.1719 0.6875 1.8906t1.8906 0.71875q0.90625 0 1.4375-0.42188 0.54688-0.42188 0.70312-1.1875h1.3438q-0.26562 1.375-1.2031 2.1094-0.92188 0.71875-2.3281 0.71875-1.2969 0-2.2031-0.59375t-1.3438-1.6406q-0.42188-1.0625-0.42188-2.1562 0-1.8281 1.0938-3.0469 1.1094-1.2344 2.7969-1.2344zm-2.4531 3.5312h4.75q-0.0625-1-0.73438-1.6562-0.65625-0.67188-1.6562-0.67188-0.9375 0-1.6094 0.64062-0.65625 0.625-0.75 1.6875zm15-6.4844v11.422h-1.3594v-1.125h-0.03125q-0.32812 0.64062-1.0312 0.98438-0.6875 0.34375-1.6094 0.34375-1.7344 0-2.7812-1.2031-1.0312-1.2188-1.0312-3.1562 0-1.9219 1-3.1094 1.0156-1.2031 2.7656-1.2031 0.8125 0 1.5469 0.32812t1.1406 0.96875h0.03125v-4.25h1.3594zm-6.4062 7.3438q0 1.3438 0.6875 2.2031 0.70312 0.85938 1.875 0.85938 1.2031 0 1.8594-0.85938 0.67188-0.85938 0.67188-2.25 0-1.4219-0.6875-2.2812-0.67188-0.85938-1.9375-0.85938-1.1719 0-1.8281 0.85938-0.64062 0.84375-0.64062 2.3281z" fill="#000"/>
<path d="m554.12 193.65v2.4688h1.6406v1.2031h-1.6406v5.1875q0 0.60938 0.40625 0.65625 0.40625 0.03125 0.85938 0.03125h0.375v1.2031h-1.125q-1.1094 0-1.5-0.39062-0.375-0.40625-0.375-1.3438v-5.3438h-1.4219v-1.2031h1.4219v-2.4688h1.3594zm6.5859 2.2812q1.7812 0 2.7656 1.2812t0.98438 3.2969v0.15625h-6.2031v0.10938q0 1.1719 0.6875 1.8906t1.8906 0.71875q0.90625 0 1.4375-0.42188 0.54688-0.42188 0.70312-1.1875h1.3438q-0.26562 1.375-1.2031 2.1094-0.92188 0.71875-2.3281 0.71875-1.2969 0-2.2031-0.59375t-1.3438-1.6406q-0.42188-1.0625-0.42188-2.1562 0-1.8281 1.0938-3.0469 1.1094-1.2344 2.7969-1.2344zm-2.4531 3.5312h4.75q-0.0625-1-0.73438-1.6562-0.65625-0.67188-1.6562-0.67188-0.9375 0-1.6094 0.64062-0.65625 0.625-0.75 1.6875zm9.0469-6.4844v11.422h-1.3594v-11.422h1.3594zm3.4766 3.1406v5.6406q0 0.70312 0.4375 1.1719 0.45312 0.45312 1.25 0.45312 1.1719 0 1.7969-0.70312 0.64062-0.71875 0.64062-1.8281v-4.7344h1.3594v8.2812h-1.2812v-1.3125h-0.03125q-0.45312 0.78125-1.1406 1.1562-0.67188 0.35938-1.5469 0.35938-1.4531 0-2.1562-0.75-0.6875-0.75-0.6875-2.2188v-5.5156h1.3594zm10.289-0.1875q1.6719 0 2.4844 0.65625 0.8125 0.64062 0.89062 1.9375h-1.3594v-0.015625q-0.0625-0.65625-0.57812-1.0156t-1.3438-0.35938q-0.8125 0-1.2969 0.28125-0.46875 0.26562-0.46875 0.76562 0 0.45312 0.42188 0.75 0.42188 0.28125 1.2656 0.46875l1.2812 0.28125q1.2031 0.26562 1.8281 0.82812 0.625 0.54688 0.625 1.4688 0 1.2188-0.95312 1.9219-0.9375 0.70312-2.5781 0.70312-1.5781 0-2.5156-0.71875-0.92188-0.71875-0.98438-2.0938h1.3594q0.03125 0.76562 0.60938 1.1875 0.59375 0.40625 1.6094 0.40625 0.98438 0 1.4844-0.3125 0.51562-0.3125 0.51562-0.92188 0-0.54688-0.5-0.875t-2.0625-0.64062q-1.5625-0.29688-2.2031-0.85938t-0.64062-1.4844q0-1.0938 0.875-1.7188 0.89062-0.64062 2.2344-0.64062zm7.3281 6.6875v1.7812h-1.7812v-1.7812h1.7812zm5.8203-6.6875q1.5156 0 2.4531 0.71875 0.95312 0.71875 1.1094 2.125h-1.4062q-0.15625-0.79688-0.70312-1.2188-0.53125-0.42188-1.3438-0.42188-1.2656 0-1.9219 0.84375t-0.65625 2.3906q0 1.375 0.64062 2.2031 0.65625 0.8125 1.7812 0.8125 0.98438 0 1.5625-0.53125t0.70312-1.4844h1.3906q-0.21875 1.5469-1.1562 2.3906t-2.4844 0.84375q-1.8125 0-2.8438-1.1406t-1.0312-3.0938q0-2.0312 1.0469-3.2344t2.8594-1.2031zm8.7031 0q1.875 0 2.9375 1.2188 1.0781 1.2031 1.0781 3.125t-1.0938 3.125-2.9219 1.2031q-1.7969 0-2.9062-1.1719-1.1094-1.1875-1.1094-3.1562t1.0781-3.1562q1.0938-1.1875 2.9375-1.1875zm-2.5781 4.3438q0 1.4219 0.71875 2.2656 0.73438 0.84375 1.8594 0.84375t1.8438-0.84375q0.73438-0.85938 0.73438-2.2656 0-1.4219-0.73438-2.2812-0.71875-0.85938-1.8594-0.85938-1.0938 0-1.8281 0.84375t-0.73438 2.2969zm12.188-4.3438q0.90625 0 1.4688 0.375 0.57812 0.35938 0.79688 1.0312 0.42188-0.65625 1.0938-1.0312 0.6875-0.375 1.5156-0.375 1.3906 0 2.0625 0.64062 0.67188 0.625 0.67188 1.7031v6.125h-1.3594v-5.4844q0-0.89062-0.375-1.3281-0.375-0.45312-1.2188-0.45312-1.0156 0-1.5938 0.59375-0.5625 0.59375-0.5625 1.4688v5.2031h-1.375v-5.4844q0-0.89062-0.375-1.3281-0.375-0.45312-1.1719-0.45312-0.64062 0-1.1406 0.3125t-0.78125 0.85938q-0.28125 0.53125-0.28125 0.90625v5.1875h-1.3594v-8.2812h1.2812v1.2188h0.03125q0.46875-0.70312 1.125-1.0469 0.67188-0.35938 1.5469-0.35938zm14.258-3.2344l-4.7344 11.984h-1.1875l4.75-11.984h1.1719zm2.0781 0.28125h0.84375v1.7969l1.7188-0.64062 0.3125 0.78125-1.7344 0.59375 1.0469 1.4688-0.65625 0.48438-1.1094-1.5312-1.0312 1.5312-0.71875-0.48438 1.0312-1.4688-1.6875-0.59375 0.28125-0.78125 1.7031 0.64062v-1.7969z" fill="#000"/>
<path d="m574.27 217.93q0.046875 0 0.078125 0 0.046875 0 0.10938 0v1.4375q-1.5312 0-2.2656 0.8125-0.71875 0.8125-0.71875 2.5156v3.7031h-1.3594v-8.2812h1.2812v1.75h0.03125q0.46875-0.98438 1.1719-1.4531 0.70312-0.48438 1.6719-0.48438zm4.7812 0q1.875 0 2.9375 1.2188 1.0781 1.2031 1.0781 3.125t-1.0938 3.125-2.9219 1.2031q-1.7969 0-2.9062-1.1719-1.1094-1.1875-1.1094-3.1562t1.0781-3.1562q1.0938-1.1875 2.9375-1.1875zm-2.5781 4.3438q0 1.4219 0.71875 2.2656 0.73438 0.84375 1.8594 0.84375t1.8438-0.84375q0.73438-0.85938 0.73438-2.2656 0-1.4219-0.73438-2.2812-0.71875-0.85938-1.8594-0.85938-1.0938 0-1.8281 0.84375t-0.73438 2.2969zm9.5625-4.1562v5.6406q0 0.70312 0.4375 1.1719 0.45312 0.45312 1.25 0.45312 1.1719 0 1.7969-0.70312 0.64062-0.71875 0.64062-1.8281v-4.7344h1.3594v8.2812h-1.2812v-1.3125h-0.03125q-0.45312 0.78125-1.1406 1.1562-0.67188 0.35938-1.5469 0.35938-1.4531 0-2.1562-0.75-0.6875-0.75-0.6875-2.2188v-5.5156h1.3594zm9.4297-2.4688v2.4688h1.6406v1.2031h-1.6406v5.1875q0 0.60938 0.40625 0.65625 0.40625 0.03125 0.85938 0.03125h0.375v1.2031h-1.125q-1.1094 0-1.5-0.39062-0.375-0.40625-0.375-1.3438v-5.3438h-1.4219v-1.2031h1.4219v-2.4688h1.3594zm6.5859 2.2812q1.7812 0 2.7656 1.2812t0.98438 3.2969v0.15625h-6.2031v0.10938q0 1.1719 0.6875 1.8906t1.8906 0.71875q0.90625 0 1.4375-0.42188 0.54688-0.42188 0.70312-1.1875h1.3438q-0.26562 1.375-1.2031 2.1094-0.92188 0.71875-2.3281 0.71875-1.2969 0-2.2031-0.59375t-1.3438-1.6406q-0.42188-1.0625-0.42188-2.1562 0-1.8281 1.0938-3.0469 1.1094-1.2344 2.7969-1.2344zm-2.4531 3.5312h4.75q-0.0625-1-0.73438-1.6562-0.65625-0.67188-1.6562-0.67188-0.9375 0-1.6094 0.64062-0.65625 0.625-0.75 1.6875zm10.359-3.5312q1.6719 0 2.4844 0.65625 0.8125 0.64062 0.89062 1.9375h-1.3594v-0.015625q-0.0625-0.65625-0.57812-1.0156t-1.3438-0.35938q-0.8125 0-1.2969 0.28125-0.46875 0.26562-0.46875 0.76562 0 0.45312 0.42188 0.75 0.42188 0.28125 1.2656 0.46875l1.2812 0.28125q1.2031 0.26562 1.8281 0.82812 0.625 0.54688 0.625 1.4688 0 1.2188-0.95312 1.9219-0.9375 0.70312-2.5781 0.70312-1.5781 0-2.5156-0.71875-0.92188-0.71875-0.98438-2.0938h1.3594q0.03125 0.76562 0.60938 1.1875 0.59375 0.40625 1.6094 0.40625 0.98438 0 1.4844-0.3125 0.51562-0.3125 0.51562-0.92188 0-0.54688-0.5-0.875t-2.0625-0.64062q-1.5625-0.29688-2.2031-0.85938t-0.64062-1.4844q0-1.0938 0.875-1.7188 0.89062-0.64062 2.2344-0.64062z" fill="#000"/>
<path d="m967.45 144.22c0-6.6073 5.3563-11.964 11.964-11.964h144.29c3.1729 0 6.2158 1.2604 8.4595 3.504 2.2435 2.2436 3.504 5.2865 3.504 8.4595v47.853c0 6.6073-5.3562 11.963-11.964 11.963h-144.29c-6.6072 0-11.964-5.3562-11.964-11.963z" fill="#fff" fill-rule="evenodd"/>
<path d="m967.45 144.22c0-6.6073 5.3563-11.964 11.964-11.964h144.29c3.1729 0 6.2158 1.2604 8.4595 3.504 2.2435 2.2436 3.504 5.2865 3.504 8.4595v47.853c0 6.6073-5.3562 11.963-11.964 11.963h-144.29c-6.6072 0-11.964-5.3562-11.964-11.963z" fill-rule="evenodd" stroke="#6c0" stroke-linecap="butt" stroke-linejoin="round" stroke-width="3"/>
<path d="m1014.5 152.8q1.9062 0 3.1719 0.98438 1.2812 0.98438 1.5312 2.7344h-1.5156q-0.25-1.1719-1.0938-1.7969-0.84375-0.64062-2.1094-0.64062-1.8125 0-2.8438 1.2812-1.0156 1.2812-1.0156 3.3438 0 2.1875 1 3.4844 1.0156 1.2969 2.875 1.2969 1.4062 0 2.2969-0.875 0.89062-0.89062 1-2.4219h1.5312q-0.25 2.2188-1.5469 3.4062t-3.4062 1.1875q-2.4531 0-3.875-1.625-1.4062-1.6406-1.4062-4.3438 0-2.6562 1.4531-4.3281 1.4688-1.6875 3.9531-1.6875zm7.9297 0.28125v11.422h-1.3594v-11.422h1.3594zm5.4922 2.9531q1.6875 0 2.3906 0.60938 0.71875 0.59375 0.71875 1.6094 0 4.2969 0 4.7656t0.42188 0.46875q0.09375 0 0.20312-0.015625 0.10938-0.03125 0.21875-0.0625v1.0625q-0.1875 0.10938-0.4375 0.17188t-0.53125 0.0625q-0.5625 0-0.85938-0.3125-0.29688-0.32812-0.29688-0.98438-0.54688 0.64062-1.2812 0.96875t-1.6406 0.32812q-1.2812 0-2.0156-0.60938-0.71875-0.60938-0.71875-1.7188 0-1.125 0.70312-1.7656 0.71875-0.65625 3.3594-0.98438 0.89062-0.125 1.2031-0.34375 0.3125-0.23438 0.3125-0.6875 0-0.6875-0.4375-1.0156-0.4375-0.34375-1.4062-0.34375-1 0-1.5156 0.39062-0.5 0.375-0.53125 1.1719h-1.3594q0.0625-1.375 0.96875-2.0625 0.90625-0.70312 2.5312-0.70312zm-2.3906 6.2344q0 0.57812 0.42188 0.90625 0.42188 0.3125 1.1875 0.3125 1.1406 0 1.8281-0.5625 0.6875-0.57812 0.6875-1.2812v-1.4219q-0.34375 0.25-0.89062 0.34375-0.54688 0.078125-1.4531 0.20312t-1.3438 0.48438-0.4375 1.0156zm10.359-6.2344q1.6719 0 2.4844 0.65625 0.8125 0.64062 0.89062 1.9375h-1.3594v-0.015625q-0.0625-0.65625-0.57812-1.0156t-1.3438-0.35938q-0.8125 0-1.2969 0.28125-0.46875 0.26562-0.46875 0.76562 0 0.45312 0.42188 0.75 0.42188 0.28125 1.2656 0.46875l1.2812 0.28125q1.2031 0.26562 1.8281 0.82812 0.625 0.54688 0.625 1.4688 0 1.2188-0.95312 1.9219-0.9375 0.70312-2.5781 0.70312-1.5781 0-2.5156-0.71875-0.92188-0.71875-0.98438-2.0938h1.3594q0.03125 0.76562 0.60938 1.1875 0.59375 0.40625 1.6094 0.40625 0.98438 0 1.4844-0.3125 0.51562-0.3125 0.51562-0.92188 0-0.54688-0.5-0.875t-2.0625-0.64062q-1.5625-0.29688-2.2031-0.85938t-0.64062-1.4844q0-1.0938 0.875-1.7188 0.89062-0.64062 2.2344-0.64062zm8 0q1.6719 0 2.4844 0.65625 0.8125 0.64062 0.89062 1.9375h-1.3594v-0.015625q-0.0625-0.65625-0.57812-1.0156t-1.3438-0.35938q-0.8125 0-1.2969 0.28125-0.46875 0.26562-0.46875 0.76562 0 0.45312 0.42188 0.75 0.42188 0.28125 1.2656 0.46875l1.2812 0.28125q1.2031 0.26562 1.8281 0.82812 0.625 0.54688 0.625 1.4688 0 1.2188-0.95312 1.9219-0.9375 0.70312-2.5781 0.70312-1.5781 0-2.5156-0.71875-0.92188-0.71875-0.98438-2.0938h1.3594q0.03125 0.76562 0.60938 1.1875 0.59375 0.40625 1.6094 0.40625 0.98438 0 1.4844-0.3125 0.51562-0.3125 0.51562-0.92188 0-0.54688-0.5-0.875t-2.0625-0.64062q-1.5625-0.29688-2.2031-0.85938t-0.64062-1.4844q0-1.0938 0.875-1.7188 0.89062-0.64062 2.2344-0.64062zm6.6875-2.9531v1.6562h-1.3594v-1.6562h1.3594zm0 3.1406v8.2812h-1.3594v-8.2812h1.3594zm5.5703-0.1875q1.5156 0 2.4531 0.71875 0.95312 0.71875 1.1094 2.125h-1.4062q-0.15625-0.79688-0.70312-1.2188-0.53125-0.42188-1.3438-0.42188-1.2656 0-1.9219 0.84375t-0.65625 2.3906q0 1.375 0.64062 2.2031 0.65625 0.8125 1.7812 0.8125 0.98438 0 1.5625-0.53125t0.70312-1.4844h1.3906q-0.21875 1.5469-1.1562 2.3906t-2.4844 0.84375q-1.8125 0-2.8438-1.1406t-1.0312-3.0938q0-2.0312 1.0469-3.2344t2.8594-1.2031zm17.305-2.9531v1.2812h-5.9844v3.625h5.25v1.2812h-5.25v5.2344h-1.5156v-11.422h7.5zm9.1875 0v1.2812h-5.9844v3.625h5.25v1.2812h-5.25v5.2344h-1.5156v-11.422h7.5zm3.2031 0v4.9062h6.0156v-4.9062h1.5312v11.422h-1.5312v-5.2344h-6.0156v5.2344h-1.5156v-11.422h1.5156z" fill="#000"/>
<path d="m1019.5 171.8q1.9062 0 3.0156 0.92188 1.125 0.92188 1.1875 2.7031h-1.4375q-0.125-1.1719-0.84375-1.75-0.70312-0.59375-1.9844-0.59375-1.2188 0-1.8906 0.51562-0.67188 0.5-0.67188 1.4375 0 0.67188 0.5625 1.1094 0.57812 0.42188 3.1094 0.92188 1.8281 0.375 2.7344 1.1562 0.90625 0.76562 0.90625 2.1406 0 1.5938-1.3125 2.5156-1.2969 0.90625-3.1562 0.90625-2.0781 0-3.3906-1.0469t-1.3281-3h1.4375q0.015625 1.3125 0.9375 2.0312t2.3906 0.71875q1.3906 0 2.1406-0.53125 0.76562-0.53125 0.76562-1.5469 0-0.8125-0.70312-1.2969-0.6875-0.5-2.5156-0.84375-2.4375-0.46875-3.2656-1.1875-0.82812-0.73438-0.82812-1.9375 0-1.5312 1.1562-2.4375 1.1719-0.90625 2.9844-0.90625zm9.7422 3.2344q1.7812 0 2.7656 1.2812t0.98438 3.2969v0.15625h-6.2031v0.10938q0 1.1719 0.6875 1.8906t1.8906 0.71875q0.90625 0 1.4375-0.42188 0.54688-0.42188 0.70312-1.1875h1.3438q-0.26562 1.375-1.2031 2.1094-0.92188 0.71875-2.3281 0.71875-1.2969 0-2.2031-0.59375t-1.3438-1.6406q-0.42188-1.0625-0.42188-2.1562 0-1.8281 1.0938-3.0469 1.1094-1.2344 2.7969-1.2344zm-2.4531 3.5312h4.75q-0.0625-1-0.73438-1.6562-0.65625-0.67188-1.6562-0.67188-0.9375 0-1.6094 0.64062-0.65625 0.625-0.75 1.6875zm9.0469-6.4844v11.422h-1.3594v-11.422h1.3594zm4.9453-0.14062q0.17188 0 0.45312 0.046875 0.28125 0.03125 0.4375 0.09375v1.1719q-0.15625-0.046875-0.39062-0.078125-0.21875-0.03125-0.375-0.03125-0.5625 0-0.79688 0.23438t-0.23438 0.65625v1.1875h1.5938v1.2031h-1.5938v7.0781h-1.3594v-7.0781h-1.3906v-1.2031h1.3906v-1.2812q0-0.92188 0.5625-1.4531 0.57812-0.54688 1.7031-0.54688zm6.2969 6.4688v1.2812h-4.625v-1.2812h4.625zm5.8984-6.6094q1.9062 0 3.0156 0.92188 1.125 0.92188 1.1875 2.7031h-1.4375q-0.125-1.1719-0.84375-1.75-0.70312-0.59375-1.9844-0.59375-1.2188 0-1.8906 0.51562-0.67188 0.5-0.67188 1.4375 0 0.67188 0.5625 1.1094 0.57812 0.42188 3.1094 0.92188 1.8281 0.375 2.7344 1.1562 0.90625 0.76562 0.90625 2.1406 0 1.5938-1.3125 2.5156-1.2969 0.90625-3.1562 0.90625-2.0781 0-3.3906-1.0469t-1.3281-3h1.4375q0.015625 1.3125 0.9375 2.0312t2.3906 0.71875q1.3906 0 2.1406-0.53125 0.76562-0.53125 0.76562-1.5469 0-0.8125-0.70312-1.2969-0.6875-0.5-2.5156-0.84375-2.4375-0.46875-3.2656-1.1875-0.82812-0.73438-0.82812-1.9375 0-1.5312 1.1562-2.4375 1.1719-0.90625 2.9844-0.90625zm9.7422 3.2344q1.7812 0 2.7656 1.2812t0.98438 3.2969v0.15625h-6.2031v0.10938q0 1.1719 0.6875 1.8906t1.8906 0.71875q0.90625 0 1.4375-0.42188 0.54688-0.42188 0.70312-1.1875h1.3438q-0.26562 1.375-1.2031 2.1094-0.92188 0.71875-2.3281 0.71875-1.2969 0-2.2031-0.59375t-1.3438-1.6406q-0.42188-1.0625-0.42188-2.1562 0-1.8281 1.0938-3.0469 1.1094-1.2344 2.7969-1.2344zm-2.4531 3.5312h4.75q-0.0625-1-0.73438-1.6562-0.65625-0.67188-1.6562-0.67188-0.9375 0-1.6094 0.64062-0.65625 0.625-0.75 1.6875zm11.719-3.5312q0.046875 0 0.078125 0 0.046875 0 0.10938 0v1.4375q-1.5312 0-2.2656 0.8125-0.71875 0.8125-0.71875 2.5156v3.7031h-1.3594v-8.2812h1.2812v1.75h0.03125q0.46875-0.98438 1.1719-1.4531 0.70312-0.48438 1.6719-0.48438zm1.9375 0.1875l2.3125 6.9062h0.03125l2.2656-6.9062h1.4219l-3.0312 8.2812h-1.4531l-3.0625-8.2812h1.5156zm10.719-0.1875q1.7812 0 2.7656 1.2812t0.98438 3.2969v0.15625h-6.2031v0.10938q0 1.1719 0.6875 1.8906t1.8906 0.71875q0.90625 0 1.4375-0.42188 0.54688-0.42188 0.70312-1.1875h1.3438q-0.26562 1.375-1.2031 2.1094-0.92188 0.71875-2.3281 0.71875-1.2969 0-2.2031-0.59375t-1.3438-1.6406q-0.42188-1.0625-0.42188-2.1562 0-1.8281 1.0938-3.0469 1.1094-1.2344 2.7969-1.2344zm-2.4531 3.5312h4.75q-0.0625-1-0.73438-1.6562-0.65625-0.67188-1.6562-0.67188-0.9375 0-1.6094 0.64062-0.65625 0.625-0.75 1.6875z" fill="#000"/>
<path d="m967.45 303.43c0-6.6073 5.3563-11.964 11.964-11.964h144.29c3.1729 0 6.2158 1.2604 8.4595 3.504 2.2435 2.2436 3.504 5.2866 3.504 8.4595v47.853c0 6.6072-5.3562 11.963-11.964 11.963h-144.29c-6.6072 0-11.964-5.3562-11.964-11.963z" fill="#fff" fill-rule="evenodd"/>
<path d="m967.45 303.43c0-6.6073 5.3563-11.964 11.964-11.964h144.29c3.1729 0 6.2158 1.2604 8.4595 3.504 2.2435 2.2436 3.504 5.2866 3.504 8.4595v47.853c0 6.6072-5.3562 11.963-11.964 11.963h-144.29c-6.6072 0-11.964-5.3562-11.964-11.963z" fill-rule="evenodd" stroke="#6c0" stroke-linecap="butt" stroke-linejoin="round" stroke-width="3"/>
<path d="m992.58 312.02q1.6719 0 2.9062 0.78125 1.2344 0.76562 1.9062 2.1562t0.67188 3.0469q0 1.6719-0.67188 3.0625t-1.9219 2.1719q-1.2344 0.76562-2.8906 0.76562-1.6406 0-2.8906-0.76562-1.2344-0.78125-1.9062-2.1562-0.67188-1.3906-0.67188-3.0781 0-2.5938 1.4844-4.2812 1.5-1.7031 3.9844-1.7031zm-3.9531 5.9844q0 1.2812 0.46875 2.3906 0.46875 1.0938 1.3594 1.7031 0.90625 0.60938 2.125 0.60938 1.8438 0 2.8906-1.3125 1.0625-1.3281 1.0625-3.3906 0-2.0312-1.0469-3.3594-1.0469-1.3438-2.9219-1.3438-1.8281 0-2.8906 1.3438-1.0469 1.3438-1.0469 3.3594zm12.953-5.0312v2.4688h1.6406v1.2031h-1.6406v5.1875q0 0.60938 0.40625 0.65625 0.40625 0.03125 0.85938 0.03125h0.375v1.2031h-1.125q-1.1094 0-1.5-0.39062-0.375-0.40625-0.375-1.3438v-5.3438h-1.4219v-1.2031h1.4219v-2.4688h1.3594zm4.5078-0.67188v4.3594h0.03125q0.29688-0.65625 1-1.0312 0.71875-0.375 1.6094-0.375 1.5 0 2.1719 0.76562t0.67188 2.1875v5.5156h-1.3594v-5.6562q0-0.70312-0.45312-1.1562-0.4375-0.45312-1.2344-0.45312-1.1562 0-1.7969 0.70312t-0.64062 1.8281v4.7344h-1.3594v-11.422h1.3594zm10.977 2.9531q1.7812 0 2.7656 1.2812t0.98438 3.2969v0.15625h-6.2031v0.10938q0 1.1719 0.6875 1.8906t1.8906 0.71875q0.90625 0 1.4375-0.42188 0.54688-0.42188 0.70312-1.1875h1.3438q-0.26562 1.375-1.2031 2.1094-0.92188 0.71875-2.3281 0.71875-1.2969 0-2.2031-0.59375t-1.3438-1.6406q-0.42188-1.0625-0.42188-2.1562 0-1.8281 1.0938-3.0469 1.1094-1.2344 2.7969-1.2344zm-2.4531 3.5312h4.75q-0.0625-1-0.73438-1.6562-0.65625-0.67188-1.6562-0.67188-0.9375 0-1.6094 0.64062-0.65625 0.625-0.75 1.6875zm11.719-3.5312q0.046875 0 0.078125 0 0.046875 0 0.10938 0v1.4375q-1.5312 0-2.2656 0.8125-0.71875 0.8125-0.71875 2.5156v3.7031h-1.3594v-8.2812h1.2812v1.75h0.03125q0.46875-0.98438 1.1719-1.4531 0.70312-0.48438 1.6719-0.48438zm13.805-2.9531v1.2812h-3.8125v10.141h-1.5156v-10.141h-3.8125v-1.2812h9.1406zm9.1562 0v1.2812h-6.375v3.625h5.9375v1.2812h-5.9375v3.9531h6.4219v1.2812h-7.9375v-11.422h7.8906zm3.3984 0v10.141h6.0469v1.2812h-7.5625v-11.422h1.5156zm8.8359 0v7.3594q0 1.3906 0.79688 2.2188 0.8125 0.82812 2.375 0.82812 1.4844 0 2.2344-0.8125 0.75-0.82812 0.75-2.2344v-7.3594h1.5156v7.375q0 2.0156-1.1406 3.1719-1.125 1.1562-3.3594 1.1562-2.3281 0-3.5156-1.125-1.1719-1.1406-1.1719-3.2031v-7.375h1.5156zm13.945-0.28125q1.9062 0 3.0156 0.92188 1.125 0.92188 1.1875 2.7031h-1.4375q-0.125-1.1719-0.84375-1.75-0.70312-0.59375-1.9844-0.59375-1.2188 0-1.8906 0.51562-0.67188 0.5-0.67188 1.4375 0 0.67188 0.5625 1.1094 0.57812 0.42188 3.1094 0.92188 1.8281 0.375 2.7344 1.1562 0.90625 0.76562 0.90625 2.1406 0 1.5938-1.3125 2.5156-1.2969 0.90625-3.1562 0.90625-2.0781 0-3.3906-1.0469t-1.3281-3h1.4375q0.015625 1.3125 0.9375 2.0312t2.3906 0.71875q1.3906 0 2.1406-0.53125 0.76562-0.53125 0.76562-1.5469 0-0.8125-0.70312-1.2969-0.6875-0.5-2.5156-0.84375-2.4375-0.46875-3.2656-1.1875-0.82812-0.73438-0.82812-1.9375 0-1.5312 1.1562-2.4375 1.1719-0.90625 2.9844-0.90625zm8.3828 9.9219v1.7812h-1.7812v-1.7812h1.7812zm5.8203-6.6875q1.5156 0 2.4531 0.71875 0.95312 0.71875 1.1094 2.125h-1.4062q-0.15625-0.79688-0.70312-1.2188-0.53125-0.42188-1.3438-0.42188-1.2656 0-1.9219 0.84375t-0.65625 2.3906q0 1.375 0.64062 2.2031 0.65625 0.8125 1.7812 0.8125 0.98438 0 1.5625-0.53125t0.70312-1.4844h1.3906q-0.21875 1.5469-1.1562 2.3906t-2.4844 0.84375q-1.8125 0-2.8438-1.1406t-1.0312-3.0938q0-2.0312 1.0469-3.2344t2.8594-1.2031zm8.7031 0q1.875 0 2.9375 1.2188 1.0781 1.2031 1.0781 3.125t-1.0938 3.125-2.9219 1.2031q-1.7969 0-2.9062-1.1719-1.1094-1.1875-1.1094-3.1562t1.0781-3.1562q1.0938-1.1875 2.9375-1.1875zm-2.5781 4.3438q0 1.4219 0.71875 2.2656 0.73438 0.84375 1.8594 0.84375t1.8438-0.84375q0.73438-0.85938 0.73438-2.2656 0-1.4219-0.73438-2.2812-0.71875-0.85938-1.8594-0.85938-1.0938 0-1.8281 0.84375t-0.73438 2.2969zm12.188-4.3438q0.90625 0 1.4688 0.375 0.57812 0.35938 0.79688 1.0312 0.42188-0.65625 1.0938-1.0312 0.6875-0.375 1.5156-0.375 1.3906 0 2.0625 0.64062 0.67188 0.625 0.67188 1.7031v6.125h-1.3594v-5.4844q0-0.89062-0.375-1.3281-0.375-0.45312-1.2188-0.45312-1.0156 0-1.5938 0.59375-0.5625 0.59375-0.5625 1.4688v5.2031h-1.375v-5.4844q0-0.89062-0.375-1.3281-0.375-0.45312-1.1719-0.45312-0.64062 0-1.1406 0.3125t-0.78125 0.85938q-0.28125 0.53125-0.28125 0.90625v5.1875h-1.3594v-8.2812h1.2812v1.2188h0.03125q0.46875-0.70312 1.125-1.0469 0.67188-0.35938 1.5469-0.35938z" fill="#000"/>
<path d="m1038.7 334.25q1.6719 0 2.4844 0.65625 0.8125 0.64062 0.89062 1.9375h-1.3594v-0.015625q-0.0625-0.65625-0.57812-1.0156t-1.3438-0.35938q-0.8125 0-1.2969 0.28125-0.46875 0.26562-0.46875 0.76562 0 0.45312 0.42188 0.75 0.42188 0.28125 1.2656 0.46875l1.2812 0.28125q1.2031 0.26562 1.8281 0.82812 0.625 0.54688 0.625 1.4688 0 1.2188-0.95312 1.9219-0.9375 0.70312-2.5781 0.70312-1.5781 0-2.5156-0.71875-0.92188-0.71875-0.98438-2.0938h1.3594q0.03125 0.76562 0.60938 1.1875 0.59375 0.40625 1.6094 0.40625 0.98438 0 1.4844-0.3125 0.51562-0.3125 0.51562-0.92188 0-0.54688-0.5-0.875t-2.0625-0.64062q-1.5625-0.29688-2.2031-0.85938t-0.64062-1.4844q0-1.0938 0.875-1.7188 0.89062-0.64062 2.2344-0.64062zm6.6875-2.9531v1.6562h-1.3594v-1.6562h1.3594zm0 3.1406v8.2812h-1.3594v-8.2812h1.3594zm4.0078-2.4688v2.4688h1.6406v1.2031h-1.6406v5.1875q0 0.60938 0.40625 0.65625 0.40625 0.03125 0.85938 0.03125h0.375v1.2031h-1.125q-1.1094 0-1.5-0.39062-0.375-0.40625-0.375-1.3438v-5.3438h-1.4219v-1.2031h1.4219v-2.4688h1.3594zm6.5859 2.2812q1.7812 0 2.7656 1.2812t0.98438 3.2969v0.15625h-6.2031v0.10938q0 1.1719 0.6875 1.8906t1.8906 0.71875q0.90625 0 1.4375-0.42188 0.54688-0.42188 0.70312-1.1875h1.3438q-0.26562 1.375-1.2031 2.1094-0.92188 0.71875-2.3281 0.71875-1.2969 0-2.2031-0.59375t-1.3438-1.6406q-0.42188-1.0625-0.42188-2.1562 0-1.8281 1.0938-3.0469 1.1094-1.2344 2.7969-1.2344zm-2.4531 3.5312h4.75q-0.0625-1-0.73438-1.6562-0.65625-0.67188-1.6562-0.67188-0.9375 0-1.6094 0.64062-0.65625 0.625-0.75 1.6875zm10.359-3.5312q1.6719 0 2.4844 0.65625 0.8125 0.64062 0.89062 1.9375h-1.3594v-0.015625q-0.0625-0.65625-0.57812-1.0156t-1.3438-0.35938q-0.8125 0-1.2969 0.28125-0.46875 0.26562-0.46875 0.76562 0 0.45312 0.42188 0.75 0.42188 0.28125 1.2656 0.46875l1.2812 0.28125q1.2031 0.26562 1.8281 0.82812 0.625 0.54688 0.625 1.4688 0 1.2188-0.95312 1.9219-0.9375 0.70312-2.5781 0.70312-1.5781 0-2.5156-0.71875-0.92188-0.71875-0.98438-2.0938h1.3594q0.03125 0.76562 0.60938 1.1875 0.59375 0.40625 1.6094 0.40625 0.98438 0 1.4844-0.3125 0.51562-0.3125 0.51562-0.92188 0-0.54688-0.5-0.875t-2.0625-0.64062q-1.5625-0.29688-2.2031-0.85938t-0.64062-1.4844q0-1.0938 0.875-1.7188 0.89062-0.64062 2.2344-0.64062z" fill="#000"/>
<path d="m847.95 249.1h59.749v-80.976h59.747" fill="#000" fill-opacity="0" fill-rule="evenodd"/>
<path d="m847.95 249.1h59.749v-80.976h41.747" fill-rule="evenodd" stroke="#8e7cc3" stroke-linecap="butt" stroke-linejoin="round" stroke-width="3"/>
<path d="m949.45 173.08l13.614-4.9552-13.614-4.9552z" fill-rule="evenodd" stroke="#8e7cc3" stroke-linecap="butt" stroke-width="3"/>
<path d="m847.95 249.1h59.749v78.268h59.747" fill="#000" fill-opacity="0" fill-rule="evenodd"/>
<path d="m847.95 249.1h59.749v78.268h41.747" fill-rule="evenodd" stroke="#8e7cc3" stroke-linecap="butt" stroke-linejoin="round" stroke-width="3"/>
<path d="m949.45 332.33l13.614-4.9552-13.614-4.9552z" fill-rule="evenodd" stroke="#8e7cc3" stroke-linecap="butt" stroke-width="3"/>
<path d="m335.09 587.11c0-6.6072 5.3562-11.964 11.964-11.964h144.29c3.1729 0 6.2159 1.2604 8.4595 3.504 2.2436 2.2436 3.504 5.2866 3.504 8.4595v47.853c0 6.6072-5.3563 11.964-11.964 11.964h-144.29c-6.6073 0-11.964-5.3563-11.964-11.964z" fill="#fff" fill-rule="evenodd"/>
<path d="m335.09 587.11c0-6.6072 5.3562-11.964 11.964-11.964h144.29c3.1729 0 6.2159 1.2604 8.4595 3.504 2.2436 2.2436 3.504 5.2866 3.504 8.4595v47.853c0 6.6072-5.3563 11.964-11.964 11.964h-144.29c-6.6073 0-11.964-5.3563-11.964-11.964z" fill-rule="evenodd" stroke="#6c0" stroke-linecap="butt" stroke-linejoin="round" stroke-width="3"/>
<path d="m377.17 595.97l6.0156 9.2656h0.03125v-9.2656h1.4375v11.422h-1.6719l-5.9688-9.1719h-0.03125v9.1719h-1.4375v-11.422h1.625zm14.836-0.28125q2.0156 0 3.3125 0.96875t1.5938 2.8281h-1.5156q-0.23438-1.2188-1.125-1.8594-0.875-0.65625-2.2812-0.65625-1.8281 0-2.875 1.3594-1.0312 1.3438-1.0312 3.4844 0 1.9688 1.0781 3.2656t2.8281 1.2969q1.6406 0 2.6562-0.98438t1.0156-2.5625v-0.17188h-3.6562v-1.2812h5.0156v6.0156h-0.95312l-0.40625-1.4219q-0.625 0.8125-1.5938 1.2656-0.95312 0.4375-2.0781 0.4375-2.3281 0-3.8906-1.6719-1.5469-1.6875-1.5469-4.1094 0-2.7031 1.4688-4.4531t3.9844-1.75zm8.8281 0.28125v11.422h-1.5156v-11.422h1.5156zm4.1719 0l6.0156 9.2656h0.03125v-9.2656h1.4375v11.422h-1.6719l-5.9688-9.1719h-0.03125v9.1719h-1.4375v-11.422h1.625zm10.727 0l2.8594 4.4531 2.9688-4.4531h1.7031l-3.7812 5.5469 4.0156 5.875h-1.8594l-3.0625-4.7188-3.1719 4.7188h-1.7188l3.9844-5.875-3.75-5.5469h1.8125zm14.953 0v10.141h6.0469v1.2812h-7.5625v-11.422h1.5156zm10.727 2.9531q1.875 0 2.9375 1.2188 1.0781 1.2031 1.0781 3.125t-1.0938 3.125-2.9219 1.2031q-1.7969 0-2.9062-1.1719-1.1094-1.1875-1.1094-3.1562t1.0781-3.1562q1.0938-1.1875 2.9375-1.1875zm-2.5781 4.3438q0 1.4219 0.71875 2.2656 0.73438 0.84375 1.8594 0.84375t1.8438-0.84375q0.73438-0.85938 0.73438-2.2656 0-1.4219-0.73438-2.2812-0.71875-0.85938-1.8594-0.85938-1.0938 0-1.8281 0.84375t-0.73438 2.2969zm11.578-4.3438q1.6875 0 2.3906 0.60938 0.71875 0.59375 0.71875 1.6094 0 4.2969 0 4.7656t0.42188 0.46875q0.09375 0 0.20312-0.015625 0.10938-0.03125 0.21875-0.0625v1.0625q-0.1875 0.10938-0.4375 0.17188t-0.53125 0.0625q-0.5625 0-0.85938-0.3125-0.29688-0.32812-0.29688-0.98438-0.54688 0.64062-1.2812 0.96875t-1.6406 0.32812q-1.2812 0-2.0156-0.60938-0.71875-0.60938-0.71875-1.7188 0-1.125 0.70312-1.7656 0.71875-0.65625 3.3594-0.98438 0.89062-0.125 1.2031-0.34375 0.3125-0.23438 0.3125-0.6875 0-0.6875-0.4375-1.0156-0.4375-0.34375-1.4062-0.34375-1 0-1.5156 0.39062-0.5 0.375-0.53125 1.1719h-1.3594q0.0625-1.375 0.96875-2.0625 0.90625-0.70312 2.5312-0.70312zm-2.3906 6.2344q0 0.57812 0.42188 0.90625 0.42188 0.3125 1.1875 0.3125 1.1406 0 1.8281-0.5625 0.6875-0.57812 0.6875-1.2812v-1.4219q-0.34375 0.25-0.89062 0.34375-0.54688 0.078125-1.4531 0.20312t-1.3438 0.48438-0.4375 1.0156zm15-9.1875v11.422h-1.3594v-1.125h-0.03125q-0.32812 0.64062-1.0312 0.98438-0.6875 0.34375-1.6094 0.34375-1.7344 0-2.7812-1.2031-1.0312-1.2188-1.0312-3.1562 0-1.9219 1-3.1094 1.0156-1.2031 2.7656-1.2031 0.8125 0 1.5469 0.32812t1.1406 0.96875h0.03125v-4.25h1.3594zm-6.4062 7.3438q0 1.3438 0.6875 2.2031 0.70312 0.85938 1.875 0.85938 1.2031 0 1.8594-0.85938 0.67188-0.85938 0.67188-2.25 0-1.4219-0.6875-2.2812-0.67188-0.85938-1.9375-0.85938-1.1719 0-1.8281 0.85938-0.64062 0.84375-0.64062 2.3281z" fill="#000"/>
<path d="m393.77 614.97q2.125 0 2.875 0.85938 0.76562 0.84375 0.76562 1.9375 0 0.90625-0.45312 1.5781-0.4375 0.65625-1.25 0.98438v0.03125q1.0625 0.21875 1.625 0.95312t0.5625 1.7969q0 1.3906-0.98438 2.3438-0.96875 0.9375-2.4375 0.9375h-5.5781v-11.422h4.875zm-0.23438 4.9062q1.1406 0 1.75-0.42188 0.60938-0.4375 0.60938-1.4062 0-0.90625-0.51562-1.3438-0.5-0.45312-1.8281-0.45312h-3.1406v3.625h3.125zm0.75 5.2344q0.92188 0 1.5-0.54688 0.57812-0.5625 0.57812-1.5 0-0.96875-0.65625-1.4375t-1.875-0.46875h-3.4219v3.9531h3.875zm8.7266-7.1875q1.6875 0 2.3906 0.60938 0.71875 0.59375 0.71875 1.6094 0 4.2969 0 4.7656t0.42188 0.46875q0.09375 0 0.20312-0.015625 0.10938-0.03125 0.21875-0.0625v1.0625q-0.1875 0.10938-0.4375 0.17188t-0.53125 0.0625q-0.5625 0-0.85938-0.3125-0.29688-0.32812-0.29688-0.98438-0.54688 0.64062-1.2812 0.96875t-1.6406 0.32812q-1.2812 0-2.0156-0.60938-0.71875-0.60938-0.71875-1.7188 0-1.125 0.70312-1.7656 0.71875-0.65625 3.3594-0.98438 0.89062-0.125 1.2031-0.34375 0.3125-0.23438 0.3125-0.6875 0-0.6875-0.4375-1.0156-0.4375-0.34375-1.4062-0.34375-1 0-1.5156 0.39062-0.5 0.375-0.53125 1.1719h-1.3594q0.0625-1.375 0.96875-2.0625 0.90625-0.70312 2.5312-0.70312zm-2.3906 6.2344q0 0.57812 0.42188 0.90625 0.42188 0.3125 1.1875 0.3125 1.1406 0 1.8281-0.5625 0.6875-0.57812 0.6875-1.2812v-1.4219q-0.34375 0.25-0.89062 0.34375-0.54688 0.078125-1.4531 0.20312t-1.3438 0.48438-0.4375 1.0156zm9.0469-9.1875v11.422h-1.3594v-11.422h1.3594zm5.4922 2.9531q1.6875 0 2.3906 0.60938 0.71875 0.59375 0.71875 1.6094 0 4.2969 0 4.7656t0.42188 0.46875q0.09375 0 0.20312-0.015625 0.10938-0.03125 0.21875-0.0625v1.0625q-0.1875 0.10938-0.4375 0.17188t-0.53125 0.0625q-0.5625 0-0.85938-0.3125-0.29688-0.32812-0.29688-0.98438-0.54688 0.64062-1.2812 0.96875t-1.6406 0.32812q-1.2812 0-2.0156-0.60938-0.71875-0.60938-0.71875-1.7188 0-1.125 0.70312-1.7656 0.71875-0.65625 3.3594-0.98438 0.89062-0.125 1.2031-0.34375 0.3125-0.23438 0.3125-0.6875 0-0.6875-0.4375-1.0156-0.4375-0.34375-1.4062-0.34375-1 0-1.5156 0.39062-0.5 0.375-0.53125 1.1719h-1.3594q0.0625-1.375 0.96875-2.0625 0.90625-0.70312 2.5312-0.70312zm-2.3906 6.2344q0 0.57812 0.42188 0.90625 0.42188 0.3125 1.1875 0.3125 1.1406 0 1.8281-0.5625 0.6875-0.57812 0.6875-1.2812v-1.4219q-0.34375 0.25-0.89062 0.34375-0.54688 0.078125-1.4531 0.20312t-1.3438 0.48438-0.4375 1.0156zm11.609-6.2344q1.5 0 2.1719 0.76562t0.67188 2.1875v5.5156h-1.3594v-5.6562q0-0.70312-0.45312-1.1562-0.4375-0.45312-1.2344-0.45312-1.1562 0-1.7969 0.70312t-0.64062 1.8281v4.7344h-1.3594v-8.2812h1.2812v1.3125h0.03125q0.45312-0.76562 1.1094-1.125 0.65625-0.375 1.5781-0.375zm8.3516 0q1.5156 0 2.4531 0.71875 0.95312 0.71875 1.1094 2.125h-1.4062q-0.15625-0.79688-0.70312-1.2188-0.53125-0.42188-1.3438-0.42188-1.2656 0-1.9219 0.84375t-0.65625 2.3906q0 1.375 0.64062 2.2031 0.65625 0.8125 1.7812 0.8125 0.98438 0 1.5625-0.53125t0.70312-1.4844h1.3906q-0.21875 1.5469-1.1562 2.3906t-2.4844 0.84375q-1.8125 0-2.8438-1.1406t-1.0312-3.0938q0-2.0312 1.0469-3.2344t2.8594-1.2031zm8.5781 0q1.7812 0 2.7656 1.2812t0.98438 3.2969v0.15625h-6.2031v0.10938q0 1.1719 0.6875 1.8906t1.8906 0.71875q0.90625 0 1.4375-0.42188 0.54688-0.42188 0.70312-1.1875h1.3438q-0.26562 1.375-1.2031 2.1094-0.92188 0.71875-2.3281 0.71875-1.2969 0-2.2031-0.59375t-1.3438-1.6406q-0.42188-1.0625-0.42188-2.1562 0-1.8281 1.0938-3.0469 1.1094-1.2344 2.7969-1.2344zm-2.4531 3.5312h4.75q-0.0625-1-0.73438-1.6562-0.65625-0.67188-1.6562-0.67188-0.9375 0-1.6094 0.64062-0.65625 0.625-0.75 1.6875zm11.719-3.5312q0.046875 0 0.078125 0 0.046875 0 0.10938 0v1.4375q-1.5312 0-2.2656 0.8125-0.71875 0.8125-0.71875 2.5156v3.7031h-1.3594v-8.2812h1.2812v1.75h0.03125q0.46875-0.98438 1.1719-1.4531 0.70312-0.48438 1.6719-0.48438z" fill="#000"/>
<path d="m419.47 284.99l-0.25198 290.14" fill="#000" fill-opacity="0" fill-rule="evenodd"/>
<path d="m419.47 284.99l-0.23636 272.14" fill-rule="evenodd" stroke="#8e7cc3" stroke-linecap="butt" stroke-linejoin="round" stroke-width="3"/>
<path d="m414.28 557.13l4.9434 13.619 4.967-13.61z" fill-rule="evenodd" stroke="#8e7cc3" stroke-linecap="butt" stroke-width="3"/>
<path d="m763.84 387.12h138.49v29.386h-138.49z" fill="#000" fill-opacity="0" fill-rule="evenodd"/>
<path d="m794.13 400.05v7.3594q0 1.3906 0.79688 2.2188 0.8125 0.82812 2.375 0.82812 1.4844 0 2.2344-0.8125 0.75-0.82812 0.75-2.2344v-7.3594h1.5156v7.375q0 2.0156-1.1406 3.1719-1.125 1.1562-3.3594 1.1562-2.3281 0-3.5156-1.125-1.1719-1.1406-1.1719-3.2031v-7.375h1.5156zm13.883 2.9531q1.5 0 2.1719 0.76562t0.67188 2.1875v5.5156h-1.3594v-5.6562q0-0.70312-0.45312-1.1562-0.4375-0.45312-1.2344-0.45312-1.1562 0-1.7969 0.70312t-0.64062 1.8281v4.7344h-1.3594v-8.2812h1.2812v1.3125h0.03125q0.45312-0.76562 1.1094-1.125 0.65625-0.375 1.5781-0.375zm8.8828 0q0.90625 0 1.4688 0.375 0.57812 0.35938 0.79688 1.0312 0.42188-0.65625 1.0938-1.0312 0.6875-0.375 1.5156-0.375 1.3906 0 2.0625 0.64062 0.67188 0.625 0.67188 1.7031v6.125h-1.3594v-5.4844q0-0.89062-0.375-1.3281-0.375-0.45312-1.2188-0.45312-1.0156 0-1.5938 0.59375-0.5625 0.59375-0.5625 1.4688v5.2031h-1.375v-5.4844q0-0.89062-0.375-1.3281-0.375-0.45312-1.1719-0.45312-0.64062 0-1.1406 0.3125t-0.78125 0.85938q-0.28125 0.53125-0.28125 0.90625v5.1875h-1.3594v-8.2812h1.2812v1.2188h0.03125q0.46875-0.70312 1.125-1.0469 0.67188-0.35938 1.5469-0.35938zm13.039 0q1.6875 0 2.3906 0.60938 0.71875 0.59375 0.71875 1.6094 0 4.2969 0 4.7656t0.42188 0.46875q0.09375 0 0.20312-0.015625 0.10938-0.03125 0.21875-0.0625v1.0625q-0.1875 0.10938-0.4375 0.17188t-0.53125 0.0625q-0.5625 0-0.85938-0.3125-0.29688-0.32812-0.29688-0.98438-0.54688 0.64062-1.2812 0.96875t-1.6406 0.32812q-1.2812 0-2.0156-0.60938-0.71875-0.60938-0.71875-1.7188 0-1.125 0.70312-1.7656 0.71875-0.65625 3.3594-0.98438 0.89062-0.125 1.2031-0.34375 0.3125-0.23438 0.3125-0.6875 0-0.6875-0.4375-1.0156-0.4375-0.34375-1.4062-0.34375-1 0-1.5156 0.39062-0.5 0.375-0.53125 1.1719h-1.3594q0.0625-1.375 0.96875-2.0625 0.90625-0.70312 2.5312-0.70312zm-2.3906 6.2344q0 0.57812 0.42188 0.90625 0.42188 0.3125 1.1875 0.3125 1.1406 0 1.8281-0.5625 0.6875-0.57812 0.6875-1.2812v-1.4219q-0.34375 0.25-0.89062 0.34375-0.54688 0.078125-1.4531 0.20312t-1.3438 0.48438-0.4375 1.0156zm9.5-8.5156v2.4688h1.6406v1.2031h-1.6406v5.1875q0 0.60938 0.40625 0.65625 0.40625 0.03125 0.85938 0.03125h0.375v1.2031h-1.125q-1.1094 0-1.5-0.39062-0.375-0.40625-0.375-1.3438v-5.3438h-1.4219v-1.2031h1.4219v-2.4688h1.3594zm6.6016 2.2812q1.5156 0 2.4531 0.71875 0.95312 0.71875 1.1094 2.125h-1.4062q-0.15625-0.79688-0.70312-1.2188-0.53125-0.42188-1.3438-0.42188-1.2656 0-1.9219 0.84375t-0.65625 2.3906q0 1.375 0.64062 2.2031 0.65625 0.8125 1.7812 0.8125 0.98438 0 1.5625-0.53125t0.70312-1.4844h1.3906q-0.21875 1.5469-1.1562 2.3906t-2.4844 0.84375q-1.8125 0-2.8438-1.1406t-1.0312-3.0938q0-2.0312 1.0469-3.2344t2.8594-1.2031zm6.5-2.9531v4.3594h0.03125q0.29688-0.65625 1-1.0312 0.71875-0.375 1.6094-0.375 1.5 0 2.1719 0.76562t0.67188 2.1875v5.5156h-1.3594v-5.6562q0-0.70312-0.45312-1.1562-0.4375-0.45312-1.2344-0.45312-1.1562 0-1.7969 0.70312t-0.64062 1.8281v4.7344h-1.3594v-11.422h1.3594zm10.977 2.9531q1.7812 0 2.7656 1.2812t0.98438 3.2969v0.15625h-6.2031v0.10938q0 1.1719 0.6875 1.8906t1.8906 0.71875q0.90625 0 1.4375-0.42188 0.54688-0.42188 0.70312-1.1875h1.3438q-0.26562 1.375-1.2031 2.1094-0.92188 0.71875-2.3281 0.71875-1.2969 0-2.2031-0.59375t-1.3438-1.6406q-0.42188-1.0625-0.42188-2.1562 0-1.8281 1.0938-3.0469 1.1094-1.2344 2.7969-1.2344zm-2.4531 3.5312h4.75q-0.0625-1-0.73438-1.6562-0.65625-0.67188-1.6562-0.67188-0.9375 0-1.6094 0.64062-0.65625 0.625-0.75 1.6875zm15-6.4844v11.422h-1.3594v-1.125h-0.03125q-0.32812 0.64062-1.0312 0.98438-0.6875 0.34375-1.6094 0.34375-1.7344 0-2.7812-1.2031-1.0312-1.2188-1.0312-3.1562 0-1.9219 1-3.1094 1.0156-1.2031 2.7656-1.2031 0.8125 0 1.5469 0.32812t1.1406 0.96875h0.03125v-4.25h1.3594zm-6.4062 7.3438q0 1.3438 0.6875 2.2031 0.70312 0.85938 1.875 0.85938 1.2031 0 1.8594-0.85938 0.67188-0.85938 0.67188-2.25 0-1.4219-0.6875-2.2812-0.67188-0.85938-1.9375-0.85938-1.1719 0-1.8281 0.85938-0.64062 0.84375-0.64062 2.3281z" fill="#000"/>
<path d="m788.52 425.01q1.5156 0 2.4531 0.71875 0.95312 0.71875 1.1094 2.125h-1.4062q-0.15625-0.79688-0.70312-1.2188-0.53125-0.42188-1.3438-0.42188-1.2656 0-1.9219 0.84375t-0.65625 2.3906q0 1.375 0.64062 2.2031 0.65625 0.8125 1.7812 0.8125 0.98438 0 1.5625-0.53125t0.70312-1.4844h1.3906q-0.21875 1.5469-1.1562 2.3906t-2.4844 0.84375q-1.8125 0-2.8438-1.1406t-1.0312-3.0938q0-2.0312 1.0469-3.2344t2.8594-1.2031zm8.7031 0q1.875 0 2.9375 1.2188 1.0781 1.2031 1.0781 3.125t-1.0938 3.125-2.9219 1.2031q-1.7969 0-2.9062-1.1719-1.1094-1.1875-1.1094-3.1562t1.0781-3.1562q1.0938-1.1875 2.9375-1.1875zm-2.5781 4.3438q0 1.4219 0.71875 2.2656 0.73438 0.84375 1.8594 0.84375t1.8438-0.84375q0.73438-0.85938 0.73438-2.2656 0-1.4219-0.73438-2.2812-0.71875-0.85938-1.8594-0.85938-1.0938 0-1.8281 0.84375t-0.73438 2.2969zm12.203-4.3438q1.5 0 2.1719 0.76562t0.67188 2.1875v5.5156h-1.3594v-5.6562q0-0.70312-0.45312-1.1562-0.4375-0.45312-1.2344-0.45312-1.1562 0-1.7969 0.70312t-0.64062 1.8281v4.7344h-1.3594v-8.2812h1.2812v1.3125h0.03125q0.45312-0.76562 1.1094-1.125 0.65625-0.375 1.5781-0.375zm6.7891-2.2812v2.4688h1.6406v1.2031h-1.6406v5.1875q0 0.60938 0.40625 0.65625 0.40625 0.03125 0.85938 0.03125h0.375v1.2031h-1.125q-1.1094 0-1.5-0.39062-0.375-0.40625-0.375-1.3438v-5.3438h-1.4219v-1.2031h1.4219v-2.4688h1.3594zm6.5859 2.2812q1.7812 0 2.7656 1.2812t0.98438 3.2969v0.15625h-6.2031v0.10938q0 1.1719 0.6875 1.8906t1.8906 0.71875q0.90625 0 1.4375-0.42188 0.54688-0.42188 0.70312-1.1875h1.3438q-0.26562 1.375-1.2031 2.1094-0.92188 0.71875-2.3281 0.71875-1.2969 0-2.2031-0.59375t-1.3438-1.6406q-0.42188-1.0625-0.42188-2.1562 0-1.8281 1.0938-3.0469 1.1094-1.2344 2.7969-1.2344zm-2.4531 3.5312h4.75q-0.0625-1-0.73438-1.6562-0.65625-0.67188-1.6562-0.67188-0.9375 0-1.6094 0.64062-0.65625 0.625-0.75 1.6875zm8.6875-3.3438l1.9844 2.8906h0.015625l2.0469-2.8906h1.6406l-2.8438 3.8125 3.1875 4.4688h-1.7344l-2.3125-3.4219-2.2969 3.4219h-1.6562l3.1094-4.3594-2.875-3.9219h1.7344zm9.1016-2.4688v2.4688h1.6406v1.2031h-1.6406v5.1875q0 0.60938 0.40625 0.65625 0.40625 0.03125 0.85938 0.03125h0.375v1.2031h-1.125q-1.1094 0-1.5-0.39062-0.375-0.40625-0.375-1.3438v-5.3438h-1.4219v-1.2031h1.4219v-2.4688h1.3594zm11.672 2.2812q1.7656 0 2.7812 1.2188 1.0312 1.2188 1.0312 3.1406t-1.0156 3.125q-1.0156 1.1875-2.7656 1.1875-0.76562 0-1.5156-0.32812-0.73438-0.32812-1.1562-0.98438h-0.03125v4.2812h-1.3594v-11.453h1.3594v1.125h0.03125q0.3125-0.64062 1-0.96875 0.70312-0.34375 1.6406-0.34375zm-2.7188 4.3281q0 1.4375 0.6875 2.2812 0.70312 0.84375 1.9219 0.84375 1.1719 0 1.8125-0.84375 0.65625-0.84375 0.65625-2.3438 0-1.3438-0.6875-2.2031-0.67188-0.85938-1.875-0.85938t-1.8594 0.875-0.65625 2.25zm11.5-4.3281q1.6875 0 2.3906 0.60938 0.71875 0.59375 0.71875 1.6094 0 4.2969 0 4.7656t0.42188 0.46875q0.09375 0 0.20312-0.015625 0.10938-0.03125 0.21875-0.0625v1.0625q-0.1875 0.10938-0.4375 0.17188t-0.53125 0.0625q-0.5625 0-0.85938-0.3125-0.29688-0.32812-0.29688-0.98438-0.54688 0.64062-1.2812 0.96875t-1.6406 0.32812q-1.2812 0-2.0156-0.60938-0.71875-0.60938-0.71875-1.7188 0-1.125 0.70312-1.7656 0.71875-0.65625 3.3594-0.98438 0.89062-0.125 1.2031-0.34375 0.3125-0.23438 0.3125-0.6875 0-0.6875-0.4375-1.0156-0.4375-0.34375-1.4062-0.34375-1 0-1.5156 0.39062-0.5 0.375-0.53125 1.1719h-1.3594q0.0625-1.375 0.96875-2.0625 0.90625-0.70312 2.5312-0.70312zm-2.3906 6.2344q0 0.57812 0.42188 0.90625 0.42188 0.3125 1.1875 0.3125 1.1406 0 1.8281-0.5625 0.6875-0.57812 0.6875-1.2812v-1.4219q-0.34375 0.25-0.89062 0.34375-0.54688 0.078125-1.4531 0.20312t-1.3438 0.48438-0.4375 1.0156zm9.5-8.5156v2.4688h1.6406v1.2031h-1.6406v5.1875q0 0.60938 0.40625 0.65625 0.40625 0.03125 0.85938 0.03125h0.375v1.2031h-1.125q-1.1094 0-1.5-0.39062-0.375-0.40625-0.375-1.3438v-5.3438h-1.4219v-1.2031h1.4219v-2.4688h1.3594zm4.5078-0.67188v4.3594h0.03125q0.29688-0.65625 1-1.0312 0.71875-0.375 1.6094-0.375 1.5 0 2.1719 0.76562t0.67188 2.1875v5.5156h-1.3594v-5.6562q0-0.70312-0.45312-1.1562-0.4375-0.45312-1.2344-0.45312-1.1562 0-1.7969 0.70312t-0.64062 1.8281v4.7344h-1.3594v-11.422h1.3594zm10.289 2.9531q1.6719 0 2.4844 0.65625 0.8125 0.64062 0.89062 1.9375h-1.3594v-0.015625q-0.0625-0.65625-0.57812-1.0156t-1.3438-0.35938q-0.8125 0-1.2969 0.28125-0.46875 0.26562-0.46875 0.76562 0 0.45312 0.42188 0.75 0.42188 0.28125 1.2656 0.46875l1.2812 0.28125q1.2031 0.26562 1.8281 0.82812 0.625 0.54688 0.625 1.4688 0 1.2188-0.95312 1.9219-0.9375 0.70312-2.5781 0.70312-1.5781 0-2.5156-0.71875-0.92188-0.71875-0.98438-2.0938h1.3594q0.03125 0.76562 0.60938 1.1875 0.59375 0.40625 1.6094 0.40625 0.98438 0 1.4844-0.3125 0.51562-0.3125 0.51562-0.92188 0-0.54688-0.5-0.875t-2.0625-0.64062q-1.5625-0.29688-2.2031-0.85938t-0.64062-1.4844q0-1.0938 0.875-1.7188 0.89062-0.64062 2.2344-0.64062z" fill="#000"/>
<path d="m763.84 284.99v145.07h-344.63v145.07" fill="#000" fill-opacity="0" fill-rule="evenodd"/>
<path d="m763.84 284.99v145.07h-344.63v127.07" fill-rule="evenodd" stroke="#8e7cc3" stroke-linecap="butt" stroke-linejoin="round" stroke-width="3"/>
<path d="m414.25 557.14l4.9552 13.614 4.9552-13.614z" fill-rule="evenodd" stroke="#8e7cc3" stroke-linecap="butt" stroke-width="3"/>
<path d="m274.17 333.86h138.49v29.386h-138.49z" fill="#000" fill-opacity="0" fill-rule="evenodd"/>
<path d="m303.1 346.8v1.2812h-3.8125v10.141h-1.5156v-10.141h-3.8125v-1.2812h9.1406zm9.1562 0v1.2812h-6.375v3.625h5.9375v1.2812h-5.9375v3.9531h6.4219v1.2812h-7.9375v-11.422h7.8906zm3.3984 0v10.141h6.0469v1.2812h-7.5625v-11.422h1.5156zm8.8359 0v7.3594q0 1.3906 0.79688 2.2188 0.8125 0.82812 2.375 0.82812 1.4844 0 2.2344-0.8125 0.75-0.82812 0.75-2.2344v-7.3594h1.5156v7.375q0 2.0156-1.1406 3.1719-1.125 1.1562-3.3594 1.1562-2.3281 0-3.5156-1.125-1.1719-1.1406-1.1719-3.2031v-7.375h1.5156zm13.945-0.28125q1.9062 0 3.0156 0.92188 1.125 0.92188 1.1875 2.7031h-1.4375q-0.125-1.1719-0.84375-1.75-0.70312-0.59375-1.9844-0.59375-1.2188 0-1.8906 0.51562-0.67188 0.5-0.67188 1.4375 0 0.67188 0.5625 1.1094 0.57812 0.42188 3.1094 0.92188 1.8281 0.375 2.7344 1.1562 0.90625 0.76562 0.90625 2.1406 0 1.5938-1.3125 2.5156-1.2969 0.90625-3.1562 0.90625-2.0781 0-3.3906-1.0469t-1.3281-3h1.4375q0.015625 1.3125 0.9375 2.0312t2.3906 0.71875q1.3906 0 2.1406-0.53125 0.76562-0.53125 0.76562-1.5469 0-0.8125-0.70312-1.2969-0.6875-0.5-2.5156-0.84375-2.4375-0.46875-3.2656-1.1875-0.82812-0.73438-0.82812-1.9375 0-1.5312 1.1562-2.4375 1.1719-0.90625 2.9844-0.90625zm14.984 0.28125q2.5938 0 3.9844 1.375 1.4062 1.375 1.4062 4.0625 0 3.0156-1.3906 4.5-1.375 1.4844-4 1.4844h-4.0156v-11.422h4.0156zm0.09375 10.141q1.7031 0 2.7344-1.1094 1.0469-1.125 1.0469-3.3906t-0.95312-3.3125q-0.9375-1.0469-2.7812-1.0469h-2.6406v8.8594h2.5938zm8.375-10.141v1.6562h-1.3594v-1.6562h1.3594zm0 3.1406v8.2812h-1.3594v-8.2812h1.3594zm5.4766-0.1875q0.875 0 1.5 0.375 0.64062 0.375 0.98438 1h0.015625v-1.1875h1.2656v7.6562q0 1.9531-0.9375 2.9688t-2.8906 1.0156q-1.4219 0-2.3906-0.625t-1.0312-1.7969h1.3594q0.03125 0.625 0.67188 0.98438t1.4688 0.35938q1.2031 0 1.8438-0.79688t0.64062-2.375v-0.51562h-0.03125q-0.32812 0.6875-1.0156 1.0938t-1.5781 0.40625q-1.6719 0-2.6875-1.1562-1-1.1562-1-3.0312 0-1.9062 1-3.1406 1.0156-1.2344 2.8125-1.2344zm-2.375 4.2031q0 1.4844 0.60938 2.3281 0.625 0.82812 1.7344 0.82812 1.125 0 1.7812-0.85938 0.67188-0.875 0.67188-2.3438 0-1.3281-0.625-2.1406-0.60938-0.8125-1.7344-0.8125-1.1406 0-1.7969 0.82812-0.64062 0.8125-0.64062 2.1719zm9.6406-7.1562v1.6562h-1.3594v-1.6562h1.3594zm0 3.1406v8.2812h-1.3594v-8.2812h1.3594zm4.0078-2.4688v2.4688h1.6406v1.2031h-1.6406v5.1875q0 0.60938 0.40625 0.65625 0.40625 0.03125 0.85938 0.03125h0.375v1.2031h-1.125q-1.1094 0-1.5-0.39062-0.375-0.40625-0.375-1.3438v-5.3438h-1.4219v-1.2031h1.4219v-2.4688h1.3594zm6.5234 2.2812q1.6875 0 2.3906 0.60938 0.71875 0.59375 0.71875 1.6094 0 4.2969 0 4.7656t0.42188 0.46875q0.09375 0 0.20312-0.015625 0.10938-0.03125 0.21875-0.0625v1.0625q-0.1875 0.10938-0.4375 0.17188t-0.53125 0.0625q-0.5625 0-0.85938-0.3125-0.29688-0.32812-0.29688-0.98438-0.54688 0.64062-1.2812 0.96875t-1.6406 0.32812q-1.2812 0-2.0156-0.60938-0.71875-0.60938-0.71875-1.7188 0-1.125 0.70312-1.7656 0.71875-0.65625 3.3594-0.98438 0.89062-0.125 1.2031-0.34375 0.3125-0.23438 0.3125-0.6875 0-0.6875-0.4375-1.0156-0.4375-0.34375-1.4062-0.34375-1 0-1.5156 0.39062-0.5 0.375-0.53125 1.1719h-1.3594q0.0625-1.375 0.96875-2.0625 0.90625-0.70312 2.5312-0.70312zm-2.3906 6.2344q0 0.57812 0.42188 0.90625 0.42188 0.3125 1.1875 0.3125 1.1406 0 1.8281-0.5625 0.6875-0.57812 0.6875-1.2812v-1.4219q-0.34375 0.25-0.89062 0.34375-0.54688 0.078125-1.4531 0.20312t-1.3438 0.48438-0.4375 1.0156zm9.0469-9.1875v11.422h-1.3594v-11.422h1.3594z" fill="#000"/>
<path d="m298.98 368.52q1.9062 0 3.1719 0.98438 1.2812 0.98438 1.5312 2.7344h-1.5156q-0.25-1.1719-1.0938-1.7969-0.84375-0.64062-2.1094-0.64062-1.8125 0-2.8438 1.2812-1.0156 1.2812-1.0156 3.3438 0 2.1875 1 3.4844 1.0156 1.2969 2.875 1.2969 1.4062 0 2.2969-0.875 0.89062-0.89062 1-2.4219h1.5312q-0.25 2.2188-1.5469 3.4062t-3.4062 1.1875q-2.4531 0-3.875-1.625-1.4062-1.6406-1.4062-4.3438 0-2.6562 1.4531-4.3281 1.4688-1.6875 3.9531-1.6875zm10.055 3.2344q1.875 0 2.9375 1.2188 1.0781 1.2031 1.0781 3.125t-1.0938 3.125-2.9219 1.2031q-1.7969 0-2.9062-1.1719-1.1094-1.1875-1.1094-3.1562t1.0781-3.1562q1.0938-1.1875 2.9375-1.1875zm-2.5781 4.3438q0 1.4219 0.71875 2.2656 0.73438 0.84375 1.8594 0.84375t1.8438-0.84375q0.73438-0.85938 0.73438-2.2656 0-1.4219-0.73438-2.2812-0.71875-0.85938-1.8594-0.85938-1.0938 0-1.8281 0.84375t-0.73438 2.2969zm12.203-4.3438q1.5 0 2.1719 0.76562t0.67188 2.1875v5.5156h-1.3594v-5.6562q0-0.70312-0.45312-1.1562-0.4375-0.45312-1.2344-0.45312-1.1562 0-1.7969 0.70312t-0.64062 1.8281v4.7344h-1.3594v-8.2812h1.2812v1.3125h0.03125q0.45312-0.76562 1.1094-1.125 0.65625-0.375 1.5781-0.375zm6.7891-2.2812v2.4688h1.6406v1.2031h-1.6406v5.1875q0 0.60938 0.40625 0.65625 0.40625 0.03125 0.85938 0.03125h0.375v1.2031h-1.125q-1.1094 0-1.5-0.39062-0.375-0.40625-0.375-1.3438v-5.3438h-1.4219v-1.2031h1.4219v-2.4688h1.3594zm6.5859 2.2812q1.7812 0 2.7656 1.2812t0.98438 3.2969v0.15625h-6.2031v0.10938q0 1.1719 0.6875 1.8906t1.8906 0.71875q0.90625 0 1.4375-0.42188 0.54688-0.42188 0.70312-1.1875h1.3438q-0.26562 1.375-1.2031 2.1094-0.92188 0.71875-2.3281 0.71875-1.2969 0-2.2031-0.59375t-1.3438-1.6406q-0.42188-1.0625-0.42188-2.1562 0-1.8281 1.0938-3.0469 1.1094-1.2344 2.7969-1.2344zm-2.4531 3.5312h4.75q-0.0625-1-0.73438-1.6562-0.65625-0.67188-1.6562-0.67188-0.9375 0-1.6094 0.64062-0.65625 0.625-0.75 1.6875zm8.6875-3.3438l1.9844 2.8906h0.015625l2.0469-2.8906h1.6406l-2.8438 3.8125 3.1875 4.4688h-1.7344l-2.3125-3.4219-2.2969 3.4219h-1.6562l3.1094-4.3594-2.875-3.9219h1.7344zm9.1016-2.4688v2.4688h1.6406v1.2031h-1.6406v5.1875q0 0.60938 0.40625 0.65625 0.40625 0.03125 0.85938 0.03125h0.375v1.2031h-1.125q-1.1094 0-1.5-0.39062-0.375-0.40625-0.375-1.3438v-5.3438h-1.4219v-1.2031h1.4219v-2.4688h1.3594zm11.672 2.2812q1.7656 0 2.7812 1.2188 1.0312 1.2188 1.0312 3.1406t-1.0156 3.125q-1.0156 1.1875-2.7656 1.1875-0.76562 0-1.5156-0.32812-0.73438-0.32812-1.1562-0.98438h-0.03125v4.2812h-1.3594v-11.453h1.3594v1.125h0.03125q0.3125-0.64062 1-0.96875 0.70312-0.34375 1.6406-0.34375zm-2.7188 4.3281q0 1.4375 0.6875 2.2812 0.70312 0.84375 1.9219 0.84375 1.1719 0 1.8125-0.84375 0.65625-0.84375 0.65625-2.3438 0-1.3438-0.6875-2.2031-0.67188-0.85938-1.875-0.85938t-1.8594 0.875-0.65625 2.25zm11.5-4.3281q1.6875 0 2.3906 0.60938 0.71875 0.59375 0.71875 1.6094 0 4.2969 0 4.7656t0.42188 0.46875q0.09375 0 0.20312-0.015625 0.10938-0.03125 0.21875-0.0625v1.0625q-0.1875 0.10938-0.4375 0.17188t-0.53125 0.0625q-0.5625 0-0.85938-0.3125-0.29688-0.32812-0.29688-0.98438-0.54688 0.64062-1.2812 0.96875t-1.6406 0.32812q-1.2812 0-2.0156-0.60938-0.71875-0.60938-0.71875-1.7188 0-1.125 0.70312-1.7656 0.71875-0.65625 3.3594-0.98438 0.89062-0.125 1.2031-0.34375 0.3125-0.23438 0.3125-0.6875 0-0.6875-0.4375-1.0156-0.4375-0.34375-1.4062-0.34375-1 0-1.5156 0.39062-0.5 0.375-0.53125 1.1719h-1.3594q0.0625-1.375 0.96875-2.0625 0.90625-0.70312 2.5312-0.70312zm-2.3906 6.2344q0 0.57812 0.42188 0.90625 0.42188 0.3125 1.1875 0.3125 1.1406 0 1.8281-0.5625 0.6875-0.57812 0.6875-1.2812v-1.4219q-0.34375 0.25-0.89062 0.34375-0.54688 0.078125-1.4531 0.20312t-1.3438 0.48438-0.4375 1.0156zm9.5-8.5156v2.4688h1.6406v1.2031h-1.6406v5.1875q0 0.60938 0.40625 0.65625 0.40625 0.03125 0.85938 0.03125h0.375v1.2031h-1.125q-1.1094 0-1.5-0.39062-0.375-0.40625-0.375-1.3438v-5.3438h-1.4219v-1.2031h1.4219v-2.4688h1.3594zm4.5078-0.67188v4.3594h0.03125q0.29688-0.65625 1-1.0312 0.71875-0.375 1.6094-0.375 1.5 0 2.1719 0.76562t0.67188 2.1875v5.5156h-1.3594v-5.6562q0-0.70312-0.45312-1.1562-0.4375-0.45312-1.2344-0.45312-1.1562 0-1.7969 0.70312t-0.64062 1.8281v4.7344h-1.3594v-11.422h1.3594zm10.289 2.9531q1.6719 0 2.4844 0.65625 0.8125 0.64062 0.89062 1.9375h-1.3594v-0.015625q-0.0625-0.65625-0.57812-1.0156t-1.3438-0.35938q-0.8125 0-1.2969 0.28125-0.46875 0.26562-0.46875 0.76562 0 0.45312 0.42188 0.75 0.42188 0.28125 1.2656 0.46875l1.2812 0.28125q1.2031 0.26562 1.8281 0.82812 0.625 0.54688 0.625 1.4688 0 1.2188-0.95312 1.9219-0.9375 0.70312-2.5781 0.70312-1.5781 0-2.5156-0.71875-0.92188-0.71875-0.98438-2.0938h1.3594q0.03125 0.76562 0.60938 1.1875 0.59375 0.40625 1.6094 0.40625 0.98438 0 1.4844-0.3125 0.51562-0.3125 0.51562-0.92188 0-0.54688-0.5-0.875t-2.0625-0.64062q-1.5625-0.29688-2.2031-0.85938t-0.64062-1.4844q0-1.0938 0.875-1.7188 0.89062-0.64062 2.2344-0.64062z" fill="#000"/>
<path d="m419.2 646.92v103.06" fill="#000" fill-opacity="0" fill-rule="evenodd"/>
<path d="m419.2 646.92v85.055" fill-rule="evenodd" stroke="#8e7cc3" stroke-linecap="butt" stroke-linejoin="round" stroke-width="3"/>
<path d="m414.25 731.98l4.9552 13.614 4.9552-13.614z" fill-rule="evenodd" stroke="#8e7cc3" stroke-linecap="butt" stroke-width="3"/>
<path d="m335.09 761.94c0-6.6072 5.3562-11.964 11.964-11.964h144.29c3.1729 0 6.2159 1.2604 8.4595 3.504 2.2436 2.2436 3.504 5.2866 3.504 8.4595v47.853c0 6.6072-5.3563 11.964-11.964 11.964h-144.29c-6.6073 0-11.964-5.3563-11.964-11.964z" fill="#fff" fill-rule="evenodd"/>
<path d="m335.09 761.94c0-6.6072 5.3562-11.964 11.964-11.964h144.29c3.1729 0 6.2159 1.2604 8.4595 3.504 2.2436 2.2436 3.504 5.2866 3.504 8.4595v47.853c0 6.6072-5.3563 11.964-11.964 11.964h-144.29c-6.6073 0-11.964-5.3563-11.964-11.964z" fill-rule="evenodd" stroke="#6c0" stroke-linecap="butt" stroke-linejoin="round" stroke-width="3"/>
<path d="m358.89 780.31v1.2812h-3.8125v10.141h-1.5156v-10.141h-3.8125v-1.2812h9.1406zm9.1562 0v1.2812h-6.375v3.625h5.9375v1.2812h-5.9375v3.9531h6.4219v1.2812h-7.9375v-11.422h7.8906zm3.3984 0v10.141h6.0469v1.2812h-7.5625v-11.422h1.5156zm8.8359 0v7.3594q0 1.3906 0.79688 2.2188 0.8125 0.82812 2.375 0.82812 1.4844 0 2.2344-0.8125 0.75-0.82812 0.75-2.2344v-7.3594h1.5156v7.375q0 2.0156-1.1406 3.1719-1.125 1.1562-3.3594 1.1562-2.3281 0-3.5156-1.125-1.1719-1.1406-1.1719-3.2031v-7.375h1.5156zm13.945-0.28125q1.9062 0 3.0156 0.92188 1.125 0.92188 1.1875 2.7031h-1.4375q-0.125-1.1719-0.84375-1.75-0.70312-0.59375-1.9844-0.59375-1.2188 0-1.8906 0.51562-0.67188 0.5-0.67188 1.4375 0 0.67188 0.5625 1.1094 0.57812 0.42188 3.1094 0.92188 1.8281 0.375 2.7344 1.1562 0.90625 0.76562 0.90625 2.1406 0 1.5938-1.3125 2.5156-1.2969 0.90625-3.1562 0.90625-2.0781 0-3.3906-1.0469t-1.3281-3h1.4375q0.015625 1.3125 0.9375 2.0312t2.3906 0.71875q1.3906 0 2.1406-0.53125 0.76562-0.53125 0.76562-1.5469 0-0.8125-0.70312-1.2969-0.6875-0.5-2.5156-0.84375-2.4375-0.46875-3.2656-1.1875-0.82812-0.73438-0.82812-1.9375 0-1.5312 1.1562-2.4375 1.1719-0.90625 2.9844-0.90625zm14.984 0.28125q2.5938 0 3.9844 1.375 1.4062 1.375 1.4062 4.0625 0 3.0156-1.3906 4.5-1.375 1.4844-4 1.4844h-4.0156v-11.422h4.0156zm0.09375 10.141q1.7031 0 2.7344-1.1094 1.0469-1.125 1.0469-3.3906t-0.95312-3.3125q-0.9375-1.0469-2.7812-1.0469h-2.6406v8.8594h2.5938zm8.375-10.141v1.6562h-1.3594v-1.6562h1.3594zm0 3.1406v8.2812h-1.3594v-8.2812h1.3594zm5.4766-0.1875q0.875 0 1.5 0.375 0.64062 0.375 0.98438 1h0.015625v-1.1875h1.2656v7.6562q0 1.9531-0.9375 2.9688t-2.8906 1.0156q-1.4219 0-2.3906-0.625t-1.0312-1.7969h1.3594q0.03125 0.625 0.67188 0.98438t1.4688 0.35938q1.2031 0 1.8438-0.79688t0.64062-2.375v-0.51562h-0.03125q-0.32812 0.6875-1.0156 1.0938t-1.5781 0.40625q-1.6719 0-2.6875-1.1562-1-1.1562-1-3.0312 0-1.9062 1-3.1406 1.0156-1.2344 2.8125-1.2344zm-2.375 4.2031q0 1.4844 0.60938 2.3281 0.625 0.82812 1.7344 0.82812 1.125 0 1.7812-0.85938 0.67188-0.875 0.67188-2.3438 0-1.3281-0.625-2.1406-0.60938-0.8125-1.7344-0.8125-1.1406 0-1.7969 0.82812-0.64062 0.8125-0.64062 2.1719zm9.6406-7.1562v1.6562h-1.3594v-1.6562h1.3594zm0 3.1406v8.2812h-1.3594v-8.2812h1.3594zm4.0078-2.4688v2.4688h1.6406v1.2031h-1.6406v5.1875q0 0.60938 0.40625 0.65625 0.40625 0.03125 0.85938 0.03125h0.375v1.2031h-1.125q-1.1094 0-1.5-0.39062-0.375-0.40625-0.375-1.3438v-5.3438h-1.4219v-1.2031h1.4219v-2.4688h1.3594zm6.5234 2.2812q1.6875 0 2.3906 0.60938 0.71875 0.59375 0.71875 1.6094 0 4.2969 0 4.7656t0.42188 0.46875q0.09375 0 0.20312-0.015625 0.10938-0.03125 0.21875-0.0625v1.0625q-0.1875 0.10938-0.4375 0.17188t-0.53125 0.0625q-0.5625 0-0.85938-0.3125-0.29688-0.32812-0.29688-0.98438-0.54688 0.64062-1.2812 0.96875t-1.6406 0.32812q-1.2812 0-2.0156-0.60938-0.71875-0.60938-0.71875-1.7188 0-1.125 0.70312-1.7656 0.71875-0.65625 3.3594-0.98438 0.89062-0.125 1.2031-0.34375 0.3125-0.23438 0.3125-0.6875 0-0.6875-0.4375-1.0156-0.4375-0.34375-1.4062-0.34375-1 0-1.5156 0.39062-0.5 0.375-0.53125 1.1719h-1.3594q0.0625-1.375 0.96875-2.0625 0.90625-0.70312 2.5312-0.70312zm-2.3906 6.2344q0 0.57812 0.42188 0.90625 0.42188 0.3125 1.1875 0.3125 1.1406 0 1.8281-0.5625 0.6875-0.57812 0.6875-1.2812v-1.4219q-0.34375 0.25-0.89062 0.34375-0.54688 0.078125-1.4531 0.20312t-1.3438 0.48438-0.4375 1.0156zm9.0469-9.1875v11.422h-1.3594v-11.422h1.3594zm10.625-0.28125q1.9062 0 3.0156 0.92188 1.125 0.92188 1.1875 2.7031h-1.4375q-0.125-1.1719-0.84375-1.75-0.70312-0.59375-1.9844-0.59375-1.2188 0-1.8906 0.51562-0.67188 0.5-0.67188 1.4375 0 0.67188 0.5625 1.1094 0.57812 0.42188 3.1094 0.92188 1.8281 0.375 2.7344 1.1562 0.90625 0.76562 0.90625 2.1406 0 1.5938-1.3125 2.5156-1.2969 0.90625-3.1562 0.90625-2.0781 0-3.3906-1.0469t-1.3281-3h1.4375q0.015625 1.3125 0.9375 2.0312t2.3906 0.71875q1.3906 0 2.1406-0.53125 0.76562-0.53125 0.76562-1.5469 0-0.8125-0.70312-1.2969-0.6875-0.5-2.5156-0.84375-2.4375-0.46875-3.2656-1.1875-0.82812-0.73438-0.82812-1.9375 0-1.5312 1.1562-2.4375 1.1719-0.90625 2.9844-0.90625zm7.7422 0.28125v1.6562h-1.3594v-1.6562h1.3594zm0 3.1406v8.2812h-1.3594v-8.2812h1.3594zm4.0078-2.4688v2.4688h1.6406v1.2031h-1.6406v5.1875q0 0.60938 0.40625 0.65625 0.40625 0.03125 0.85938 0.03125h0.375v1.2031h-1.125q-1.1094 0-1.5-0.39062-0.375-0.40625-0.375-1.3438v-5.3438h-1.4219v-1.2031h1.4219v-2.4688h1.3594zm6.5859 2.2812q1.7812 0 2.7656 1.2812t0.98438 3.2969v0.15625h-6.2031v0.10938q0 1.1719 0.6875 1.8906t1.8906 0.71875q0.90625 0 1.4375-0.42188 0.54688-0.42188 0.70312-1.1875h1.3438q-0.26562 1.375-1.2031 2.1094-0.92188 0.71875-2.3281 0.71875-1.2969 0-2.2031-0.59375t-1.3438-1.6406q-0.42188-1.0625-0.42188-2.1562 0-1.8281 1.0938-3.0469 1.1094-1.2344 2.7969-1.2344zm-2.4531 3.5312h4.75q-0.0625-1-0.73438-1.6562-0.65625-0.67188-1.6562-0.67188-0.9375 0-1.6094 0.64062-0.65625 0.625-0.75 1.6875zm10.359-3.5312q1.6719 0 2.4844 0.65625 0.8125 0.64062 0.89062 1.9375h-1.3594v-0.015625q-0.0625-0.65625-0.57812-1.0156t-1.3438-0.35938q-0.8125 0-1.2969 0.28125-0.46875 0.26562-0.46875 0.76562 0 0.45312 0.42188 0.75 0.42188 0.28125 1.2656 0.46875l1.2812 0.28125q1.2031 0.26562 1.8281 0.82812 0.625 0.54688 0.625 1.4688 0 1.2188-0.95312 1.9219-0.9375 0.70312-2.5781 0.70312-1.5781 0-2.5156-0.71875-0.92188-0.71875-0.98438-2.0938h1.3594q0.03125 0.76562 0.60938 1.1875 0.59375 0.40625 1.6094 0.40625 0.98438 0 1.4844-0.3125 0.51562-0.3125 0.51562-0.92188 0-0.54688-0.5-0.875t-2.0625-0.64062q-1.5625-0.29688-2.2031-0.85938t-0.64062-1.4844q0-1.0938 0.875-1.7188 0.89062-0.64062 2.2344-0.64062z" fill="#000"/>
<path d="m224.51 485.74h978.52v374.9h-978.52z" fill="#000" fill-opacity="0" fill-rule="evenodd"/>
<path d="m224.51 485.74h978.52v374.9h-978.52z" fill-rule="evenodd" stroke="#000" stroke-dasharray="4.0,3.0" stroke-linecap="butt" stroke-linejoin="round"/>
<path d="m1259.1 110.61v375.37h-60.473v-375.37z" fill="#b4a7d6" fill-rule="evenodd"/>
<path d="m1235.5 286.57q0 2.0781-0.82812 3.1562-0.8125 1.0781-2.5156 1.0781-1.0469 0-1.7344-0.48438t-1.1094-1.3594q-0.375 1.2344-1.2656 1.8594-0.875 0.625-2.1719 0.625-1.875 0-2.9062-1.3594-1.0312-1.3438-1.0312-3.3438v-6.6562h13.562v6.4844zm-5.4844-0.4375q0 0.8125 0.40625 1.2969t1.2031 0.48438 1.1719-0.5q0.39062-0.5 0.39062-1.4844v-2.8594h-3.1719v3.0625zm-5.7656 0.20312q0 0.98438 0.4375 1.5469 0.4375 0.57812 1.3438 0.57812 0.96875 0 1.4531-0.53125 0.5-0.53125 0.5-1.5469v-3.3125h-3.7344v3.2656zm11.25 16.933h-2.5v-4.0625h-11.062v-2.9844h11.062v-4.0625h2.5v11.109zm0.32812 7.4272q0 3.0312-2.0312 4.8438-2.0312 1.8281-5.1406 1.8281-3.0312 0-5.0469-1.8281-2-1.8281-2-4.8438 0-1.9531 0.89062-3.4844 0.90625-1.5156 2.5312-2.3594 1.6406-0.82812 3.625-0.82812 3.1406 0 5.1562 1.8281 2.0156 1.8438 2.0156 4.8438zm-7.1719-3.6875q-2 0-3.2656 0.95312-1.2656 0.96875-1.2656 2.7344 0 1.75 1.25 2.7188t3.2812 0.96875q2.1562 0 3.4062-0.98438 1.2656-0.96875 1.2656-2.7188 0-1.7344-1.2812-2.7031-1.2656-0.96875-3.3906-0.96875z" fill="#fff"/>
<path d="m1259.1 485.5v375.37h-60.473v-375.37z" fill="#5cb900" fill-rule="evenodd"/>
<path d="m1235.5 660.02l-13.547 5.0625v-3.0938l3.0156-1.0156v-5.0781l-3.0312-1.0625v-3.0156l13.562 5.1406v3.0625zm-3.3438-1.5781l-4.9844-1.7656v3.5156l4.9844-1.7031v-0.046875zm3.3438 9.3275l-9.2344 2.1406v0.03125l9.2344 2.3594v2.7969l-9.3438 2.3125v0.046875l9.3438 2.2188v2.9219l-13.562-3.6406v-2.9688l9.2344-2.2969v-0.03125l-9.2344-2.2656v-3.0312l13.562-3.5781v2.9844zm0.32812 20.546q0 2.4531-1.1406 3.9375t-3.2344 1.4844v-2.875q1.0312-0.0625 1.5312-0.70312 0.51562-0.625 0.51562-1.9688 0-0.90625-0.40625-1.4844-0.39062-0.57812-1.125-0.57812-0.51562 0-0.76562 0.23438-0.25 0.25-0.53125 0.98438-0.26562 0.75-0.85938 3.2656-0.40625 1.6875-1.3906 2.625-0.96875 0.95312-2.4531 0.95312-1.9688 0-3.1719-1.4688-1.1875-1.4688-1.1875-4.1562 0-2.5625 1.2656-4.1719t3.4844-1.6094h0.078125v2.875q-1.2656 0.015625-1.8906 0.84375-0.60938 0.82812-0.60938 2.1719 0 1.2031 0.4375 1.9219t1.25 0.71875q0.65625 0 1.0781-0.5625 0.42188-0.54688 0.73438-1.7656 0.34375-1.5469 0.73438-2.8281 0.40625-1.2656 1.2812-2.0938 0.89062-0.82812 2.2656-0.82812 1.8281 0 2.9688 1.4531 1.1406 1.4688 1.1406 3.625z" fill="#fff"/>
</g>
</svg>
